<svg xmlns="http://www.w3.org/2000/svg" xmlns:xlink="http://www.w3.org/1999/xlink" width="605.642" height="436.819" viewBox="0 0 605.642 436.819">
  <defs>
    <linearGradient id="linear-gradient" x1="0.495" y1="1.05" x2="0.527" y2="0.183" gradientUnits="objectBoundingBox">
      <stop offset="0" stop-color="#31d1d6"/>
      <stop offset="0.373" stop-color="#32ced8"/>
      <stop offset="0.617" stop-color="#35c5de"/>
      <stop offset="0.824" stop-color="#3cb6ea"/>
      <stop offset="1" stop-color="#45a3fa"/>
    </linearGradient>
    <linearGradient id="linear-gradient-2" x1="0.5" y1="1.009" x2="0.5" y2="0.465" gradientUnits="objectBoundingBox">
      <stop offset="0" stop-color="#f9e6d9"/>
      <stop offset="0.121" stop-color="#fbf1ea"/>
      <stop offset="0.27" stop-color="#fdf9f6"/>
      <stop offset="0.475" stop-color="#fefdfd"/>
      <stop offset="1" stop-color="#fff"/>
    </linearGradient>
    <linearGradient id="linear-gradient-3" x1="0.497" y1="1.082" x2="0.509" y2="0.559" xlink:href="#linear-gradient-2"/>
    <linearGradient id="linear-gradient-4" x1="0.509" y1="1.066" x2="0.5" y2="0.689" xlink:href="#linear-gradient-2"/>
    <linearGradient id="linear-gradient-5" x1="0.506" y1="1.034" x2="0.496" y2="0.634" xlink:href="#linear-gradient-2"/>
    <linearGradient id="linear-gradient-6" y1="0.5" x2="1" y2="0.5" gradientUnits="objectBoundingBox">
      <stop offset="0" stop-color="#3c0887"/>
      <stop offset="0.323" stop-color="#3e0987"/>
      <stop offset="0.534" stop-color="#470d87"/>
      <stop offset="0.713" stop-color="#561488"/>
      <stop offset="0.873" stop-color="#6b1f89"/>
      <stop offset="1" stop-color="#822a8a"/>
    </linearGradient>
    <linearGradient id="linear-gradient-7" x1="0.507" y1="1.067" x2="0.497" y2="0.553" xlink:href="#linear-gradient-2"/>
  </defs>
  <g id="_2634443" data-name="2634443" transform="translate(-90.533 -42.855)">
    <g id="OBJECTS">
      <g id="Group_123" data-name="Group 123">
        <path id="Path_190" data-name="Path 190" d="M204.161,373.453H152.677c-13.776-14.311-17.461-37.116-9.232-55.2,7.844-17.235,24.685-28.62,34.889-44.571,21.777-34.041,11.251-84.755,40.844-112.274,14.792-13.755,36.063-17.734,56.2-19.342s40.946-1.564,59.567-9.391c22.963-9.651,40.273-30.381,63.926-38.192,26.558-8.771,58.329,2.174,73.85,25.442,9.711,14.559,13.376,32.851,24.861,46.057C516.152,187.34,548.869,189,572.03,205.258a69.225,69.225,0,0,1,28.659,48.669c2.472,23.3-6.376,49.776,7.6,68.591,6.814,9.174,17.862,14.346,25.2,23.1,7.316,8.726,9.376,16.678,7.074,27.831Z" opacity="0.37" fill="url(#linear-gradient)" style="mix-blend-mode: darken;isolation: isolate"/>
        <path id="Path_191" data-name="Path 191" d="M228.082,420.108h-60c-16.056-16.679-20.351-43.257-10.761-64.328,9.142-20.087,28.77-33.355,40.663-51.945,25.379-39.673,13.113-98.778,47.6-130.85,17.239-16.031,42.03-20.668,65.5-22.542S358.8,148.619,380.5,139.5c26.762-11.248,46.936-35.408,74.5-44.511,30.953-10.222,67.981,2.534,86.069,29.652,11.319,16.968,15.589,38.286,28.974,53.677,21.644,24.887,59.774,26.818,86.768,45.77a80.677,80.677,0,0,1,33.4,56.721c2.881,27.161-7.43,58.012,8.855,79.94,7.941,10.692,20.817,16.72,29.374,26.927,8.526,10.17,10.927,19.437,8.244,32.436Z" transform="translate(-41.558 -46.327)" fill="#7a52e9"/>
      </g>
      <path id="Path_192" data-name="Path 192" d="M335.807,197.162l-2.12.07H142.227l-.46.06c-1.9-12.7,8.04-25.6,20.55-29.02,10.94-2.99,23.74-.33,32.9-7.02,8.21-5.99,10.25-17.19,15.62-25.82a36.56,36.56,0,0,1,13.67-12.84c6.98-3.75,15.69-5.06,22.85-1.67,12.68,6.02,15.11,22.82,23.59,34.01,1.89,2.5,4.27,4.83,7.3,5.66,2.79.77,5.75.17,8.61-.34,9.37-1.65,20.61-1.5,26.44,6.02,2.74,3.54,3.72,8.08,5.24,12.28s4.01,8.53,8.22,10.04c2.02.71,4.31.73,6.09,1.92C334.987,191.942,335.677,194.492,335.807,197.162Z" transform="translate(-51)" fill="url(#linear-gradient-2)"/>
      <path id="Path_193" data-name="Path 193" d="M643.772,221.339H420.5a8.91,8.91,0,0,1-.73-8.74c1.65-3.65,5.09-6.13,8.52-8.19s7.08-3.97,9.65-7.04c4.93-5.89,4.64-14.34,5.73-21.94,1.28-9.02,5.06-17.95,11.88-24a37.163,37.163,0,0,1,9.11-5.82c9.35-4.35,20.93-5.44,29.67.04,8.36,5.24,12.46,15.21,19.75,21.86a13.689,13.689,0,0,0,5.97,3.52c6.53,1.5,12.08-4.42,16.98-8.99,6.96-6.49,16.26-11.34,25.7-10.13,11.1,1.44,19.68,10.96,23.89,21.33,1.76,4.32,3.1,9.1,6.6,12.17,8.98,7.87,24.14-.95,34.61,4.77,3.93,2.15,6.56,6.06,8.66,10.02A72.317,72.317,0,0,1,643.772,221.339Z" transform="translate(51)" fill="url(#linear-gradient-3)"/>
      <g id="Group_124" data-name="Group 124">
        <path id="Path_194" data-name="Path 194" d="M331.393,345.211H315.33v28.233H276.422V345.211H218.258V316.279l60.658-88.692H315.33V315.78h16.063ZM276.422,315.78V298.82q0-4.789.349-12.92a83.193,83.193,0,0,1,.549-8.53h-1.1a105.378,105.378,0,0,1-7.682,14.366L252.379,315.78Z" fill="#5a3bb2"/>
        <path id="Path_195" data-name="Path 195" d="M320.767,345.219H304.7v28.234H265.8V345.219H207.633V316.287L268.29,227.6H304.7v88.193h16.062ZM265.8,315.789v-16.96q0-4.79.349-12.92a83.52,83.52,0,0,1,.549-8.53h-1.1a105.437,105.437,0,0,1-7.682,14.366l-16.162,24.044Z" fill="url(#linear-gradient-4)"/>
      </g>
      <g id="Group_125" data-name="Group 125">
        <path id="Path_196" data-name="Path 196" d="M585.294,346.189l-5.59-28.9-10.43,2.02-5.34,1.03-16.74-86.59-35.76,6.92-42.71,98.59,5.49,28.41,57.11-11.05,3.25,16.83H574.2l-4.68-24.21,5.34-1.03Zm-69.99-16.44-13.17,2.54,9.4-22.18,1.9-4.49a105.8,105.8,0,0,0,4.81-15.57l1.08-.2a84.33,84.33,0,0,0,1.08,8.48q1.2,8.04,2.11,12.75l3.22,16.65Z" fill="#5a3bb2"/>
        <path id="Path_197" data-name="Path 197" d="M574.864,348.209l-5.59-28.89-15.77,3.05-16.75-86.59-25.32,4.89L501,242.689l-42.71,98.6,5.49,28.4,10.43-2.02,46.68-9.02,2.86,14.8h39.63l-4.29-22.19,10.43-2.02Zm-63.33-38.1c.19,1.09.38,2.08.55,2.99l3.22,16.65-23.61,4.57L503,307.639a105.3,105.3,0,0,0,4.81-15.56l1.08-.21a83.55,83.55,0,0,0,1.08,8.48C510.544,304.169,511.064,307.429,511.534,310.109Z" fill="url(#linear-gradient-5)"/>
      </g>
      <g id="Group_130" data-name="Group 130">
        <g id="Group_126" data-name="Group 126">
          <path id="Path_198" data-name="Path 198" d="M336.824,299.469H313.069l-15.091-110.49s-21.8-23.819-46.834-28.279l23.84-2.57,53.73,1.46Z" fill="#191a1e"/>
          <path id="Path_199" data-name="Path 199" d="M243.071,238.728s-13.5,19.755-7.506,36.717l25.112-36.717-3.261-4.38Z" fill="#111023"/>
          <path id="Path_200" data-name="Path 200" d="M313.069,299.468l-.809,5.1s-7.156,1-7.555,11.22h18.611l10.113-9.872.944-6.449Z" fill="#111023"/>
          <path id="Path_201" data-name="Path 201" d="M284.334,188.9l-29.77-1.11,4.838,45.589-20.178,7.231-11.63-56.3a17.4,17.4,0,0,1,14.67-22.65l8.87-.96h.01c25.03,4.46,46.834,28.279,46.834,28.279Z" fill="#191a1e"/>
        </g>
        <g id="Group_127" data-name="Group 127">
          <path id="Path_202" data-name="Path 202" d="M229.514,61.653v1.325l-1.614.207a6.286,6.286,0,0,0-1.3-1.992c-2.155-1.858-3.652-3.318-5.194-2.426-1.163.677-1.073,3.859-.964,5.365l-4.391.559-38.9,4.932-.018-.072c2.524-.6,4.481-5.121,4.481-10.621,0-5.428-1.9-9.9-4.373-10.6l52.267,5.9v7.43Z" fill="#5a3bb2"/>
          <path id="Path_203" data-name="Path 203" d="M180.051,51.176a5.426,5.426,0,0,0-.3.5,27.653,27.653,0,0,1-1.514,3.309,4.483,4.483,0,0,1-2.065,1.631,11.811,11.811,0,0,1-2.768.523,6.418,6.418,0,0,0-1.831.469c.3-5.193,2.345-9.232,4.86-9.368l.812.091A5.048,5.048,0,0,1,180.051,51.176Z" fill="#7a52e9"/>
          <path id="Path_204" data-name="Path 204" d="M181.6,58.055c-.018.018-.027.036-.046.054-.64.857-.946,1.93-1.541,2.813A5.04,5.04,0,0,1,176.994,63c-1.127.252-2.344.117-3.372.631a3.307,3.307,0,0,0-1.262,1.181,20.1,20.1,0,0,1-.83-5.878c0-.451.009-.893.045-1.326a6.418,6.418,0,0,1,1.831-.469,11.811,11.811,0,0,0,2.768-.523,4.483,4.483,0,0,0,2.065-1.631,27.653,27.653,0,0,0,1.514-3.309,5.426,5.426,0,0,1,.3-.5A17.316,17.316,0,0,1,181.6,58.055Z" fill="#fff"/>
          <path id="Path_205" data-name="Path 205" d="M181.62,58.93c0,5.5-1.957,10.026-4.481,10.621a2.4,2.4,0,0,1-.568.072c-1.759,0-3.309-1.912-4.211-4.815a3.307,3.307,0,0,1,1.262-1.181c1.028-.514,2.245-.379,3.372-.631a5.04,5.04,0,0,0,3.021-2.074c.6-.883.9-1.956,1.541-2.813.019-.018.028-.036.046-.054C181.611,58.344,181.62,58.632,181.62,58.93Z" fill="#7a52e9"/>
          <path id="Path_206" data-name="Path 206" d="M260.313,56.315h15.725a13.29,13.29,0,0,0-3.67,2c-.5.459-.279,1.3.334,2.371H260.313Z" fill="#5a3bb2"/>
          <path id="Path_207" data-name="Path 207" d="M295.161,58.948v1.74h-8.52A32,32,0,0,1,285,56.315h10.161Z" fill="#5a3bb2"/>
          <path id="Path_208" data-name="Path 208" d="M260.313,60.688v.965h-30.8V55.278h30.8v5.41Z" fill="#7a52e9"/>
          <path id="Path_209" data-name="Path 209" d="M230.731,72.544l-6.78,5.157s-8.232-8.628-7.9-13.01l4.391-.559c-.109-1.506-.2-4.688.964-5.365,1.542-.892,3.039.568,5.194,2.426a6.286,6.286,0,0,1,1.3,1.992A54.864,54.864,0,0,1,230.731,72.544Z" fill="#fff"/>
          <path id="Path_210" data-name="Path 210" d="M185.107,48.366c-.453-.992-1.918-.145-1.469.838a20.025,20.025,0,0,1-.911,18.618.846.846,0,0,0,1.465.845A21.819,21.819,0,0,0,185.107,48.366Z" fill="#191a1e"/>
        </g>
        <g id="Group_128" data-name="Group 128">
          <path id="Path_212" data-name="Path 212" d="M305.863,84.581l6.3,5.951,6.014,5.68s13.776-9.648,19.123-9.729a6.175,6.175,0,0,1,1.091.072c4.716.668,7.6,6.122,6.771,11.352-.892,5.635-.73,11.874-6.158,12.884s-29.339,6.816-29.339,6.816L283.494,82.1l3.084-2.155,6.87-4.805,1.389-.974,3.02,2.849,1.749,1.65Z"/>
          <path id="Path_213" data-name="Path 213" d="M322.76,80.442l15.634,6.113a6.175,6.175,0,0,0-1.091-.072c-5.347.081-19.123,9.729-19.123,9.729l-6.014-5.68Z"/>
          <path id="Path_214" data-name="Path 214" d="M339.007,110.791l-9.079,24.723-1.217,24.073s-1.064.189-2.913.451c-8.655,1.235-34.6,4.192-50.815-1.912l6.32-29.907-2.921-23.586-35.254,3.895L221,79.946l2.948-2.245,6.78-5.157L251.64,92.966l32.72-14.3a12.157,12.157,0,0,0,2.218,1.28L283.494,82.1l26.174,35.506S333.579,111.81,339.007,110.791Z"/>
          <path id="Path_215" data-name="Path 215" d="M293.448,75.141l-6.87,4.805a12.157,12.157,0,0,1-2.218-1.28,7.907,7.907,0,0,1-3.607-5.518c-.3-3.462-6.14-9.1-8.051-12.46-.613-1.073-.83-1.912-.334-2.372a13.319,13.319,0,0,1,3.67-2c3.633-1.443,8.475-2.425,8.917-.18a1.75,1.75,0,0,0,.045.18,32,32,0,0,0,1.641,4.373C289.129,66.494,293.448,75.141,293.448,75.141Z" fill="#fff"/>
          <path id="Path_216" data-name="Path 216" d="M329.928,135.514c-40.048-8.5-46.434-53.413-46.434-53.413l26.175,35.532,29.338-6.842Z" opacity="0.38" fill="url(#linear-gradient-6)" style="mix-blend-mode: overlay;isolation: isolate"/>
        </g>
        <g id="Group_129" data-name="Group 129">
          <path id="Path_217" data-name="Path 217" d="M322.535,58.614c.847-.234,1.7-.063,2.046,1.289.794,3.093-2.678,6.808-2.678,6.808l.857,13.731-10.594,10.09,4.147-11.866-10.45.685-6.257-.685-1.749-1.65s-1.217-11.387-1.217-18.068a21.617,21.617,0,0,1,.225-3.67l.054-.325c7.322,1.236,17.483-1.622,17.483-1.622s1.424,13.867,3.372,14.11,2.552-7.538,2.552-7.538A6.646,6.646,0,0,1,322.535,58.614Z" fill="#fff"/>
          <path id="Path_218" data-name="Path 218" d="M322.616,48.534l-.081,10.08a6.646,6.646,0,0,0-2.209,1.289s-.6,7.772-2.552,7.538-3.372-14.11-3.372-14.11-10.161,2.858-17.483,1.622v-.009a9.832,9.832,0,0,1-5.644-2.578c-5.6-5.9-3.651-9.242,4.373-7.421S320.308,37.11,322.616,48.534Z"/>
          <path id="Path_219" data-name="Path 219" d="M316.313,78.666l-4.147,11.865-6.3-5.951V79.351Z" fill="#eee"/>
          <path id="Path_220" data-name="Path 220" d="M296.22,56.783a6.107,6.107,0,0,1,4.982-.3c1.035.373.255,1.9-.768,1.527a4.2,4.2,0,0,0-3.283.2C296.179,58.7,295.237,57.276,296.22,56.783Z" fill="#191a1e"/>
          <ellipse id="Ellipse_10" data-name="Ellipse 10" cx="1.229" cy="1.824" rx="1.229" ry="1.824" transform="translate(310.451 59.079) rotate(-2.993)" fill="#191a1e"/>
          <path id="Path_221" data-name="Path 221" d="M313.918,56.374a6.106,6.106,0,0,0-4.985.226c-.991.479-.056,1.912.923,1.439a4.206,4.206,0,0,1,3.286-.143C314.16,58.28,314.947,56.762,313.918,56.374Z" fill="#191a1e"/>
          <path id="Path_222" data-name="Path 222" d="M302.053,66.479c.546-2.584,1.882-5.214,2.784-7.7.188-.517.95-.127.764.384l-1.707,4.7a10.669,10.669,0,0,0-.732,2.013c-.186,1.951.706,1.8,1.716,2.268.5.233.114,1-.384.764C303.253,68.33,301.678,68.252,302.053,66.479Z" fill="#191a1e"/>
          <path id="Path_223" data-name="Path 223" d="M301.11,61.052a5.4,5.4,0,0,0-2.73-1.2c-.629-.081-.89.886-.252.968a4.718,4.718,0,0,1,1.462.434l-1.6.52c-.611.2-.355,1.165.258.966l2.635-.856C301.2,61.782,301.424,61.3,301.11,61.052Z" fill="#191a1e"/>
          <ellipse id="Ellipse_11" data-name="Ellipse 11" cx="2.225" cy="3.213" rx="2.225" ry="3.213" transform="translate(303.019 70.891)" fill="#fff"/>
        </g>
      </g>
      <g id="Group_131" data-name="Group 131">
        <path id="Path_224" data-name="Path 224" d="M782.277,373.453H213.46s-30.606,18.566,14.9,21.708,116.474,6.113,114.723,20.258-42.845,11.351-42.845,36.324,189.532,19.209,189.532,19.209,107.068,1.281,122.316-15.251-43.163-31.667-32.562-38.187,87.564,13.039,99.032-2.794-2.294-25.846,18.859-27.942S778.709,392.26,782.277,373.453Z" transform="translate(-87.549 -0.177)" fill="#6b3ee5"/>
        <ellipse id="Ellipse_12" data-name="Ellipse 12" cx="28.337" cy="7.629" rx="28.337" ry="7.629" transform="translate(545.079 409.213)" fill="#7a52e9"/>
        <ellipse id="Ellipse_13" data-name="Ellipse 13" cx="43.517" cy="10.562" rx="43.517" ry="10.562" transform="translate(197.888 411.742)" fill="#7a52e9"/>
        <ellipse id="Ellipse_14" data-name="Ellipse 14" cx="48.117" cy="8.798" rx="48.117" ry="8.798" transform="translate(332.282 462.079)" fill="#7a52e9"/>
      </g>
      <g id="Group_134" data-name="Group 134">
        <g id="Group_132" data-name="Group 132">
          <path id="Path_225" data-name="Path 225" d="M450.234,296.289q-9.27-21.2-34.77-26.4-2.775-.57-5.43-.9-22.5-2.85-37.11,10.74-16.35,15.18-24.14,53.31-4.77,23.355-2.66,40.41h37.16q-.705-9.96,3.92-32.56,4.995-24.435,9.9-33.01,2.85-4.98,6.45-6.57a8.986,8.986,0,0,1,5.59-.54q7.14,1.47,8.22,11.61t-3.77,33.9q-3.645,17.8-7.31,27.17h40.74a179.181,179.181,0,0,0,4.98-19.32q1.425-6.975,2.24-13.38Q457.739,313.449,450.234,296.289Z" fill="#5a3bb2"/>
          <path id="Path_226" data-name="Path 226" d="M439.824,294.169q-8.325-19.035-29.79-25.18-2.415-.69-4.99-1.22-26.19-5.355-42.54,9.84-16.335,15.2-24.13,53.31-1.59,7.755-2.41,14.83a104.338,104.338,0,0,0,.04,27.7h37.11c-.05-.24-.08-.48-.11-.73q-1.17-9.705,3.78-33.95,5-24.435,9.91-33,4.9-8.58,12.04-7.11a8.748,8.748,0,0,1,4.82,2.65c1.85,1.98,2.97,4.96,3.4,8.95q1.08,10.155-3.77,33.9-4.08,19.92-8.19,29.29h40.93a181.18,181.18,0,0,0,5.67-21.43Q449.079,315.359,439.824,294.169Z" fill="url(#linear-gradient-7)"/>
        </g>
        <g id="Group_133" data-name="Group 133">
          <path id="Path_227" data-name="Path 227" d="M468.19,198.87l-.25.19L441.81,219.4,425.5,232.09l-13.58,37.58-3.77-1.36,13.99-38.67,43.6-33.93Z" fill="#2a2a2a"/>
        </g>
        <path id="Path_228" data-name="Path 228" d="M480.71,283.21c-2.97,3.53-7.02,5.95-10.99,8.3l-.27-.47c1.57-2.01,3.23-4.37,2.76-6.88a8.055,8.055,0,0,0-2.88-4.22c-2.19-1.93-4.63-3.56-6.72-5.59a12.938,12.938,0,0,1-4.2-7.47c-.44-3.8,1.61-7.39,2.41-11.13a7.53,7.53,0,0,0-.17-4.51c-1.34-3.18-5.39-3.91-8.6-5.19-2.87-1.16-5.57-3.31-6.37-6.3-1.16-4.34,1.93-8.78,1.51-13.25a8.814,8.814,0,0,0-5.38-7.1l26.13-20.34c4.43,3.84,8.25,8.93,8.3,14.74.02,3.68-1.47,7.18-2.53,10.7a9.552,9.552,0,0,0-.52,4.35c.41,2.22,2.18,3.9,3.81,5.47,3.37,3.23,6.76,7.16,6.7,11.83-.06,5.24-4.53,9.91-3.75,15.09.5,3.31,3.05,5.95,4.07,9.13C485.42,274.77,483.68,279.68,480.71,283.21Z" fill="#5d39c4"/>
      </g>
    </g>
  </g>
</svg>
