<svg xmlns="http://www.w3.org/2000/svg" width="101.108" height="101" viewBox="0 0 101.108 101">
  <g id="backend" transform="translate(0.5 0.5)" style="isolation: isolate">
    <path id="Path_312" data-name="Path 312" d="M37.764,28.762a4.491,4.491,0,1,0,4.491,4.491A4.5,4.5,0,0,0,37.764,28.762Zm0,5.922a1.43,1.43,0,1,1,1.43-1.43A1.433,1.433,0,0,1,37.764,34.683Zm0,0" transform="translate(-26.479 -22.888)" fill="#fff" stroke="#191a1e" stroke-width="1"/>
    <path id="Path_313" data-name="Path 313" d="M93.749,28.762a4.491,4.491,0,1,0,4.49,4.491A4.5,4.5,0,0,0,93.749,28.762Zm0,5.922a1.43,1.43,0,1,1,1.43-1.43A1.432,1.432,0,0,1,93.749,34.683Zm0,0" transform="translate(-71.879 -22.888)" fill="#fff" stroke="#191a1e" stroke-width="1"/>
    <path id="Path_314" data-name="Path 314" d="M149.736,28.762a4.491,4.491,0,1,0,4.491,4.491A4.5,4.5,0,0,0,149.736,28.762Zm0,5.922a1.43,1.43,0,1,1,1.43-1.43A1.433,1.433,0,0,1,149.736,34.683Zm0,0" transform="translate(-116.966 -22.888)" fill="#fff" stroke="#191a1e" stroke-width="1"/>
    <path id="Path_315" data-name="Path 315" d="M93.66,0H6.448A6.456,6.456,0,0,0,0,6.448v70.89a6.442,6.442,0,0,0,6.448,6.448H34.956v5.255H30.532a5.358,5.358,0,0,0-5.352,5.352v3.165A2.444,2.444,0,0,0,27.623,100H52.3a1.465,1.465,0,0,0,0-2.931H28.111V94.393a2.424,2.424,0,0,1,2.421-2.422H69.464a2.424,2.424,0,0,1,2.421,2.422v2.676h-10.5a1.465,1.465,0,0,0,0,2.931H72.373a2.445,2.445,0,0,0,2.443-2.442V94.393a5.358,5.358,0,0,0-5.352-5.352H65.04V83.787H93.548A6.442,6.442,0,0,0,100,77.338V70.316l.111-63.868A6.455,6.455,0,0,0,93.66,0ZM62.109,89.041H37.886V83.787H62.109Zm34.957-11.7a3.524,3.524,0,0,1-3.159,3.5c-.118.011-.238.018-.359.018H6.448c-.121,0-.241-.006-.359-.018a3.524,3.524,0,0,1-3.159-3.5V71.781H97.066Zm0-8.488H2.93V19.929H97.066Zm0-51.852H3.038V6.448A3.522,3.522,0,0,1,6.556,2.93H93.548a3.522,3.522,0,0,1,3.518,3.518Zm0,0" fill="#fff" stroke="#191a1e" stroke-width="1"/>
    <path id="Path_316" data-name="Path 316" d="M188.5,132.938H170.292a.87.87,0,1,0,0,1.739H188.5a.87.87,0,0,0,0-1.739Zm0,0" transform="translate(-143.251 -108.122)" fill="#fff"/>
    <path id="Path_317" data-name="Path 317" d="M189.676,246.827a.87.87,0,0,0,.87.87h13.511a.87.87,0,0,0,0-1.739H190.546A.87.87,0,0,0,189.676,246.827Zm0,0" transform="translate(-161.156 -206.38)" fill="#fff"/>
    <path id="Path_318" data-name="Path 318" d="M63.719,167.811a.87.87,0,0,0,.87.87H80.183a.87.87,0,0,0,0-1.74H64.588A.87.87,0,0,0,63.719,167.811Zm0,0" transform="translate(-50.619 -137.985)" fill="#fff"/>
    <path id="Path_319" data-name="Path 319" d="M241.9,166.941h-6.471a.87.87,0,1,0,0,1.74H241.9a.87.87,0,1,0,0-1.74Zm0,0" transform="translate(-200.117 -137.985)" fill="#fff"/>
    <path id="Path_320" data-name="Path 320" d="M327.082,167.811a.87.87,0,0,0,.87.87h12.184a.87.87,0,0,0,0-1.74H327.952A.87.87,0,0,0,327.082,167.811Zm0,0" transform="translate(-281.184 -137.985)" fill="#fff"/>
    <path id="Path_321" data-name="Path 321" d="M44.3,230.375v9.072a2.021,2.021,0,0,0,2.073,1.959h9.95a2.021,2.021,0,0,0,2.074-1.959v-9.072a2.021,2.021,0,0,0-2.074-1.958H52.114V226.1H69.306v2.319H65.252a2.021,2.021,0,0,0-2.074,1.958v9.072a2.021,2.021,0,0,0,2.074,1.959H75.2a2.021,2.021,0,0,0,2.074-1.959v-9.072a2.021,2.021,0,0,0-2.074-1.958H71.148V226.1H88.34v2.319H84.126a2.021,2.021,0,0,0-2.074,1.958v9.072a2.021,2.021,0,0,0,2.074,1.959h9.95a2.021,2.021,0,0,0,2.074-1.959v-9.072a2.021,2.021,0,0,0-2.074-1.958H90.182v-2.635a1.47,1.47,0,0,0-1.508-1.424H71.148v-2.94H84.229A2.02,2.02,0,0,0,86.3,219.46v-5.552a2.021,2.021,0,0,0-2.073-1.958H77.235a.871.871,0,1,0,0,1.74h6.995a.226.226,0,0,1,.232.219v5.552a.226.226,0,0,1-.232.219h-28a.226.226,0,0,1-.232-.219v-5.552a.226.226,0,0,1,.232-.219H71.647a.871.871,0,1,0,0-1.74H56.225a2.021,2.021,0,0,0-2.074,1.958v5.552a2.021,2.021,0,0,0,2.074,1.959H69.306v2.94H51.78a1.47,1.47,0,0,0-1.508,1.424v2.635H46.378a2.02,2.02,0,0,0-2.073,1.958Zm49.772-.219a.226.226,0,0,1,.232.219v9.072a.226.226,0,0,1-.232.219h-9.95a.226.226,0,0,1-.232-.219v-9.072a.226.226,0,0,1,.232-.219Zm-18.874,0a.226.226,0,0,1,.232.219v9.072a.226.226,0,0,1-.232.219h-9.95a.226.226,0,0,1-.232-.219v-9.072a.226.226,0,0,1,.232-.219Zm-18.874,0a.226.226,0,0,1,.232.219v9.072a.226.226,0,0,1-.232.219h-9.95a.226.226,0,0,1-.232-.219v-9.072a.226.226,0,0,1,.232-.219Zm0,0" transform="translate(-33.456 -175.859)" fill="#fff"/>
    <path id="Path_322" data-name="Path 322" d="M74.755,19.373v51" fill="#fff" stroke="#fff" stroke-width="2"/>
    <g id="Group_136" data-name="Group 136">
      <path id="Path_323" data-name="Path 323" d="M183.051,132.938H170.044c-.343,0-.622.39-.622.87s.278.87.622.87h13.008c.343,0,.621-.389.621-.87S183.394,132.938,183.051,132.938Zm0,0" transform="translate(-91.403 -108.122)" fill="#fff"/>
      <path id="Path_324" data-name="Path 324" d="M180.158,132.938H169.912c-.27,0-.49.307-.49.685s.219.685.49.685h10.246c.27,0,.489-.306.489-.685S180.428,132.938,180.158,132.938Zm0,0" transform="translate(-86.89 -103.982)" fill="#fff"/>
      <path id="Path_325" data-name="Path 325" d="M180.158,132.938H169.912c-.27,0-.49.307-.49.685s.219.685.49.685h10.246c.27,0,.489-.306.489-.685S180.428,132.938,180.158,132.938Zm0,0" transform="translate(-86.89 -101.619)" fill="#fff"/>
      <path id="Path_326" data-name="Path 326" d="M180.158,132.938H169.912c-.27,0-.49.307-.49.685s.219.685.49.685h10.246c.27,0,.489-.306.489-.685S180.428,132.938,180.158,132.938Zm0,0" transform="translate(-86.89 -99.255)" fill="#fff"/>
      <path id="Path_327" data-name="Path 327" d="M180.158,132.938H169.912c-.27,0-.49.307-.49.685s.219.685.49.685h10.246c.27,0,.489-.306.489-.685S180.428,132.938,180.158,132.938Zm0,0" transform="translate(-86.89 -96.892)" fill="#fff"/>
    </g>
    <g id="Group_137" data-name="Group 137" transform="translate(78.019 46.816)">
      <path id="Path_323-2" data-name="Path 323" d="M170.043,132.938h13.008c.343,0,.622.39.622.87s-.278.87-.622.87H170.043c-.343,0-.621-.389-.621-.87S169.7,132.938,170.043,132.938Zm0,0" transform="translate(-167.935 -132.938)" fill="#fff"/>
      <path id="Path_324-2" data-name="Path 324" d="M169.911,132.938h10.246c.27,0,.49.307.49.685s-.219.685-.49.685H169.911c-.27,0-.489-.306-.489-.685S169.641,132.938,169.911,132.938Zm0,0" transform="translate(-169.422 -128.798)" fill="#fff"/>
      <path id="Path_325-2" data-name="Path 325" d="M169.911,132.938h10.246c.27,0,.49.307.49.685s-.219.685-.49.685H169.911c-.27,0-.489-.306-.489-.685S169.641,132.938,169.911,132.938Zm0,0" transform="translate(-169.422 -126.435)" fill="#fff"/>
      <path id="Path_326-2" data-name="Path 326" d="M169.911,132.938h10.246c.27,0,.49.307.49.685s-.219.685-.49.685H169.911c-.27,0-.489-.306-.489-.685S169.641,132.938,169.911,132.938Zm0,0" transform="translate(-169.422 -124.072)" fill="#fff"/>
      <path id="Path_327-2" data-name="Path 327" d="M169.911,132.938h10.246c.27,0,.49.307.49.685s-.219.685-.49.685H169.911c-.27,0-.489-.306-.489-.685S169.641,132.938,169.911,132.938Zm0,0" transform="translate(-169.422 -121.709)" fill="#fff"/>
    </g>
  </g>
</svg>
