<svg xmlns="http://www.w3.org/2000/svg" width="101.557" height="101" viewBox="0 0 101.557 101">
  <g id="frontend" transform="translate(0.5 0.501)" style="isolation: isolate">
    <path id="Path_259" data-name="Path 259" d="M37.592,28.762a4.319,4.319,0,1,0,4.319,4.319A4.324,4.324,0,0,0,37.592,28.762Zm0,5.694a1.375,1.375,0,1,1,1.376-1.376A1.377,1.377,0,0,1,37.592,34.456Zm0,0" transform="translate(-26.738 -23.113)" fill="#fff" stroke="#191a1e" stroke-width="1"/>
    <path id="Path_260" data-name="Path 260" d="M93.577,28.762A4.319,4.319,0,1,0,97.9,33.08,4.324,4.324,0,0,0,93.577,28.762Zm0,5.694a1.375,1.375,0,1,1,1.376-1.376A1.377,1.377,0,0,1,93.577,34.456Zm0,0" transform="translate(-71.727 -23.113)" fill="#fff" stroke="#191a1e" stroke-width="1"/>
    <path id="Path_261" data-name="Path 261" d="M149.564,28.762a4.319,4.319,0,1,0,4.319,4.319A4.324,4.324,0,0,0,149.564,28.762Zm0,5.694a1.375,1.375,0,1,1,1.376-1.376A1.377,1.377,0,0,1,149.564,34.456Zm0,0" transform="translate(-116.719 -23.113)" fill="#fff" stroke="#191a1e" stroke-width="1"/>
    <path id="Path_262" data-name="Path 262" d="M98.974,28.9a1.469,1.469,0,0,0,1.472-1.466l.111-20.99A6.469,6.469,0,0,0,94.081,0H6.478A6.471,6.471,0,0,0,0,6.448v70.89a6.474,6.474,0,0,0,6.477,6.448H35.114v5.255H30.67a5.37,5.37,0,0,0-5.376,5.351v3.166A2.45,2.45,0,0,0,27.747,100h7.018a1.465,1.465,0,1,0,0-2.931H28.238V94.392a2.429,2.429,0,0,1,2.432-2.421H69.776a2.429,2.429,0,0,1,2.432,2.421v2.677H43.9a1.465,1.465,0,1,0,0,2.931H72.7a2.45,2.45,0,0,0,2.453-2.442V94.392a5.369,5.369,0,0,0-5.376-5.351H65.332V83.786H93.969a6.474,6.474,0,0,0,6.477-6.448V36.521a1.471,1.471,0,0,0-2.943,0V68.85h-46V19.929h46v7.508A1.469,1.469,0,0,0,98.974,28.9ZM3.052,19.929h45.5V68.745H3.052ZM62.389,89.041H38.058V83.786H62.389ZM97.5,71.781v5.557a3.53,3.53,0,0,1-3.173,3.5c-.119.011-.239.018-.361.018H6.478c-.122,0-.242-.006-.361-.018a3.53,3.53,0,0,1-3.173-3.5V71.781ZM50.027,17H3.052V6.447A3.529,3.529,0,0,1,6.586,2.93H93.969A3.53,3.53,0,0,1,97.5,6.448V17Zm0,0" fill="#fff" stroke="#191a1e" stroke-width="1"/>
    <path id="Path_263" data-name="Path 263" d="M40.882,119.752h7.456a1.471,1.471,0,1,0,0-2.943H40.882a1.471,1.471,0,1,0,0,2.943Zm0,0" transform="translate(-31.67 -93.974)" fill="#fff" stroke="#191a1e" stroke-width="1"/>
    <path id="Path_264" data-name="Path 264" d="M104.827,119.752h3.532a1.471,1.471,0,0,0,0-2.943h-3.532a1.471,1.471,0,1,0,0,2.943Zm0,0" transform="translate(-83.056 -93.974)" fill="#fff" stroke="#191a1e" stroke-width="1"/>
    <path id="Path_265" data-name="Path 265" d="M77.76,143.258H72.855a1.472,1.472,0,0,0,0,2.944H77.76a1.472,1.472,0,1,0,0-2.944Zm0,0" transform="translate(-57.363 -115.252)" fill="#fff" stroke="#191a1e" stroke-width="1"/>
    <path id="Path_266" data-name="Path 266" d="M195.654,170.656h-4.905a1.471,1.471,0,0,0,0,2.943h4.905a1.471,1.471,0,0,0,0-2.943Zm0,0" transform="translate(-152.103 -137.294)" fill="#fff" stroke="#191a1e" stroke-width="1"/>
    <path id="Path_267" data-name="Path 267" d="M119.34,144.73a1.472,1.472,0,0,0,1.471,1.471h11.773a1.472,1.472,0,1,0,0-2.944H120.811A1.472,1.472,0,0,0,119.34,144.73Zm0,0" transform="translate(-95.901 -115.252)" fill="#fff" stroke="#191a1e" stroke-width="1"/>
    <path id="Path_268" data-name="Path 268" d="M95.359,172.127a1.472,1.472,0,0,0,1.472,1.471h2.551a1.471,1.471,0,1,0,0-2.943H96.832A1.472,1.472,0,0,0,95.359,172.127Zm0,0" transform="translate(-76.63 -137.294)" fill="#fff" stroke="#191a1e" stroke-width="1"/>
    <path id="Path_269" data-name="Path 269" d="M138.864,173.6a1.471,1.471,0,1,0,0-2.943H131.8a1.471,1.471,0,1,0,0,2.943Zm0,0" transform="translate(-104.731 -137.294)" fill="#fff" stroke="#191a1e" stroke-width="1"/>
    <path id="Path_270" data-name="Path 270" d="M49.81,269.249a1.471,1.471,0,0,0-1.471-1.471H40.882a1.471,1.471,0,1,0,0,2.943h7.456A1.472,1.472,0,0,0,49.81,269.249Zm0,0" transform="translate(-31.67 -215.429)" fill="#fff" stroke="#191a1e" stroke-width="1"/>
    <path id="Path_271" data-name="Path 271" d="M104.827,267.777a1.471,1.471,0,0,0,0,2.943h3.532a1.471,1.471,0,0,0,0-2.943Zm0,0" transform="translate(-83.056 -215.428)" fill="#fff" stroke="#191a1e" stroke-width="1"/>
    <path id="Path_272" data-name="Path 272" d="M79.232,295.7a1.472,1.472,0,0,0-1.472-1.471H72.855a1.472,1.472,0,0,0,0,2.944H77.76A1.472,1.472,0,0,0,79.232,295.7Zm0,0" transform="translate(-57.363 -236.707)" fill="#fff" stroke="#191a1e" stroke-width="1"/>
    <path id="Path_273" data-name="Path 273" d="M99.383,321.625H96.832a1.471,1.471,0,1,0,0,2.943h2.551a1.471,1.471,0,1,0,0-2.943Zm0,0" transform="translate(-76.631 -258.749)" fill="#fff" stroke="#191a1e" stroke-width="1"/>
    <path id="Path_274" data-name="Path 274" d="M195.654,321.625h-4.905a1.471,1.471,0,0,0,0,2.943h4.905a1.471,1.471,0,0,0,0-2.943Zm0,0" transform="translate(-152.103 -258.749)" fill="#fff" stroke="#191a1e" stroke-width="1"/>
    <path id="Path_275" data-name="Path 275" d="M134.056,295.7a1.472,1.472,0,0,0-1.472-1.471H120.811a1.472,1.472,0,0,0,0,2.944h11.773A1.472,1.472,0,0,0,134.056,295.7Zm0,0" transform="translate(-95.901 -236.707)" fill="#fff" stroke="#191a1e" stroke-width="1"/>
    <path id="Path_276" data-name="Path 276" d="M138.864,321.625H131.8a1.471,1.471,0,1,0,0,2.943h7.064a1.471,1.471,0,1,0,0-2.943Zm0,0" transform="translate(-104.731 -258.749)" fill="#fff" stroke="#191a1e" stroke-width="1"/>
    <path id="Path_277" data-name="Path 277" d="M40.882,207.936H45a1.471,1.471,0,0,0,0-2.943H40.882a1.471,1.471,0,1,0,0,2.943Zm0,0" transform="translate(-31.67 -164.918)" fill="#fff" stroke="#191a1e" stroke-width="1"/>
    <path id="Path_278" data-name="Path 278" d="M99.427,206.463a1.471,1.471,0,0,0-1.471-1.471H82.846a1.471,1.471,0,1,0,0,2.943H97.955A1.471,1.471,0,0,0,99.427,206.463Zm0,0" transform="translate(-65.393 -164.917)" fill="#fff" stroke="#191a1e" stroke-width="1"/>
    <path id="Path_279" data-name="Path 279" d="M88.651,232.913a1.472,1.472,0,0,0-1.472-1.471H72.855a1.472,1.472,0,0,0,0,2.944H87.179A1.472,1.472,0,0,0,88.651,232.913Zm0,0" transform="translate(-57.363 -186.196)" fill="#fff" stroke="#191a1e" stroke-width="1"/>
    <path id="Path_280" data-name="Path 280" d="M166.769,234.385h2.747a1.472,1.472,0,1,0,0-2.944h-2.747a1.472,1.472,0,1,0,0,2.944Zm0,0" transform="translate(-132.832 -186.196)" fill="#fff" stroke="#191a1e" stroke-width="1"/>
    <path id="Path_281" data-name="Path 281" d="M298.457,289.652h-9.418a1.471,1.471,0,1,0,0,2.943h9.418a1.471,1.471,0,1,0,0-2.943Zm0,0" transform="translate(-231.088 -233.027)" fill="#fff" stroke="#191a1e" stroke-width="1"/>
    <path id="Path_282" data-name="Path 282" d="M382.612,289.652H363.971a1.471,1.471,0,0,0,0,2.943h18.641a1.471,1.471,0,1,0,0-2.943Zm0,0" transform="translate(-291.304 -233.027)" fill="#fff" stroke="#191a1e" stroke-width="1"/>
    <path id="Path_283" data-name="Path 283" d="M298.457,318.625h-9.418a1.472,1.472,0,1,0,0,2.944h9.418a1.472,1.472,0,1,0,0-2.944Zm0,0" transform="translate(-231.088 -256.336)" fill="#fff" stroke="#191a1e" stroke-width="1"/>
    <path id="Path_284" data-name="Path 284" d="M382.612,318.625H363.971a1.472,1.472,0,0,0,0,2.944h18.641a1.472,1.472,0,1,0,0-2.944Zm0,0" transform="translate(-291.304 -256.336)" fill="#fff" stroke="#191a1e" stroke-width="1"/>
    <path id="Path_285" data-name="Path 285" d="M323.728,120.612a3.807,3.807,0,0,0-3.8-3.8H291.139a3.808,3.808,0,0,0-3.8,3.8v23.419a3.808,3.808,0,0,0,3.8,3.8h28.786a3.807,3.807,0,0,0,3.8-3.8Zm-2.943,23.419a.86.86,0,0,1-.859.859H291.139a.86.86,0,0,1-.859-.859v-2.877l10.779-10.774,7.439,8.384a1.472,1.472,0,0,0,2.2-1.953l-.675-.76,3.327-3.325,7.433,8.378Zm0-7.363-5.664-6.383a2.33,2.33,0,0,0-3.39-.1l-3.663,3.66-5.24-5.9a2.331,2.331,0,0,0-3.39-.1l-9.158,9.154v-16.38a.86.86,0,0,1,.859-.86h28.786a.86.86,0,0,1,.859.86Zm0,0" transform="translate(-230.903 -94.016)" fill="#fff" stroke="#191a1e" stroke-width="1"/>
  </g>
</svg>
