<svg xmlns="http://www.w3.org/2000/svg" width="101" height="101" viewBox="0 0 101 101">
  <g id="fullstack" transform="translate(0.5 0)" style="isolation: isolate">
    <path id="Path_229" data-name="Path 229" d="M36.3,134.3a.882.882,0,0,0,1.247-1.247l-2.14-2.14,2.14-2.14a.882.882,0,1,0-1.247-1.247l-2.764,2.764a.881.881,0,0,0,0,1.247Zm0,0" transform="translate(-25.382 -99.863)" fill="#fff" stroke="#191a1e" stroke-width="1"/>
    <path id="Path_230" data-name="Path 230" d="M115.329,130.912l-2.14,2.14a.882.882,0,1,0,1.247,1.247l2.764-2.764a.881.881,0,0,0,0-1.246l-2.764-2.764a.881.881,0,0,0-1.246,1.247Zm0,0" transform="translate(-91.706 -99.86)" fill="#fff" stroke="#191a1e" stroke-width="1"/>
    <path id="Path_231" data-name="Path 231" d="M76.977,134.495a.881.881,0,0,0,1.143-.5l2.171-5.528a.881.881,0,1,0-1.64-.645l-2.172,5.528a.882.882,0,0,0,.5,1.143Zm0,0" transform="translate(-61.041 -99.858)" fill="#fff" stroke="#191a1e" stroke-width="1"/>
    <path id="Path_232" data-name="Path 232" d="M38.727,220.638h8.162a1.212,1.212,0,0,0,0-2.423H38.727a1.212,1.212,0,0,0,0,2.423Zm0,0" transform="translate(-31.45 -174.924)" fill="#fff" stroke="#191a1e" stroke-width="1"/>
    <path id="Path_233" data-name="Path 233" d="M131.073,218.215h-14.35a1.212,1.212,0,0,0,0,2.423h14.35a1.212,1.212,0,1,0,0-2.423Zm0,0" transform="translate(-91.964 -174.924)" fill="#fff" stroke="#191a1e" stroke-width="1"/>
    <path id="Path_234" data-name="Path 234" d="M38.727,252.244H42.2a1.212,1.212,0,0,0,0-2.423H38.727a1.212,1.212,0,0,0,0,2.423Zm0,0" transform="translate(-31.45 -200.318)" fill="#fff" stroke="#191a1e" stroke-width="1"/>
    <path id="Path_235" data-name="Path 235" d="M178.059,249.82a1.212,1.212,0,0,0,0,2.423h2.117a1.212,1.212,0,1,0,0-2.423Zm0,0" transform="translate(-141.962 -200.317)" fill="#fff" stroke="#191a1e" stroke-width="1"/>
    <path id="Path_236" data-name="Path 236" d="M98.135,251.032a1.212,1.212,0,0,0-1.211-1.211h-10.4a1.212,1.212,0,0,0,0,2.423h10.4A1.212,1.212,0,0,0,98.135,251.032Zm0,0" transform="translate(-68.124 -200.318)" fill="#fff" stroke="#191a1e" stroke-width="1"/>
    <path id="Path_237" data-name="Path 237" d="M213.7,251.032a1.212,1.212,0,0,0,1.211,1.212h3.966a1.212,1.212,0,1,0,0-2.423h-3.966A1.212,1.212,0,0,0,213.7,251.032Zm0,0" transform="translate(-171.363 -200.318)" fill="#fff" stroke="#191a1e" stroke-width="1"/>
    <path id="Path_238" data-name="Path 238" d="M166.611,151.7h4.183a1.212,1.212,0,1,0,0-2.423h-4.183a1.212,1.212,0,1,0,0,2.423Zm0,0" transform="translate(-132.612 -119.536)" fill="#fff" stroke="#191a1e" stroke-width="1"/>
    <path id="Path_239" data-name="Path 239" d="M221.458,151.7h25.524a1.212,1.212,0,0,0,0-2.423H221.458a1.212,1.212,0,1,0,0,2.423Zm0,0" transform="translate(-173.455 -119.536)" fill="#fff" stroke="#191a1e" stroke-width="1"/>
    <path id="Path_240" data-name="Path 240" d="M301.734,182.246H291.395a1.212,1.212,0,0,0,0,2.423h10.339a1.212,1.212,0,0,0,0-2.423Zm0,0" transform="translate(-231.729 -146.025)" fill="#fff" stroke="#191a1e" stroke-width="1"/>
    <path id="Path_241" data-name="Path 241" d="M248.992,182.246h-3.554a1.212,1.212,0,0,0,0,2.423h3.554a1.212,1.212,0,0,0,0-2.423Zm0,0" transform="translate(-195.887 -146.025)" fill="#fff" stroke="#191a1e" stroke-width="1"/>
    <path id="Path_242" data-name="Path 242" d="M166.611,184.669h8.707a1.212,1.212,0,0,0,0-2.423h-8.707a1.212,1.212,0,1,0,0,2.423Zm0,0" transform="translate(-132.231 -146.024)" fill="#fff" stroke="#191a1e" stroke-width="1"/>
    <path id="Path_243" data-name="Path 243" d="M108.62,281.16h-8.162a1.211,1.211,0,1,0,0,2.423h8.162a1.211,1.211,0,1,0,0-2.423Zm0,0" transform="translate(-79.373 -225.498)" fill="#fff" stroke="#191a1e" stroke-width="1"/>
    <path id="Path_244" data-name="Path 244" d="M45,281.16H38.727a1.211,1.211,0,0,0,0,2.423H45a1.211,1.211,0,0,0,0-2.423Zm0,0" transform="translate(-31.45 -225.498)" fill="#fff" stroke="#191a1e" stroke-width="1"/>
    <path id="Path_245" data-name="Path 245" d="M187.163,281.16H176.5a1.211,1.211,0,0,0,0,2.423h10.662a1.211,1.211,0,0,0,0-2.423Zm0,0" transform="translate(-139.947 -225.498)" fill="#fff" stroke="#191a1e" stroke-width="1"/>
    <path id="Path_246" data-name="Path 246" d="M301.389,242.668h-5.83a1.212,1.212,0,0,0,0,2.423h5.83a1.212,1.212,0,0,0,0-2.423Zm0,0" transform="translate(-235.762 -194.571)" fill="#fff" stroke="#191a1e" stroke-width="1"/>
    <path id="Path_247" data-name="Path 247" d="M394.188,245.091h8.23a1.212,1.212,0,1,0,0-2.423h-8.23a1.212,1.212,0,0,0,0,2.423Zm0,0" transform="translate(-312.222 -194.571)" fill="#fff" stroke="#191a1e" stroke-width="1"/>
    <path id="Path_248" data-name="Path 248" d="M358.954,242.668h-1.886a1.212,1.212,0,1,0,0,2.423h1.886a1.212,1.212,0,0,0,0-2.423Zm0,0" transform="translate(-285.696 -194.571)" fill="#fff" stroke="#191a1e" stroke-width="1"/>
    <path id="Path_249" data-name="Path 249" d="M295.559,326.751h5.83a1.211,1.211,0,0,0,0-2.423h-5.83a1.211,1.211,0,0,0,0,2.423Zm0,0" transform="translate(-235.762 -260.182)" fill="#fff" stroke="#191a1e" stroke-width="1"/>
    <path id="Path_250" data-name="Path 250" d="M394.188,326.751h8.23a1.211,1.211,0,1,0,0-2.423h-8.23a1.211,1.211,0,0,0,0,2.423Zm0,0" transform="translate(-312.222 -260.182)" fill="#fff" stroke="#191a1e" stroke-width="1"/>
    <path id="Path_251" data-name="Path 251" d="M357.071,326.751h1.886a1.211,1.211,0,1,0,0-2.423h-1.886a1.211,1.211,0,1,0,0,2.423Zm0,0" transform="translate(-285.699 -260.182)" fill="#fff" stroke="#191a1e" stroke-width="1"/>
    <path id="Path_252" data-name="Path 252" d="M301.389,405.988h-5.83a1.211,1.211,0,1,0,0,2.423h5.83a1.211,1.211,0,0,0,0-2.423Zm0,0" transform="translate(-235.762 -325.791)" fill="#fff" stroke="#191a1e" stroke-width="1"/>
    <path id="Path_253" data-name="Path 253" d="M402.418,405.988h-8.23a1.211,1.211,0,1,0,0,2.423h8.23a1.211,1.211,0,1,0,0-2.423Zm0,0" transform="translate(-312.221 -325.791)" fill="#fff" stroke="#191a1e" stroke-width="1"/>
    <path id="Path_254" data-name="Path 254" d="M358.954,405.988h-1.886a1.211,1.211,0,1,0,0,2.423h1.886a1.211,1.211,0,0,0,0-2.423Zm0,0" transform="translate(-285.696 -325.791)" fill="#fff" stroke="#191a1e" stroke-width="1"/>
    <path id="Path_255" data-name="Path 255" d="M93.559.5H6.441A6.452,6.452,0,0,0,0,6.948v70.89a6.452,6.452,0,0,0,6.442,6.448h5.508a1.465,1.465,0,0,0,0-2.93H6.441a3.52,3.52,0,0,1-3.514-3.518V72.281h53.32v2.525h-1.16a2.883,2.883,0,0,0-2.879,2.882v3.669H20.847a1.465,1.465,0,0,0,0,2.93H34.919v5.255H30.5a5.355,5.355,0,0,0-5.346,5.352v3.165a2.443,2.443,0,0,0,2.439,2.442H72.3a2.443,2.443,0,0,0,2.439-2.442V94.893a5.355,5.355,0,0,0-5.346-5.352H64.97V87.689H92.026A2.883,2.883,0,0,0,94.9,84.807v-.69a6.456,6.456,0,0,0,4.985-6.279L100,6.948A6.45,6.45,0,0,0,93.559.5ZM55.135,68.793V61.77H91.977v7.023Zm4.038-9.953V55.757H87.938v3.083ZM87.938,71.723v3.083H59.174V71.723ZM37.845,84.287H52.208v.522a2.883,2.883,0,0,0,2.879,2.881h6.957v1.852h-24.2Zm31.544,8.185a2.423,2.423,0,0,1,2.419,2.421V97.57H28.08V94.893A2.423,2.423,0,0,1,30.5,92.472Zm22.588-7.713H55.135V77.737H91.977Zm4.985-6.92a3.519,3.519,0,0,1-2.058,3.2V77.687a2.883,2.883,0,0,0-2.879-2.881h-1.16V72.281h6.1Zm0-8.488H94.856c.03-.166.048-7.63.048-7.63a2.883,2.883,0,0,0-2.879-2.882h-1.16V55.757h1.16A2.884,2.884,0,0,0,94.9,52.875V45.755a2.884,2.884,0,0,0-2.879-2.882H83.759a1.465,1.465,0,0,0,0,2.931h8.218v7.023H55.135V45.8H74.653a1.465,1.465,0,0,0,0-2.931H55.086a2.883,2.883,0,0,0-2.879,2.882v7.121a2.883,2.883,0,0,0,2.879,2.882h1.16v3.083h-1.16a2.883,2.883,0,0,0-2.879,2.882s.018,7.464.048,7.63H2.927V20.43H96.962Zm0-51.852H3.034V6.948A3.52,3.52,0,0,1,6.549,3.43h86.9a3.52,3.52,0,0,1,3.514,3.518Zm0,0" fill="#fff" stroke="#191a1e" stroke-width="1"/>
    <path id="Path_256" data-name="Path 256" d="M36.829,29.262a3.556,3.556,0,1,0,3.556,3.555A3.559,3.559,0,0,0,36.829,29.262Zm0,4.688a1.132,1.132,0,1,1,1.132-1.132A1.134,1.134,0,0,1,36.829,33.95Zm0,0" transform="translate(-27.894 -24.111)" fill="#fff" stroke="#191a1e" stroke-width="1"/>
    <path id="Path_257" data-name="Path 257" d="M92.814,29.262a3.556,3.556,0,1,0,3.555,3.555A3.56,3.56,0,0,0,92.814,29.262Zm0,4.688a1.132,1.132,0,1,1,1.132-1.132A1.133,1.133,0,0,1,92.814,33.95Zm0,0" transform="translate(-71.543 -24.111)" fill="#fff" stroke="#191a1e" stroke-width="1"/>
    <path id="Path_258" data-name="Path 258" d="M148.8,29.262a3.556,3.556,0,1,0,3.556,3.555A3.559,3.559,0,0,0,148.8,29.262Zm0,4.688a1.132,1.132,0,1,1,1.132-1.132A1.134,1.134,0,0,1,148.8,33.95Zm0,0" transform="translate(-116.419 -24.111)" fill="#fff" stroke="#191a1e" stroke-width="1"/>
  </g>
</svg>
