<svg xmlns="http://www.w3.org/2000/svg" width="101.108" height="101" viewBox="0 0 101.108 101">
  <g id="uiux" transform="translate(0.5 0.5)" style="isolation: isolate">
    <path id="Path_286" data-name="Path 286" d="M37.635,28.762A4.362,4.362,0,1,0,42,33.124,4.367,4.367,0,0,0,37.635,28.762Zm0,5.751a1.389,1.389,0,1,1,1.389-1.389A1.391,1.391,0,0,1,37.635,34.513Zm0,0" transform="translate(-26.674 -23.057)" fill="#fff" stroke="#191a1e" stroke-width="1"/>
    <path id="Path_287" data-name="Path 287" d="M93.62,28.762a4.362,4.362,0,1,0,4.362,4.362A4.368,4.368,0,0,0,93.62,28.762Zm0,5.751a1.389,1.389,0,1,1,1.389-1.389A1.391,1.391,0,0,1,93.62,34.513Zm0,0" transform="translate(-71.83 -23.057)" fill="#fff" stroke="#191a1e" stroke-width="1"/>
    <path id="Path_288" data-name="Path 288" d="M149.607,28.762a4.362,4.362,0,1,0,4.362,4.362A4.367,4.367,0,0,0,149.607,28.762Zm0,5.751A1.389,1.389,0,1,1,151,33.123,1.391,1.391,0,0,1,149.607,34.513Zm0,0" transform="translate(-116.886 -23.057)" fill="#fff" stroke="#191a1e" stroke-width="1"/>
    <path id="Path_289" data-name="Path 289" d="M34.9,124.774h3.953a1.487,1.487,0,1,0,0-2.973H34.9a1.487,1.487,0,0,0,0,2.973Zm0,0" transform="translate(-26.79 -97.997)" fill="#fff" stroke="#191a1e" stroke-width="1"/>
    <path id="Path_290" data-name="Path 290" d="M86.138,123.288a1.487,1.487,0,0,0-1.487-1.487h-4.5a1.487,1.487,0,1,0,0,2.973h4.5A1.487,1.487,0,0,0,86.138,123.288Zm0,0" transform="translate(-63.302 -97.997)" fill="#fff" stroke="#191a1e" stroke-width="1"/>
    <path id="Path_291" data-name="Path 291" d="M99.532,154.773H87.853a1.486,1.486,0,1,0,0,2.972H99.532a1.486,1.486,0,1,0,0-2.972Zm0,0" transform="translate(-69.522 -124.525)" fill="#fff" stroke="#191a1e" stroke-width="1"/>
    <path id="Path_292" data-name="Path 292" d="M40.626,154.773H34.9a1.486,1.486,0,1,0,0,2.972h5.722a1.486,1.486,0,1,0,0-2.972Zm0,0" transform="translate(-26.79 -124.525)" fill="#fff" stroke="#191a1e" stroke-width="1"/>
    <path id="Path_293" data-name="Path 293" d="M185.908,246.852h-.117a4.257,4.257,0,0,0-4.252,4.253v8.564a4.257,4.257,0,0,0,4.252,4.252h.117a4.257,4.257,0,0,0,4.253-4.252v-8.564A4.258,4.258,0,0,0,185.908,246.852Zm1.28,12.817a1.281,1.281,0,0,1-1.28,1.28h-.117a1.281,1.281,0,0,1-1.279-1.28v-8.564a1.281,1.281,0,0,1,1.279-1.28h.117a1.281,1.281,0,0,1,1.28,1.28Zm0,0" transform="translate(-146.092 -198.729)" fill="#fff" stroke="#191a1e" stroke-width="1"/>
    <path id="Path_294" data-name="Path 294" d="M451.217,211.535h.117a4.257,4.257,0,0,0,4.252-4.252v-8.564a4.257,4.257,0,0,0-4.252-4.253h-.117a4.257,4.257,0,0,0-4.252,4.253v8.564A4.257,4.257,0,0,0,451.217,211.535Zm-1.28-12.816a1.281,1.281,0,0,1,1.28-1.28h.117a1.281,1.281,0,0,1,1.28,1.28v8.564a1.281,1.281,0,0,1-1.28,1.28h-.117a1.281,1.281,0,0,1-1.28-1.28Zm0,0" transform="translate(-359.757 -156.555)" fill="#fff" stroke="#191a1e" stroke-width="1"/>
    <path id="Path_295" data-name="Path 295" d="M93.66,0H6.448A6.455,6.455,0,0,0,0,6.448v70.89a6.455,6.455,0,0,0,6.448,6.448H14.6a1.465,1.465,0,0,0,0-2.93H6.448A3.522,3.522,0,0,1,2.93,77.338V71.781H49.262v4.483a4.329,4.329,0,0,0,4.324,4.324h.066a1.389,1.389,0,0,1,.819.267H23.877a1.465,1.465,0,0,0,0,2.931H34.956V89.04H30.532a5.358,5.358,0,0,0-5.352,5.352v3.166A2.444,2.444,0,0,0,27.622,100h44.75a2.444,2.444,0,0,0,2.442-2.442V94.392a5.358,5.358,0,0,0-5.352-5.352H64.646V83.786h28.9A6.456,6.456,0,0,0,100,77.338V19.023a1.453,1.453,0,0,0,.112-.56V6.447A6.455,6.455,0,0,0,93.659,0ZM49.262,68.85H2.93V19.929H34.58V38.947a5.5,5.5,0,1,0,11,0V33.773a1.841,1.841,0,1,1,3.683,0ZM37.887,83.786h17.16v5.255H37.887ZM28.111,97.069V94.392a2.424,2.424,0,0,1,2.421-2.421H55.047v1.463a4.79,4.79,0,0,0,1.67,3.635Zm41.352-5.1a2.424,2.424,0,0,1,2.421,2.421v2.677H62.977a4.788,4.788,0,0,0,1.67-3.635V91.971Zm-7.747-9.989V93.434a1.87,1.87,0,1,1-3.739,0V81.982a4.329,4.329,0,0,0-4.324-4.324h-.067a1.4,1.4,0,0,1-1.394-1.394v-2.3H67.5v2.3a1.4,1.4,0,0,1-1.394,1.394h-.067A4.33,4.33,0,0,0,61.717,81.982ZM52.193,70.988V61.743H67.5v9.245Zm44.873,6.35a3.522,3.522,0,0,1-3.518,3.518H65.223a1.38,1.38,0,0,1,.818-.268h.066a4.329,4.329,0,0,0,4.324-4.324V71.781H97.066Zm0-8.488H70.432V52.995a1.465,1.465,0,0,0-2.931,0v5.772H52.192V33.773a4.772,4.772,0,1,0-9.543,0v5.174a2.57,2.57,0,1,1-5.139,0V19.929h43.9V43.8a2.331,2.331,0,0,1-4.662,0V41.04a4.622,4.622,0,0,0-9.243,0v3.1a1.465,1.465,0,1,0,2.931,0v-3.1a1.691,1.691,0,0,1,3.382,0V43.8a5.261,5.261,0,0,0,10.522,0V19.929h12.73Zm0-51.852H3.038V6.447A3.522,3.522,0,0,1,6.556,2.93H93.548a3.522,3.522,0,0,1,3.518,3.519Zm0,0" fill="#fff" stroke="#191a1e" stroke-width="1"/>
  </g>
</svg>
