<svg xmlns="http://www.w3.org/2000/svg" xmlns:xlink="http://www.w3.org/1999/xlink" width="657.209" height="472.953" viewBox="0 0 657.209 472.953">
  <defs>
    <clipPath id="clip-path">
      <path id="Path_87" data-name="Path 87" d="M200.775,232.2s-22.72-2.691-37.668,8.968-27.8,60.388-27.5,83.706,8.969,34.977,30.792,44.543,62.481,5.979,85.2-1.2,30.193-32.287,29.894-45.739-15.246-29-20.328-32.287-19.431-10.164-26.607-20.926S216.917,235.188,200.775,232.2Z" transform="translate(-135.598 -231.93)" fill="#5a3bb2" stroke="#263238" stroke-linecap="round" stroke-linejoin="round" stroke-width="1"/>
    </clipPath>
    <clipPath id="clip-path-2">
      <path id="Path_95" data-name="Path 95" d="M207.949,234.9s-8.14,2.617-9.3,4.651-.291,16.281-.291,18.025,1.018-1.018,1.89-3.053,3.925-5.087,4.943-4.8,1.6,1.454,1.6,3.343,2.326,4.507,4.361,5.961,3.925,2.907,3.925,2.907,4.215-6.105,5.233-7.7.872-4.943,1.018-6.105,2.761,3.2,3.343,2.035-1.308-2.18-3.343-5.379-1.454-6.541-4.507-8.867S210.275,234.319,207.949,234.9Z" transform="translate(-198.041 -234.316)" fill="#fff" stroke="#263238" stroke-linecap="round" stroke-linejoin="round" stroke-width="1"/>
    </clipPath>
    <clipPath id="clip-path-3">
      <path id="Path_100" data-name="Path 100" d="M183.522,301.41s-5.015-7.2-11.12-7.85-13.519,4.361-13.737,6.105-1.744,11.12-.654,12.429,5.233,2.4,13.3-.218S182.65,305.989,183.522,301.41Z" transform="translate(-157.622 -293.502)" fill="#fff" stroke="#263238" stroke-linecap="round" stroke-linejoin="round" stroke-width="1"/>
    </clipPath>
    <clipPath id="clip-path-4">
      <path id="Path_105" data-name="Path 105" d="M166.571,302.71s-8.183,3.248-8.5,9.594c-.178,3.511,5.669,5.015,11.774,5.015s14.827-7.632,20.5-10.9,18.752-10.9,20.278-11.556,6.759,1.09,8.94,1.744a29.492,29.492,0,0,0,6.323.654s3.053,4.8,4.579,4.8-3.271-7.2-3.925-8.722-11.338-5.015-12.647-5.015-31.835,7.632-36.414,9.376S166.571,302.71,166.571,302.71Z" transform="translate(-158.063 -288.319)" fill="#fff" stroke="#263238" stroke-linecap="round" stroke-linejoin="round" stroke-width="1"/>
    </clipPath>
    <clipPath id="clip-path-5">
      <path id="Path_111" data-name="Path 111" d="M229.9,292.069l-23.358,16.52,53.421-1.526,17.907-14.776Z" transform="translate(-206.537 -292.069)" fill="#fff" stroke="#263238" stroke-linecap="round" stroke-linejoin="round" stroke-width="1"/>
    </clipPath>
    <clipPath id="clip-path-6">
      <path id="Path_116" data-name="Path 116" d="M253.568,307s19.188-16.79,38.158-22.459,22.895-4.8,22.459,3.707-9.594,52.985-15.7,64.324-13.737,32.053-13.519,35.978,7.632,15.481,14.173,19.624,5.887,9.158,1.744,10.03-8.94,2.4-23.113-6.759-20.06-22.241-19.188-25.511,10.03-7.632,13.737-14.173,9.812-30.963,10.248-42.083a66.075,66.075,0,0,1,4.361-20.5s-23.985,4.361-30.963,8.722Z" transform="translate(-253.568 -280.941)" fill="#fff" stroke="#263238" stroke-linecap="round" stroke-linejoin="round" stroke-width="1"/>
    </clipPath>
    <clipPath id="clip-path-7">
      <path id="Path_129" data-name="Path 129" d="M186.643,312.433s-6.977,3.925-9.376,8.286,7.922,11.63,18.824,11.194,30.89-12.284,30.89-12.284.218,19.188,3.925,26.166,20.714,23.985,27.474,28.346,29.436,20.714,32.925,23.331,10.03,7.414,11.556,7.632,17.444-19.188,21.15-25.729,6.977-20.278,5.669-23.331-3.925-.436-6.541,1.744-26.6,18.1-28.782,19.188a23.931,23.931,0,0,1-3.707,1.526s-19.624-18.752-30.09-33.143-11.338-32.925-15.263-39.9-9.594-10.03-18.1-9.158S201.034,301.749,186.643,312.433Z" transform="translate(-176.917 -296.152)" fill="#fff" stroke="#263238" stroke-linecap="round" stroke-linejoin="round" stroke-width="1"/>
    </clipPath>
    <clipPath id="clip-path-8">
      <path id="Path_140" data-name="Path 140" d="M341.922,387.947c3.707-6.541,6.977-20.278,5.669-23.331-.758-1.768-1.956-1.629-3.338-.779.918,4.079-.009,11.938-4.512,20.4-4.018,7.554-16.438,20.9-22.7,27.4a14.615,14.615,0,0,0,3.726,2.031C322.3,413.894,338.216,394.488,341.922,387.947Z" transform="translate(-317.046 -363.23)" fill="#fff" stroke="#263238" stroke-linecap="round" stroke-linejoin="round" stroke-width="1"/>
    </clipPath>
    <clipPath id="clip-path-9">
      <path id="Path_147" data-name="Path 147" d="M299.862,423.206a28.744,28.744,0,0,1-5.811-5.228,118.327,118.327,0,0,1-15.775-7.637c-5.669-3.489-4.361-5.669-7.632-8.94-2.509-2.509-7.448-2.835-9.615-2.852a5.956,5.956,0,0,0-1.723,2.416c-.872,3.271,5.015,16.353,19.188,25.511s18.97,7.632,23.113,6.759S306.4,427.349,299.862,423.206Z" transform="translate(-259.222 -398.549)" fill="#fff" stroke="#263238" stroke-linecap="round" stroke-linejoin="round" stroke-width="1"/>
    </clipPath>
    <clipPath id="clip-path-10">
      <path id="Path_151" data-name="Path 151" d="M300.953,424.988c-5.669-3.271-17.226-5.451-24.639-10.466s-5.451-9.376-10.9-12.865a5.556,5.556,0,0,0-6.121-.35c-.757,3.4,5.145,16.341,19.2,25.425,14.173,9.158,18.97,7.632,23.113,6.759,2.754-.579,3.95-2.992,2.533-5.759A11.988,11.988,0,0,0,300.953,424.988Z" transform="translate(-259.226 -400.553)" fill="#fff" stroke="#263238" stroke-linecap="round" stroke-linejoin="round" stroke-width="1"/>
    </clipPath>
    <clipPath id="clip-path-11">
      <path id="Path_162" data-name="Path 162" d="M206.721,221.984s1.016,11.016,1.443,14.49,1.4,13.474,2.406,16.781,6.466,9.056,7,7.726,3.231-10.31,2.148-15.65-1.411-9.982-.737-11.318,3.088-2.885,3.088-2.885a85.9,85.9,0,0,1-8.189-4.77C209.991,223.747,207.257,220.8,206.721,221.984Z" transform="translate(-206.721 -221.715)" fill="#fff" stroke="#263238" stroke-linecap="round" stroke-linejoin="round" stroke-width="1"/>
    </clipPath>
    <clipPath id="clip-path-12">
      <path id="Path_167" data-name="Path 167" d="M205.554,219.9s6.281,5.258,11.1,7.155,12.219,1.8,13.259-.712-1.827-22.325-4.31-27.543-5.144-5.3-9.525-5.7-13.162,3.175-14.7,7.412.214,10.241,1.492,13.8A26.261,26.261,0,0,0,205.554,219.9Z" transform="translate(-200.773 -193.067)" fill="#fff" stroke="#263238" stroke-linecap="round" stroke-linejoin="round" stroke-width="1"/>
    </clipPath>
    <clipPath id="clip-path-13">
      <path id="Path_184" data-name="Path 184" d="M207.357,217.453s-2.818-4.065-5.79-2.429-.657,7.428,1.131,9.446,5.247-1.725,5.589-2.687" transform="translate(-200.14 -214.636)" fill="#fff" stroke="#263238" stroke-linecap="round" stroke-linejoin="round" stroke-width="1"/>
    </clipPath>
  </defs>
  <g id="blog_writing_illustration" data-name="blog writing illustration" transform="translate(68.764 -15.632)">
    <g id="Background_Simple" data-name="Background Simple" transform="translate(-37.691 37.994)">
      <g id="Group_18" data-name="Group 18">
        <path id="Path_80" data-name="Path 80" d="M659.541,436.217C672.426,346.595,610,227.478,545.281,178.29c-116.842-88.8-213.91-71.627-289.407-39.819S169.591,276.465,117.463,324.509,35.68,437.176,114.772,501.5s142.9,31.642,225.587,27.566,192.339,28.044,251.659.112C633.44,509.679,653.847,475.83,659.541,436.217Z" transform="translate(-66.182 -112.745)" fill="#0f4c81"/>
        <path id="Path_81" data-name="Path 81" d="M721.511,470c14.23-98.982-54.714-230.539-126.193-284.864-129.045-98.073-236.25-79.108-319.632-43.978S180.391,293.564,122.819,346.626s-90.324,124.433-2.971,195.48,157.823,34.946,249.146,30.445,212.426,30.972,277.942.123C692.684,551.134,715.221,513.75,721.511,470Z" transform="translate(-97.255 -135.106)" fill="#7a52e9"/>
      </g>
    </g>
    <g id="Background" transform="translate(60.067 66.975)">
      <g id="Group_20" data-name="Group 20">
        <g id="Group_19" data-name="Group 19" transform="translate(0 30.344)">
          <line id="Line_7" data-name="Line 7" y1="196.189" transform="translate(173.639)" fill="none" stroke="#263238" stroke-linecap="round" stroke-linejoin="round" stroke-width="1"/>
          <path id="Path_82" data-name="Path 82" d="M74.393,333.177H242.9l256,60.688" transform="translate(-74.393 -91.645)" fill="none" stroke="#263238" stroke-linecap="round" stroke-linejoin="round" stroke-width="1"/>
        </g>
        <path id="Path_83" data-name="Path 83" d="M134.781,303.16h-8.573V161.81h17.643l-7.616-27.483H113.389l-7.616,27.483h17.643V303.16h-8.573a8.369,8.369,0,0,0-8.365,8.214c0,.021-.008.042-.008.063s0,.018,0,.028,0,.045,0,.068h.012c.256,1.972,8.354,3.554,18.312,3.554s18.057-1.582,18.313-3.554h.045A8.373,8.373,0,0,0,134.781,303.16Z" transform="translate(-100.208 -24.98)" fill="#101114"/>
        <path id="Path_84" data-name="Path 84" d="M269.589,91.837V258.272l125.3,20.615V71.222Zm122.056,47.656L327.933,143.1V85.282l63.712-10.138Zm-63.712,9.694,63.712-2.921v58.141l-63.712-2.979Zm-5.17,52L271.694,198.8V151.767l51.068-2.342Zm0-115.083v57.29l-51.068,2.892V94.23ZM271.694,204.279l51.068,2.938V264l-51.068-8.126Zm56.238,60.549V207.515l63.712,3.666v63.785Z" transform="translate(13.392 -71.222)" fill="#101114" stroke="#263238" stroke-linecap="round" stroke-linejoin="round" stroke-width="1"/>
      </g>
    </g>
    <g id="Character" transform="translate(74.393 202.389)">
      <g id="Group_64" data-name="Group 64">
        <g id="Group_62" data-name="Group 62" transform="translate(12.448)">
          <g id="Group_21" data-name="Group 21" transform="translate(0 154.907)">
            <ellipse id="Ellipse_6" data-name="Ellipse 6" cx="100.255" cy="31.237" rx="100.255" ry="31.237" fill="#0f4c81"/>
            <ellipse id="Ellipse_7" data-name="Ellipse 7" cx="100.255" cy="31.237" rx="100.255" ry="31.237" fill="#5a3bb2"/>
          </g>
          <g id="Group_23" data-name="Group 23" transform="translate(26.608 48.157)">
            <path id="Path_85" data-name="Path 85" d="M200.775,232.2s-22.72-2.691-37.668,8.968-27.8,60.388-27.5,83.706,8.969,34.977,30.792,44.543,62.481,5.979,85.2-1.2,30.193-32.287,29.894-45.739-15.246-29-20.328-32.287-19.431-10.164-26.607-20.926S216.917,235.188,200.775,232.2Z" transform="translate(-135.598 -231.93)" fill="#5a3bb2"/>
            <g id="Group_22" data-name="Group 22" clip-path="url(#clip-path)">
              <path id="Path_86" data-name="Path 86" d="M255.762,367.957c-8.59-1.16-18.778-3.492-26.49-8.174-16.281-9.884-20.351-28.492-26.166-35.469s-16.281-6.4-20.932-13.955,2.907-63.378-10.466-66.867a30.6,30.6,0,0,0-8.344-1.191c-.085.065-.173.125-.257.19-14.947,11.659-27.8,60.388-27.5,83.706s8.969,34.977,30.792,44.543,62.481,5.979,85.2-1.2A38.51,38.51,0,0,0,255.762,367.957Z" transform="translate(-135.598 -233.255)" opacity="0.13"/>
            </g>
            <path id="Path_88" data-name="Path 88" d="M200.775,232.2s-22.72-2.691-37.668,8.968-27.8,60.388-27.5,83.706,8.969,34.977,30.792,44.543,62.481,5.979,85.2-1.2,30.193-32.287,29.894-45.739-15.246-29-20.328-32.287-19.431-10.164-26.607-20.926S216.917,235.188,200.775,232.2Z" transform="translate(-135.598 -231.93)" fill="none" stroke="#263238" stroke-linecap="round" stroke-linejoin="round" stroke-width="1"/>
          </g>
          <g id="Group_29" data-name="Group 29" transform="translate(45.817 50.238)">
            <g id="Group_24" data-name="Group 24" transform="translate(6.058 7.009)">
              <path id="Path_89" data-name="Path 89" d="M195.531,244.068s-14.827,2.835-17.444,5.451-13.519,43.609-13.519,43.609a16.221,16.221,0,0,1,9.158.436c4.361,1.744,4.8,6.323,5.233,8.5a78.027,78.027,0,0,1,.654,7.85s44.075-3.937,53.451-6.118,23.645-3.183,23.645-3.183-24.111-54.369-27.817-56.332-19.188-2.18-21.369-1.744S195.531,244.068,195.531,244.068Z" transform="translate(-164.568 -242.353)" fill="#101114" stroke="#263238" stroke-linecap="round" stroke-linejoin="round" stroke-width="1"/>
              <line id="Line_8" data-name="Line 8" y1="30.308" x2="3.707" transform="translate(16.354 21.776)" fill="none" stroke="#fff" stroke-linecap="round" stroke-linejoin="round" stroke-width="1"/>
              <line id="Line_9" data-name="Line 9" y1="6.541" x2="5.015" transform="translate(19.188 23.302)" fill="none" stroke="#fff" stroke-linecap="round" stroke-linejoin="round" stroke-width="1"/>
              <path id="Path_90" data-name="Path 90" d="M203.818,280.4s14.173-4.579,23.549-4.579" transform="translate(-169.585 -246.63)" fill="none" stroke="#fff" stroke-linecap="round" stroke-linejoin="round" stroke-width="1"/>
              <path id="Path_91" data-name="Path 91" d="M219.017,266.736,218.068,274s2.4,0,2.617,1.09a2.894,2.894,0,0,1-.872,2.18s6.759,3.707,7.632,8.068" transform="translate(-171.406 -245.469)" fill="none" stroke="#fff" stroke-linecap="round" stroke-linejoin="round" stroke-width="1"/>
            </g>
            <g id="Group_26" data-name="Group 26" transform="translate(35.253)">
              <path id="Path_92" data-name="Path 92" d="M207.949,234.9s-8.14,2.617-9.3,4.651-.291,16.281-.291,18.025,1.018-1.018,1.89-3.053,3.925-5.087,4.943-4.8,1.6,1.454,1.6,3.343,2.326,4.507,4.361,5.961,3.925,2.907,3.925,2.907,4.215-6.105,5.233-7.7.872-4.943,1.018-6.105,2.761,3.2,3.343,2.035-1.308-2.18-3.343-5.379-1.454-6.541-4.507-8.867S210.275,234.319,207.949,234.9Z" transform="translate(-198.041 -234.316)" fill="#fff"/>
              <g id="Group_25" data-name="Group 25" clip-path="url(#clip-path-2)">
                <path id="Path_93" data-name="Path 93" d="M198.646,239.633c-.776,1.358-.646,8.151-.474,13.04,1.853-2.392,5.681-6.9,7.9-6.05,2.822,1.086,3.908,9.121,3.908,9.121l-1.907-20.793-.125.031S199.809,237.6,198.646,239.633Z" transform="translate(-198.041 -234.397)" fill="#0f4c81"/>
                <path id="Path_94" data-name="Path 94" d="M198.646,239.633c-.776,1.358-.646,8.151-.474,13.04,1.853-2.392,5.681-6.9,7.9-6.05,2.822,1.086,3.908,9.121,3.908,9.121l-1.907-20.793-.125.031S199.809,237.6,198.646,239.633Z" transform="translate(-198.041 -234.397)" fill="#fff" opacity="0.5"/>
              </g>
              <path id="Path_96" data-name="Path 96" d="M207.949,234.9s-8.14,2.617-9.3,4.651-.291,16.281-.291,18.025,1.018-1.018,1.89-3.053,3.925-5.087,4.943-4.8,1.6,1.454,1.6,3.343,2.326,4.507,4.361,5.961,3.925,2.907,3.925,2.907,4.215-6.105,5.233-7.7.872-4.943,1.018-6.105,2.761,3.2,3.343,2.035-1.308-2.18-3.343-5.379-1.454-6.541-4.507-8.867S210.275,234.319,207.949,234.9Z" transform="translate(-198.041 -234.316)" fill="none" stroke="#263238" stroke-linecap="round" stroke-linejoin="round" stroke-width="1"/>
            </g>
            <g id="Group_28" data-name="Group 28" transform="translate(0 51.621)">
              <path id="Path_97" data-name="Path 97" d="M183.522,301.41s-5.015-7.2-11.12-7.85-13.519,4.361-13.737,6.105-1.744,11.12-.654,12.429,5.233,2.4,13.3-.218S182.65,305.989,183.522,301.41Z" transform="translate(-157.622 -293.502)" fill="#fff"/>
              <g id="Group_27" data-name="Group 27" clip-path="url(#clip-path-3)">
                <path id="Path_98" data-name="Path 98" d="M163.119,311.91s-1.737-4.995-.869-6.732,4.343-4.344,6.515-6.949-5.086,1.474-5.429,0c-.276-1.187,3.824-3.554,5.438-4.435-5.076.971-9.933,4.5-10.109,5.909-.218,1.744-1.744,11.12-.654,12.429.563.676,1.947,1.288,4.257,1.368C162.794,312.582,163.119,311.91,163.119,311.91Z" transform="translate(-157.622 -293.539)" fill="#0f4c81"/>
                <path id="Path_99" data-name="Path 99" d="M163.119,311.91s-1.737-4.995-.869-6.732,4.343-4.344,6.515-6.949-5.086,1.474-5.429,0c-.276-1.187,3.824-3.554,5.438-4.435-5.076.971-9.933,4.5-10.109,5.909-.218,1.744-1.744,11.12-.654,12.429.563.676,1.947,1.288,4.257,1.368C162.794,312.582,163.119,311.91,163.119,311.91Z" transform="translate(-157.622 -293.539)" fill="#fff" opacity="0.5"/>
              </g>
              <path id="Path_101" data-name="Path 101" d="M183.522,301.41s-5.015-7.2-11.12-7.85-13.519,4.361-13.737,6.105-1.744,11.12-.654,12.429,5.233,2.4,13.3-.218S182.65,305.989,183.522,301.41Z" transform="translate(-157.622 -293.502)" fill="none" stroke="#263238" stroke-linecap="round" stroke-linejoin="round" stroke-width="1"/>
            </g>
          </g>
          <g id="Group_31" data-name="Group 31" transform="translate(46.202 97.338)">
            <path id="Path_102" data-name="Path 102" d="M166.571,302.71s-8.183,3.248-8.5,9.594c-.178,3.511,5.669,5.015,11.774,5.015s14.827-7.632,20.5-10.9,18.752-10.9,20.278-11.556,6.759,1.09,8.94,1.744a29.492,29.492,0,0,0,6.323.654s3.053,4.8,4.579,4.8-3.271-7.2-3.925-8.722-11.338-5.015-12.647-5.015-31.835,7.632-36.414,9.376S166.571,302.71,166.571,302.71Z" transform="translate(-158.063 -288.319)" fill="#fff"/>
            <g id="Group_30" data-name="Group 30" clip-path="url(#clip-path-4)">
              <path id="Path_103" data-name="Path 103" d="M183.672,301.8c12.469-6.234,30.215-13.483,30.215-13.483-1.308,0-31.835,7.632-36.414,9.376s-10.9,5.015-10.9,5.015-8.183,3.248-8.5,9.594c-.178,3.511,5.669,5.015,11.774,5.015s14.827-7.632,20.5-10.9c.962-.555,2.14-1.237,3.436-1.987C185.444,305.5,174.314,306.481,183.672,301.8Z" transform="translate(-158.063 -288.319)" fill="#0f4c81"/>
              <path id="Path_104" data-name="Path 104" d="M183.672,301.8c12.469-6.234,30.215-13.483,30.215-13.483-1.308,0-31.835,7.632-36.414,9.376s-10.9,5.015-10.9,5.015-8.183,3.248-8.5,9.594c-.178,3.511,5.669,5.015,11.774,5.015s14.827-7.632,20.5-10.9c.962-.555,2.14-1.237,3.436-1.987C185.444,305.5,174.314,306.481,183.672,301.8Z" transform="translate(-158.063 -288.319)" fill="#fff" opacity="0.5"/>
            </g>
            <path id="Path_106" data-name="Path 106" d="M166.571,302.71s-8.183,3.248-8.5,9.594c-.178,3.511,5.669,5.015,11.774,5.015s14.827-7.632,20.5-10.9,18.752-10.9,20.278-11.556,6.759,1.09,8.94,1.744a29.492,29.492,0,0,0,6.323.654s3.053,4.8,4.579,4.8-3.271-7.2-3.925-8.722-11.338-5.015-12.647-5.015-31.835,7.632-36.414,9.376S166.571,302.71,166.571,302.71Z" transform="translate(-158.063 -288.319)" fill="none" stroke="#263238" stroke-linecap="round" stroke-linejoin="round" stroke-width="1"/>
          </g>
          <g id="Group_34" data-name="Group 34" transform="translate(88.48 61.417)">
            <path id="Path_107" data-name="Path 107" d="M239.962,248.951l-6.644,37.375,47.97.218,7.135-35.441a2.2,2.2,0,0,0-2.092-2.635L242.2,247.135A2.2,2.2,0,0,0,239.962,248.951Z" transform="translate(-209.96 -247.134)" fill="#fff" stroke="#263238" stroke-linecap="round" stroke-linejoin="round" stroke-width="1"/>
            <g id="Group_33" data-name="Group 33" transform="translate(0 39.192)">
              <path id="Path_108" data-name="Path 108" d="M229.9,292.069l-23.358,16.52,53.421-1.526,17.907-14.776Z" transform="translate(-206.537 -292.069)" fill="#fff"/>
              <g id="Group_32" data-name="Group 32" clip-path="url(#clip-path-5)">
                <path id="Path_109" data-name="Path 109" d="M229.9,292.069l-23.358,16.52,53.421-1.526,17.907-14.776Z" transform="translate(-206.537 -292.069)" fill="#0f4c81"/>
                <path id="Path_110" data-name="Path 110" d="M229.9,292.069l-23.358,16.52,53.421-1.526,17.907-14.776Z" transform="translate(-206.537 -292.069)" fill="#fff" opacity="0.5"/>
              </g>
              <path id="Path_112" data-name="Path 112" d="M229.9,292.069l-23.358,16.52,53.421-1.526,17.907-14.776Z" transform="translate(-206.537 -292.069)" fill="none" stroke="#263238" stroke-linecap="round" stroke-linejoin="round" stroke-width="1"/>
            </g>
          </g>
          <g id="Group_36" data-name="Group 36" transform="translate(129.5 90.903)">
            <path id="Path_113" data-name="Path 113" d="M253.568,307s19.188-16.79,38.158-22.459,22.895-4.8,22.459,3.707-9.594,52.985-15.7,64.324-13.737,32.053-13.519,35.978,7.632,15.481,14.173,19.624,5.887,9.158,1.744,10.03-8.94,2.4-23.113-6.759-20.06-22.241-19.188-25.511,10.03-7.632,13.737-14.173,9.812-30.963,10.248-42.083a66.075,66.075,0,0,1,4.361-20.5s-23.985,4.361-30.963,8.722Z" transform="translate(-253.568 -280.941)" fill="#fff"/>
            <g id="Group_35" data-name="Group 35" clip-path="url(#clip-path-6)">
              <path id="Path_114" data-name="Path 114" d="M253.568,307s19.188-16.79,38.158-22.459,22.895-4.8,22.459,3.707-9.594,52.985-15.7,64.324-13.737,32.053-13.519,35.978,7.632,15.481,14.173,19.624,5.887,9.158,1.744,10.03-8.94,2.4-23.113-6.759-20.06-22.241-19.188-25.511,10.03-7.632,13.737-14.173,9.812-30.963,10.248-42.083a66.075,66.075,0,0,1,4.361-20.5s-23.985,4.361-30.963,8.722Z" transform="translate(-253.568 -280.941)" fill="#0f4c81"/>
              <path id="Path_115" data-name="Path 115" d="M253.568,307s19.188-16.79,38.158-22.459,22.895-4.8,22.459,3.707-9.594,52.985-15.7,64.324-13.737,32.053-13.519,35.978,7.632,15.481,14.173,19.624,5.887,9.158,1.744,10.03-8.94,2.4-23.113-6.759-20.06-22.241-19.188-25.511,10.03-7.632,13.737-14.173,9.812-30.963,10.248-42.083a66.075,66.075,0,0,1,4.361-20.5s-23.985,4.361-30.963,8.722Z" transform="translate(-253.568 -280.941)" fill="#fff" opacity="0.5"/>
            </g>
            <path id="Path_117" data-name="Path 117" d="M253.568,307s19.188-16.79,38.158-22.459,22.895-4.8,22.459,3.707-9.594,52.985-15.7,64.324-13.737,32.053-13.519,35.978,7.632,15.481,14.173,19.624,5.887,9.158,1.744,10.03-8.94,2.4-23.113-6.759-20.06-22.241-19.188-25.511,10.03-7.632,13.737-14.173,9.812-30.963,10.248-42.083a66.075,66.075,0,0,1,4.361-20.5s-23.985,4.361-30.963,8.722Z" transform="translate(-253.568 -280.941)" fill="none" stroke="#263238" stroke-linecap="round" stroke-linejoin="round" stroke-width="1"/>
          </g>
          <path id="Path_118" data-name="Path 118" d="M272.32,371.76a16.446,16.446,0,0,1-.926,1.43,22.408,22.408,0,0,1,12.265,5.111,39.893,39.893,0,0,1,2.982,2.883,191.552,191.552,0,0,1,11.845-28.613c6.105-11.338,15.263-55.82,15.7-64.324s-3.489-9.376-22.459-3.707S253.568,307,253.568,307l2.4,10.9c6.977-4.361,30.963-8.722,30.963-8.722a66.075,66.075,0,0,0-4.361,20.5C282.132,340.8,276.027,365.218,272.32,371.76Z" transform="translate(-124.068 -190.038)" fill="#fff" stroke="#263238" stroke-linecap="round" stroke-linejoin="round" stroke-width="1"/>
          <g id="Group_38" data-name="Group 38" transform="translate(129.5 90.903)">
            <path id="Path_119" data-name="Path 119" d="M272.32,371.76a16.446,16.446,0,0,1-.926,1.43,22.408,22.408,0,0,1,12.265,5.111,39.893,39.893,0,0,1,2.982,2.883c4.18-5.61,8.879-23.33,14.183-30.619,13.706-18.831,12.925-53.814,13.361-62.318s-3.489-9.376-22.459-3.707S253.568,307,253.568,307l2.4,10.9c6.977-4.361,30.963-8.722,30.963-8.722a66.075,66.075,0,0,0-4.361,20.5C282.132,340.8,276.027,365.218,272.32,371.76Z" transform="translate(-253.568 -280.941)" fill="#263238"/>
            <g id="Group_69" data-name="Group 69">
              <path id="Path_120" data-name="Path 120" d="M272.32,371.76a16.446,16.446,0,0,1-.926,1.43,22.408,22.408,0,0,1,12.265,5.111,39.893,39.893,0,0,1,2.982,2.883c4.18-5.61,8.879-23.33,14.183-30.619,13.706-18.831,12.925-53.814,13.361-62.318s-3.489-9.376-22.459-3.707S253.568,307,253.568,307l2.4,10.9c6.977-4.361,30.963-8.722,30.963-8.722a66.075,66.075,0,0,0-4.361,20.5C282.132,340.8,276.027,365.218,272.32,371.76Z" transform="translate(-253.568 -280.941)" fill="#101114" opacity="0.53"/>
              <path id="Path_121" data-name="Path 121" d="M304.968,287.936c-.344-3.1-34.07,11.177-48.293,17.341-1.974,1.573-3.107,2.562-3.107,2.562l2.4,10.9c6.977-4.361,30.963-8.722,30.963-8.722a66.075,66.075,0,0,0-4.361,20.5c-.436,11.12-6.541,35.542-10.248,42.083a16.3,16.3,0,0,1-.926,1.43,24.85,24.85,0,0,1,6.956,1.8c5.282-11.167,10.879-24.114,13.535-34.256C296.682,323.26,305.4,291.861,304.968,287.936Z" transform="translate(-253.568 -283.524)" opacity="0.14"/>
              <path id="Path_122" data-name="Path 122" d="M291.818,310.571s6.541-13.3,12.211-18.752" transform="translate(-258.457 -282.331)" fill="none" stroke="#263238" stroke-linecap="round" stroke-linejoin="round" stroke-width="1"/>
            </g>
            <path id="Path_124" data-name="Path 124" d="M272.32,371.76a16.446,16.446,0,0,1-.926,1.43,22.408,22.408,0,0,1,12.265,5.111,39.893,39.893,0,0,1,2.982,2.883c4.18-5.61,8.879-23.33,14.183-30.619,13.706-18.831,12.925-53.814,13.361-62.318s-3.489-9.376-22.459-3.707S253.568,307,253.568,307l2.4,10.9c6.977-4.361,30.963-8.722,30.963-8.722a66.075,66.075,0,0,0-4.361,20.5C282.132,340.8,276.027,365.218,272.32,371.76Z" transform="translate(-253.568 -280.941)" fill="none" stroke="#263238" stroke-linecap="round" stroke-linejoin="round" stroke-width="1"/>
          </g>
          <path id="Path_125" data-name="Path 125" d="M220.6,329.267a75,75,0,0,0,20.628-3.886c9.865-3.587-8.072-10.164-14.947-6.576A10.217,10.217,0,0,0,220.6,329.267Z" transform="translate(-119.844 -194.745)" fill="#263238" stroke="#263238" stroke-linecap="round" stroke-linejoin="round" stroke-width="1"/>
          <g id="Group_40" data-name="Group 40" transform="translate(62.645 104.17)">
            <path id="Path_126" data-name="Path 126" d="M186.643,312.433s-6.977,3.925-9.376,8.286,7.922,11.63,18.824,11.194,30.89-12.284,30.89-12.284.218,19.188,3.925,26.166,20.714,23.985,27.474,28.346,29.436,20.714,32.925,23.331,10.03,7.414,11.556,7.632,17.444-19.188,21.15-25.729,6.977-20.278,5.669-23.331-3.925-.436-6.541,1.744-26.6,18.1-28.782,19.188a23.931,23.931,0,0,1-3.707,1.526s-19.624-18.752-30.09-33.143-11.338-32.925-15.263-39.9-9.594-10.03-18.1-9.158S201.034,301.749,186.643,312.433Z" transform="translate(-176.917 -296.152)" fill="#fff"/>
            <g id="Group_39" data-name="Group 39" clip-path="url(#clip-path-7)">
              <path id="Path_127" data-name="Path 127" d="M293.853,401.262c5.823,4.173,10.894,7.854,12.4,8.982,3.489,2.617,10.03,7.414,11.556,7.632.542.078,2.9-2.319,5.871-5.729l-24.971-16.063Z" transform="translate(-191.863 -308.925)" fill="#0f4c81"/>
              <path id="Path_128" data-name="Path 128" d="M293.853,401.262c5.823,4.173,10.894,7.854,12.4,8.982,3.489,2.617,10.03,7.414,11.556,7.632.542.078,2.9-2.319,5.871-5.729l-24.971-16.063Z" transform="translate(-191.863 -308.925)" fill="#fff" opacity="0.5"/>
            </g>
            <path id="Path_130" data-name="Path 130" d="M186.643,312.433s-6.977,3.925-9.376,8.286,7.922,11.63,18.824,11.194,30.89-12.284,30.89-12.284.218,19.188,3.925,26.166,20.714,23.985,27.474,28.346,29.436,20.714,32.925,23.331,10.03,7.414,11.556,7.632,17.444-19.188,21.15-25.729,6.977-20.278,5.669-23.331-3.925-.436-6.541,1.744-26.6,18.1-28.782,19.188a23.931,23.931,0,0,1-3.707,1.526s-19.624-18.752-30.09-33.143-11.338-32.925-15.263-39.9-9.594-10.03-18.1-9.158S201.034,301.749,186.643,312.433Z" transform="translate(-176.917 -296.152)" fill="none" stroke="#263238" stroke-linecap="round" stroke-linejoin="round" stroke-width="1"/>
          </g>
          <g id="Group_42" data-name="Group 42" transform="translate(59.913 103.999)">
            <path id="Path_131" data-name="Path 131" d="M288.9,377.165c-4.611-4.5-21.909-27.707-28.736-41.049-10-19.553-11.081-26.217-15.006-33.194S235.3,295.4,226.8,296.273a100.676,100.676,0,0,0-42.387,13.039s-7.836,4.26-10.234,8.621,6.333,15.342,21.513,13.955c10.866-.993,30.89-12.284,30.89-12.284s.218,19.188,3.925,26.166,20.714,23.985,27.474,28.346c4.287,2.766,14.971,10.352,23.107,16.2C283.128,383.014,286.732,379.013,288.9,377.165Z" transform="translate(-173.784 -295.956)" fill="#161c1f"/>
            <g id="Group_68" data-name="Group 68" transform="translate(1.115 3.572)">
              <path id="Path_133" data-name="Path 133" d="M245.091,346.8c-6.541-16.572-2.617-49.715-20.932-45.354-13.347,3.178-37.806,14.459-50.1,20.347,1.451,5,9.476,11.863,21.664,10.749,10.866-.993,30.89-12.284,30.89-12.284s.218,19.188,3.925,26.166,20.714,23.985,27.474,28.346c4.287,2.766,14.971,10.352,23.107,16.2a30.92,30.92,0,0,1,3.046-7.307C267.927,371.665,248.742,356.047,245.091,346.8Z" transform="translate(-174.062 -301.051)" opacity="0.14"/>
              <line id="Line_10" data-name="Line 10" x1="0.654" y1="11.338" transform="translate(51.028 8.738)" fill="none" stroke="#263238" stroke-linecap="round" stroke-linejoin="round" stroke-width="1"/>
            </g>
            <path id="Path_135" data-name="Path 135" d="M288.9,377.165c-4.611-4.5-21.909-27.707-28.736-41.049-10-19.553-11.081-26.217-15.006-33.194S235.3,295.4,226.8,296.273a100.676,100.676,0,0,0-42.387,13.039s-7.836,4.26-10.234,8.621,6.333,15.342,21.513,13.955c10.866-.993,30.89-12.284,30.89-12.284s.218,19.188,3.925,26.166,20.714,23.985,27.474,28.346c4.287,2.766,14.971,10.352,23.107,16.2C283.128,383.014,286.732,379.013,288.9,377.165Z" transform="translate(-173.784 -295.956)" fill="none" stroke="#263238" stroke-linecap="round" stroke-linejoin="round" stroke-width="1"/>
          </g>
          <path id="Path_136" data-name="Path 136" d="M307.868,406.044c3.489,2.617,10.03,7.414,11.556,7.632s17.444-19.188,21.15-25.729,6.977-20.278,5.669-23.331-3.925-.436-6.541,1.744-26.6,18.1-28.782,19.188c-.571.286-1.094.524-1.559.724-.631,1.193-1.392,3.047-.839,4.291.872,1.962,4.579,4.579,4.579,4.579l-6.6,9.9C307.092,405.468,307.559,405.812,307.868,406.044Z" transform="translate(-130.835 -200.555)" fill="#101114" stroke="#263238" stroke-linecap="round" stroke-linejoin="round" stroke-width="1"/>
          <g id="Group_44" data-name="Group 44" transform="translate(184.864 162.674)">
            <path id="Path_137" data-name="Path 137" d="M341.922,387.947c3.707-6.541,6.977-20.278,5.669-23.331-.758-1.768-1.956-1.629-3.338-.779.918,4.079-.009,11.938-4.512,20.4-4.018,7.554-16.438,20.9-22.7,27.4a14.615,14.615,0,0,0,3.726,2.031C322.3,413.894,338.216,394.488,341.922,387.947Z" transform="translate(-317.046 -363.23)" fill="#fff"/>
            <g id="Group_43" data-name="Group 43" clip-path="url(#clip-path-8)">
              <path id="Path_138" data-name="Path 138" d="M321,419.814a1.655,1.655,0,0,0,.186-.1c.02-.013.038-.023.059-.037.088-.058.186-.131.292-.214l.1-.085c.08-.065.165-.138.254-.215.047-.04.093-.08.142-.125.107-.1.221-.2.338-.312l.211-.2c.093-.09.188-.182.286-.28q.122-.119.247-.248l.241-.246c.2-.206.407-.422.624-.652l.1-.1c.126-.135.258-.276.39-.42l.154-.167c.456-.5.939-1.034,1.444-1.606l.04-.044q.263-.3.535-.611l0,0-3.807-2.449c-2.171,2.356-4.184,4.479-5.79,6.146h0q.3.2.591.385l.081.051c.184.118.365.232.539.34l.01.006c.3.185.575.349.837.5.082.046.167.1.244.138s.164.088.244.131c.1.05.189.1.277.142.066.032.129.062.191.09.1.044.182.08.266.113.044.017.091.037.131.051a1.779,1.779,0,0,0,.313.085.365.365,0,0,0,.165-.032C320.955,419.832,320.975,419.823,321,419.814Z" transform="translate(-317.046 -369.424)" fill="#0f4c81"/>
              <path id="Path_139" data-name="Path 139" d="M321,419.814a1.655,1.655,0,0,0,.186-.1c.02-.013.038-.023.059-.037.088-.058.186-.131.292-.214l.1-.085c.08-.065.165-.138.254-.215.047-.04.093-.08.142-.125.107-.1.221-.2.338-.312l.211-.2c.093-.09.188-.182.286-.28q.122-.119.247-.248l.241-.246c.2-.206.407-.422.624-.652l.1-.1c.126-.135.258-.276.39-.42l.154-.167c.456-.5.939-1.034,1.444-1.606l.04-.044q.263-.3.535-.611l0,0-3.807-2.449c-2.171,2.356-4.184,4.479-5.79,6.146h0q.3.2.591.385l.081.051c.184.118.365.232.539.34l.01.006c.3.185.575.349.837.5.082.046.167.1.244.138s.164.088.244.131c.1.05.189.1.277.142.066.032.129.062.191.09.1.044.182.08.266.113.044.017.091.037.131.051a1.779,1.779,0,0,0,.313.085.365.365,0,0,0,.165-.032C320.955,419.832,320.975,419.823,321,419.814Z" transform="translate(-317.046 -369.424)" fill="#fff" opacity="0.5"/>
            </g>
            <path id="Path_141" data-name="Path 141" d="M341.922,387.947c3.707-6.541,6.977-20.278,5.669-23.331-.758-1.768-1.956-1.629-3.338-.779.918,4.079-.009,11.938-4.512,20.4-4.018,7.554-16.438,20.9-22.7,27.4a14.615,14.615,0,0,0,3.726,2.031C322.3,413.894,338.216,394.488,341.922,387.947Z" transform="translate(-317.046 -363.23)" fill="none" stroke="#263238" stroke-linecap="round" stroke-linejoin="round" stroke-width="1"/>
          </g>
          <path id="Path_142" data-name="Path 142" d="M299.862,422.609c-6.541-4.143-13.955-15.7-14.173-19.624a6.762,6.762,0,0,1,.1-1.286,6.292,6.292,0,0,0-3.591,1.286,83.36,83.36,0,0,0-8.5-6.759,17.755,17.755,0,0,0-7.822-2.342c-3.167,2.6-6.095,4.706-6.569,6.485-.872,3.271,5.015,16.353,19.188,25.511s18.97,7.632,23.113,6.759S306.4,426.752,299.862,422.609Z" transform="translate(-124.791 -204.474)" fill="#101114" stroke="#263238" stroke-linecap="round" stroke-linejoin="round" stroke-width="1"/>
          <path id="Path_143" data-name="Path 143" d="M257.818,401.819" transform="translate(-124.612 -205.488)" fill="#fff" stroke="#263238" stroke-linecap="round" stroke-linejoin="round" stroke-width="1"/>
          <g id="Group_46" data-name="Group 46" transform="translate(134.431 193.479)">
            <path id="Path_144" data-name="Path 144" d="M299.862,423.206a28.744,28.744,0,0,1-5.811-5.228,118.327,118.327,0,0,1-15.775-7.637c-5.669-3.489-4.361-5.669-7.632-8.94-2.509-2.509-7.448-2.835-9.615-2.852a5.956,5.956,0,0,0-1.723,2.416c-.872,3.271,5.015,16.353,19.188,25.511s18.97,7.632,23.113,6.759S306.4,427.349,299.862,423.206Z" transform="translate(-259.222 -398.549)" fill="#fff"/>
            <g id="Group_45" data-name="Group 45" clip-path="url(#clip-path-9)">
              <path id="Path_145" data-name="Path 145" d="M299.862,423.206a28.744,28.744,0,0,1-5.811-5.228,118.327,118.327,0,0,1-15.775-7.637c-5.669-3.489-4.361-5.669-7.632-8.94-2.509-2.509-7.448-2.835-9.615-2.852a5.956,5.956,0,0,0-1.723,2.416c-.872,3.271,5.015,16.353,19.188,25.511s18.97,7.632,23.113,6.759S306.4,427.349,299.862,423.206Z" transform="translate(-259.222 -398.549)" fill="#0f4c81"/>
              <path id="Path_146" data-name="Path 146" d="M299.862,423.206a28.744,28.744,0,0,1-5.811-5.228,118.327,118.327,0,0,1-15.775-7.637c-5.669-3.489-4.361-5.669-7.632-8.94-2.509-2.509-7.448-2.835-9.615-2.852a5.956,5.956,0,0,0-1.723,2.416c-.872,3.271,5.015,16.353,19.188,25.511s18.97,7.632,23.113,6.759S306.4,427.349,299.862,423.206Z" transform="translate(-259.222 -398.549)" fill="#fff" opacity="0.5"/>
            </g>
            <path id="Path_148" data-name="Path 148" d="M299.862,423.206a28.744,28.744,0,0,1-5.811-5.228,118.327,118.327,0,0,1-15.775-7.637c-5.669-3.489-4.361-5.669-7.632-8.94-2.509-2.509-7.448-2.835-9.615-2.852a5.956,5.956,0,0,0-1.723,2.416c-.872,3.271,5.015,16.353,19.188,25.511s18.97,7.632,23.113,6.759S306.4,427.349,299.862,423.206Z" transform="translate(-259.222 -398.549)" fill="none" stroke="#263238" stroke-linecap="round" stroke-linejoin="round" stroke-width="1"/>
          </g>
          <g id="Group_48" data-name="Group 48" transform="translate(134.435 195.227)">
            <path id="Path_149" data-name="Path 149" d="M300.953,424.988c-5.669-3.271-17.226-5.451-24.639-10.466s-5.451-9.376-10.9-12.865a5.556,5.556,0,0,0-6.121-.35c-.757,3.4,5.145,16.341,19.2,25.425,14.173,9.158,18.97,7.632,23.113,6.759,2.754-.579,3.95-2.992,2.533-5.759A11.988,11.988,0,0,0,300.953,424.988Z" transform="translate(-259.226 -400.553)" fill="#263238"/>
            <g id="Group_47" data-name="Group 47" clip-path="url(#clip-path-10)">
              <path id="Path_150" data-name="Path 150" d="M300.953,424.988c-5.669-3.271-17.226-5.451-24.639-10.466s-5.451-9.376-10.9-12.865a5.556,5.556,0,0,0-6.121-.35c-.757,3.4,5.145,16.341,19.2,25.425,14.173,9.158,18.97,7.632,23.113,6.759,2.754-.579,3.95-2.992,2.533-5.759A11.988,11.988,0,0,0,300.953,424.988Z" transform="translate(-259.226 -400.553)" fill="#fff" opacity="0.53"/>
            </g>
            <path id="Path_152" data-name="Path 152" d="M300.953,424.988c-5.669-3.271-17.226-5.451-24.639-10.466s-5.451-9.376-10.9-12.865a5.556,5.556,0,0,0-6.121-.35c-.757,3.4,5.145,16.341,19.2,25.425,14.173,9.158,18.97,7.632,23.113,6.759,2.754-.579,3.95-2.992,2.533-5.759A11.988,11.988,0,0,0,300.953,424.988Z" transform="translate(-259.226 -400.553)" fill="none" stroke="#263238" stroke-linecap="round" stroke-linejoin="round" stroke-width="1"/>
          </g>
          <g id="Group_50" data-name="Group 50" transform="translate(46.88 147.163)">
            <path id="Path_153" data-name="Path 153" d="M182.053,380.359s4.185-5.082,4.783-1.2-.3,11.061-3.289,13.752-4.484-1.495-4.484-1.495l1.793-2.392s1.495,2.99,2.691-1.794-2.392-4.185-2.392-4.185Z" transform="translate(-161.425 -349.568)" fill="#fff" stroke="#263238" stroke-linecap="round" stroke-linejoin="round" stroke-width="1"/>
            <path id="Path_154" data-name="Path 154" d="M176.264,399.369c-2.477,1.834-10.546,1.834-13.023,0C158,395.488,158.9,376.74,158.9,376.74h21.686S181.506,395.488,176.264,399.369Z" transform="translate(-158.84 -349.445)" fill="#fff" stroke="#263238" stroke-linecap="round" stroke-linejoin="round" stroke-width="1"/>
            <g id="Group_49" data-name="Group 49" transform="translate(2.416)">
              <path id="Path_155" data-name="Path 155" d="M161.61,369.062c0-2.361,2.186-2.361,2.186-4.722s-2.186-2.359-2.186-4.719,2.186-2.361,2.186-4.723-2.186-2.364-2.186-4.726,2.186-2.364,2.186-4.726" transform="translate(-161.61 -345.445)" fill="none" stroke="#13181b" stroke-linecap="round" stroke-linejoin="round" stroke-width="1"/>
              <path id="Path_156" data-name="Path 156" d="M170.2,369.894c0-1.792,2.185-1.792,2.185-3.585s-2.185-1.792-2.185-3.585,2.185-1.793,2.185-3.587-2.185-1.795-2.185-3.59,2.185-1.8,2.185-3.591" transform="translate(-162.708 -346.277)" fill="none" stroke="#13181b" stroke-linecap="round" stroke-linejoin="round" stroke-width="1"/>
              <path id="Path_157" data-name="Path 157" d="M179.648,369.062c0-2.361,2.185-2.361,2.185-4.722s-2.185-2.359-2.185-4.719,2.185-2.361,2.185-4.723-2.185-2.364-2.185-4.726,2.185-2.364,2.185-4.726" transform="translate(-163.916 -344.573)" fill="none" stroke="#13181b" stroke-linecap="round" stroke-linejoin="round" stroke-width="1"/>
            </g>
            <path id="Path_158" data-name="Path 158" d="M180.594,376.6c0,.545-4.855.988-10.843.988s-10.843-.443-10.843-.988,4.855-.987,10.843-.987S180.594,376.05,180.594,376.6Z" transform="translate(-158.849 -349.3)" fill="#fff" stroke="#263238" stroke-linecap="round" stroke-linejoin="round" stroke-width="1"/>
          </g>
          <g id="Group_61" data-name="Group 61" transform="translate(76.264)">
            <g id="Group_52" data-name="Group 52" transform="translate(12.376 39.247)">
              <g id="Group_51" data-name="Group 51" clip-path="url(#clip-path-11)">
                <path id="Path_160" data-name="Path 160" d="M220.717,231.639l-.891-1.7c-1.6-.877-3.835-2.161-5.949-3.583-3.886-2.61-6.62-5.558-7.155-4.373,0,0,1.016,11.016,1.443,14.49s1.4,13.474,2.406,16.781a11.019,11.019,0,0,0,1.4,2.719c-1.055-6.577.09-18.449.09-18.449Z" transform="translate(-206.721 -221.715)" fill="#0f4c81"/>
                <path id="Path_161" data-name="Path 161" d="M220.717,231.639l-.891-1.7c-1.6-.877-3.835-2.161-5.949-3.583-3.886-2.61-6.62-5.558-7.155-4.373,0,0,1.016,11.016,1.443,14.49s1.4,13.474,2.406,16.781a11.019,11.019,0,0,0,1.4,2.719c-1.055-6.577.09-18.449.09-18.449Z" transform="translate(-205.721 -218.715)" fill="#fff" opacity="0.5"/>
              </g>
              <path id="Path_163" data-name="Path 163" d="M206.721,221.984s1.016,11.016,1.443,14.49,1.4,13.474,2.406,16.781,6.466,9.056,7,7.726,3.231-10.31,2.148-15.65-1.411-9.982-.737-11.318,3.088-2.885,3.088-2.885a85.9,85.9,0,0,1-8.189-4.77C209.991,223.747,207.257,220.8,206.721,221.984Z" transform="translate(-206.721 -221.715)" fill="none" stroke="#212121" stroke-linecap="round" stroke-linejoin="round" stroke-width="1"/>
            </g>
            <g id="Group_60" data-name="Group 60">
              <g id="Group_55" data-name="Group 55" transform="translate(7.188 14.261)">
                <g id="Group_54" data-name="Group 54">
                  <path id="Path_164" data-name="Path 164" d="M205.554,219.9s6.281,5.258,11.1,7.155,12.219,1.8,13.259-.712-1.827-22.325-4.31-27.543-5.144-5.3-9.525-5.7-13.162,3.175-14.7,7.412.214,10.241,1.492,13.8A26.261,26.261,0,0,0,205.554,219.9Z" transform="translate(-200.773 -193.067)" fill="#fff"/>
                  <g id="Group_53" data-name="Group 53" clip-path="url(#clip-path-12)">
                    <path id="Path_165" data-name="Path 165" d="M216.839,219.664c-2.226-6.615-2.771-16.971-2.771-19.742,0-2.138,5.565-4.48,8.108-5.44-1.665-1.031-3.6-1.159-6.1-1.385-4.382-.4-13.162,3.175-14.7,7.412s.214,10.241,1.492,13.8a26.261,26.261,0,0,0,2.687,5.589s6.281,5.258,11.1,7.155a20.025,20.025,0,0,0,10.417,1.006C223.666,226.754,218.322,224.071,216.839,219.664Z" transform="translate(-200.773 -193.067)" fill="#0f4c81"/>
                    <path id="Path_166" data-name="Path 166" d="M216.839,219.664c-2.226-6.615-2.771-16.971-2.771-19.742,0-2.138,5.565-4.48,8.108-5.44-1.665-1.031-3.6-1.159-6.1-1.385-4.382-.4-13.162,3.175-14.7,7.412s.214,10.241,1.492,13.8a26.261,26.261,0,0,0,2.687,5.589s6.281,5.258,11.1,7.155a20.025,20.025,0,0,0,10.417,1.006C223.666,226.754,218.322,224.071,216.839,219.664Z" transform="translate(-200.773 -193.067)" fill="#fff" opacity="0.5"/>
                  </g>
                  <path id="Path_168" data-name="Path 168" d="M205.554,219.9s6.281,5.258,11.1,7.155,12.219,1.8,13.259-.712-1.827-22.325-4.31-27.543-5.144-5.3-9.525-5.7-13.162,3.175-14.7,7.412.214,10.241,1.492,13.8A26.261,26.261,0,0,0,205.554,219.9Z" transform="translate(-200.773 -193.067)" fill="none" stroke="#263238" stroke-linecap="round" stroke-linejoin="round" stroke-width="1"/>
                </g>
                <path id="Path_169" data-name="Path 169" d="M228.7,208.327c.1,2.512-1.476,4.613-3.517,4.694s-3.777-1.892-3.875-4.4,1.476-4.614,3.517-4.694S228.6,205.815,228.7,208.327Z" transform="translate(-203.397 -194.455)" fill="none" stroke="#263238" stroke-linecap="round" stroke-linejoin="round" stroke-width="1"/>
                <path id="Path_170" data-name="Path 170" d="M234.859,207.224c.1,2.513-.712,4.584-1.811,4.627s-2.071-1.958-2.169-4.47.712-4.583,1.811-4.627S234.76,204.712,234.859,207.224Z" transform="translate(-204.62 -194.305)" fill="none" stroke="#263238" stroke-linecap="round" stroke-linejoin="round" stroke-width="1"/>
                <path id="Path_171" data-name="Path 171" d="M230.077,207.936s7.2,1.37,6.513,3.106-5.566,3.611-5.566,3.611" transform="translate(-204.518 -194.968)" fill="#fff" stroke="#263238" stroke-linecap="round" stroke-linejoin="round" stroke-width="1"/>
                <path id="Path_172" data-name="Path 172" d="M229.571,206.942s.1-.891,1.216-.32" transform="translate(-204.453 -194.775)" fill="none" stroke="#263238" stroke-linecap="round" stroke-linejoin="round" stroke-width="1"/>
                <line id="Line_11" data-name="Line 11" x1="13.1" y2="5.155" transform="translate(4.608 14.573)" fill="none" stroke="#263238" stroke-linecap="round" stroke-linejoin="round" stroke-width="1"/>
                <path id="Path_173" data-name="Path 173" d="M221.276,204.63a3.322,3.322,0,0,1,3.265-1.97" transform="translate(-203.393 -194.293)" fill="none" stroke="#263238" stroke-linecap="round" stroke-linejoin="round" stroke-width="2"/>
                <line id="Line_12" data-name="Line 12" x1="2.017" y2="0.762" transform="translate(24.591 8.424)" fill="none" stroke="#263238" stroke-linecap="round" stroke-linejoin="round" stroke-width="2"/>
                <path id="Path_174" data-name="Path 174" d="M224.136,219.482s2.591-.684,4.107.856" transform="translate(-203.759 -196.424)" fill="none" stroke="#263238" stroke-linecap="round" stroke-linejoin="round" stroke-width="1"/>
                <path id="Path_175" data-name="Path 175" d="M225.9,209.3c.119.875-.042,1.62-.359,1.663s-.673-.631-.793-1.505.041-1.62.359-1.663S225.781,208.426,225.9,209.3Z" transform="translate(-203.832 -194.95)" fill="#263238"/>
              </g>
              <g id="Group_57" data-name="Group 57">
                <path id="Path_176" data-name="Path 176" d="M205.552,210.741s-.88,1.743,1.591,1.836,4.132-1.112,2.935-2.583-2.962-2.92-1.141-4.89,5.361-3.627,3.377-5.827-9.309-.2-7.481-1.983,10.3-3.632,14.1-3.4,10.9-2.706,12.459-6.564-.622-10.985-5.731-10.594-8.918,4.907-11.185,5.186-6.92-2.2-10.818.046-4.031,8.51-4.38,9.284-5.619,1.929-6.547,7.281a14.231,14.231,0,0,0,3.7,12c2.182,2.382,3.167,3.293,3.167,3.293Z" transform="translate(-192.531 -176.716)" fill="#101114" stroke="#263238" stroke-linecap="round" stroke-linejoin="round" stroke-width="1"/>
                <g id="Group_56" data-name="Group 56" transform="translate(1.915 6.396)">
                  <path id="Path_177" data-name="Path 177" d="M194.735,204.651a4.13,4.13,0,0,0,.563,2.319" transform="translate(-194.727 -186.683)" fill="none" stroke="#fff" stroke-linecap="round" stroke-linejoin="round" stroke-width="0.75"/>
                  <path id="Path_178" data-name="Path 178" d="M217.1,188.211s-1.907-4.161,2.947-4.161,5.549,6.069.521,8.322-15.953,2.774-21.848,5.376a7.655,7.655,0,0,0-3,2.126" transform="translate(-194.853 -184.05)" fill="none" stroke="#fff" stroke-linecap="round" stroke-linejoin="round" stroke-width="0.75"/>
                  <path id="Path_179" data-name="Path 179" d="M208.668,205.761c-1.743.624-4,1.5-6.305,2.565-4.855,2.254-3.814,4.508-3.814,4.508" transform="translate(-195.203 -186.825)" fill="none" stroke="#fff" stroke-linecap="round" stroke-linejoin="round" stroke-width="0.75"/>
                  <path id="Path_180" data-name="Path 180" d="M213.7,204.527s-.424.126-1.149.363" transform="translate(-197.005 -186.667)" fill="none" stroke="#fff" stroke-linecap="round" stroke-linejoin="round" stroke-width="0.75"/>
                </g>
              </g>
              <g id="Group_59" data-name="Group 59" transform="translate(6.636 33.073)">
                <path id="Path_181" data-name="Path 181" d="M207.357,217.453s-2.818-4.065-5.79-2.429-.657,7.428,1.131,9.446,5.247-1.725,5.589-2.687" transform="translate(-200.14 -214.636)" fill="#fff"/>
                <g id="Group_58" data-name="Group 58" clip-path="url(#clip-path-13)">
                  <path id="Path_182" data-name="Path 182" d="M207.357,217.453s-2.818-4.065-5.79-2.429-.657,7.428,1.131,9.446,5.247-1.725,5.589-2.687" transform="translate(-200.14 -214.636)" fill="#0f4c81"/>
                  <path id="Path_183" data-name="Path 183" d="M207.357,217.453s-2.818-4.065-5.79-2.429-.657,7.428,1.131,9.446,5.247-1.725,5.589-2.687" transform="translate(-200.14 -214.636)" fill="#fff" opacity="0.5"/>
                </g>
                <path id="Path_185" data-name="Path 185" d="M207.357,217.453s-2.818-4.065-5.79-2.429-.657,7.428,1.131,9.446,5.247-1.725,5.589-2.687" transform="translate(-200.14 -214.636)" fill="none" stroke="#263238" stroke-linecap="round" stroke-linejoin="round" stroke-width="1"/>
              </g>
            </g>
          </g>
        </g>
        <g id="Group_63" data-name="Group 63" transform="translate(0 32.183)">
          <rect id="Rectangle_15" data-name="Rectangle 15" width="71.447" height="54.636" rx="5.12" fill="#fff" stroke="#263238" stroke-linecap="round" stroke-linejoin="round" stroke-width="1"/>
          <path id="Path_186" data-name="Path 186" d="M171.177,257.273l41.865,10.9-41.865-20.5" transform="translate(-101.09 -217.969)" fill="#fff" stroke="#263238" stroke-linecap="round" stroke-linejoin="round" stroke-width="1"/>
          <rect id="Rectangle_16" data-name="Rectangle 16" width="16.811" height="44.129" transform="translate(5.779 5.254)" fill="#6f5daf"/>
          <rect id="Rectangle_17" data-name="Rectangle 17" width="2.101" height="44.129" transform="translate(65.638 5.254)" fill="#6f5daf"/>
          <rect id="Rectangle_18" data-name="Rectangle 18" width="2.101" height="3.771" transform="translate(65.638 25.433)" stroke-width="1" stroke="#263238" stroke-linecap="round" stroke-linejoin="round" fill="#2e2359"/>
          <line id="Line_13" data-name="Line 13" x2="33.097" transform="translate(27.844 6.304)" fill="#fff" stroke="#263238" stroke-linecap="round" stroke-linejoin="round" stroke-width="1"/>
          <line id="Line_14" data-name="Line 14" x2="33.097" transform="translate(27.844 11.032)" fill="#fff" stroke="#263238" stroke-linecap="round" stroke-linejoin="round" stroke-width="1"/>
          <line id="Line_15" data-name="Line 15" x2="33.097" transform="translate(27.844 15.76)" fill="#fff" stroke="#263238" stroke-linecap="round" stroke-linejoin="round" stroke-width="1"/>
          <line id="Line_16" data-name="Line 16" x2="33.097" transform="translate(27.844 20.489)" fill="#fff" stroke="#263238" stroke-linecap="round" stroke-linejoin="round" stroke-width="1"/>
          <line id="Line_17" data-name="Line 17" x2="33.097" transform="translate(27.844 32.046)" fill="#fff" stroke="#263238" stroke-linecap="round" stroke-linejoin="round" stroke-width="1"/>
          <line id="Line_18" data-name="Line 18" x2="33.097" transform="translate(27.844 36.249)" fill="#fff" stroke="#263238" stroke-linecap="round" stroke-linejoin="round" stroke-width="1"/>
          <line id="Line_19" data-name="Line 19" x2="33.097" transform="translate(27.844 40.452)" fill="#fff" stroke="#263238" stroke-linecap="round" stroke-linejoin="round" stroke-width="1"/>
          <line id="Line_20" data-name="Line 20" x2="33.097" transform="translate(27.844 49.174)" fill="#fff" stroke="#263238" stroke-linecap="round" stroke-linejoin="round" stroke-width="1"/>
        </g>
      </g>
    </g>
    <g id="Plants" transform="translate(425.841 285.234)">
      <g id="Group_67" data-name="Group 67">
        <g id="Group_65" data-name="Group 65" transform="translate(5.777 107.761)">
          <ellipse id="Ellipse_8" data-name="Ellipse 8" cx="14.588" cy="6.545" rx="14.588" ry="6.545" fill="#0f4c81"/>
          <ellipse id="Ellipse_9" data-name="Ellipse 9" cx="14.588" cy="6.545" rx="14.588" ry="6.545" fill="#fff" opacity="0.5"/>
        </g>
        <g id="Group_66" data-name="Group 66">
          <path id="Path_187" data-name="Path 187" d="M367.813,290.834c1.561.682,5.381.6,5.384.6.039,0-.821-2.5-.893-2.651-.838-1.753-3.489-4.647-5.645-4.356a2.575,2.575,0,0,0-2.066,3.227C364.951,289.144,366.484,290.254,367.813,290.834Z" transform="translate(-364.515 -273.325)" fill="#263238"/>
          <path id="Path_188" data-name="Path 188" d="M417.888,276.211c-2.163-.233-4.733,2.732-5.524,4.507-.068.154-.861,2.675-.821,2.674h.046c-.41.465-.843.968-1.306,1.527-.846,1.04-1.793,2.221-2.736,3.578a45.752,45.752,0,0,0-2.837,4.521,33.575,33.575,0,0,0-2.424,5.456c-.008.023-.012.046-.02.069.011-.637-.017-2.42-.034-2.557-.25-1.927-1.865-5.5-4.005-5.9a2.576,2.576,0,0,0-2.97,2.422c-.125,1.531.985,3.063,2.067,4.029,1.221,1.09,4.609,2.146,4.879,2.229a45.475,45.475,0,0,0-1.431,5.911c-.208,1.164-.381,2.344-.54,3.527-.008-.551-.019-1.044-.028-1.113-.25-1.927-1.866-5.5-4-5.9a2.574,2.574,0,0,0-2.97,2.422c-.126,1.531.984,3.063,2.066,4.03a17.1,17.1,0,0,0,4.732,2.183c-.056.454-.117.908-.171,1.363-.261,2.183-.512,4.364-.823,6.494-.11.752-.245,1.486-.378,2.223-.008-.489-.018-.9-.026-.965-.25-1.927-1.865-5.5-4.005-5.9a2.575,2.575,0,0,0-2.97,2.422c-.126,1.531.985,3.063,2.067,4.03a16.45,16.45,0,0,0,4.595,2.138c-.159.75-.316,1.5-.5,2.221-.139.488-.239.968-.406,1.451s-.309.959-.461,1.43c-.327.9-.659,1.827-1,2.7-.232.605-.466,1.178-.7,1.757.118-.747.317-2.212.32-2.337a10.006,10.006,0,0,0-1.341-4.863,3.112,3.112,0,0,0-.036-.57,2.576,2.576,0,0,0-3.149-2.185c-2.1.56-3.436,4.251-3.536,6.191-.006.114.069,1.363.129,2.151-.106-.457-.2-.9-.317-1.372-.221-.93-.468-1.852-.731-2.844q-.215-.712-.435-1.438c-.135-.484-.339-.977-.508-1.471-.416-1.136-.893-2.269-1.4-3.4a16.918,16.918,0,0,0,4.85-1.818c1.151-.883,2.372-2.329,2.361-3.864a2.574,2.574,0,0,0-2.781-2.637c-2.163.235-4.041,3.681-4.433,5.584-.024.119-.153,1.516-.208,2.284-.31-.677-.615-1.354-.95-2.028-.966-1.947-2.006-3.888-3.034-5.829-.315-.594-.622-1.19-.931-1.785.29-.066,3.733-.865,5.028-1.859,1.151-.884,2.372-2.329,2.361-3.865a2.575,2.575,0,0,0-2.781-2.637c-2.163.235-4.041,3.681-4.433,5.584-.03.144-.211,2.154-.232,2.668-.681-1.312-1.348-2.625-1.953-3.947a45.379,45.379,0,0,1-2.124-5.484c.135-.031,3.732-.849,5.059-1.866,1.151-.883,2.372-2.329,2.361-3.865a2.574,2.574,0,0,0-2.781-2.636c-2.164.235-4.041,3.681-4.433,5.584-.03.149-.225,2.312-.232,2.707-.033-.109-.08-.218-.113-.327a33.244,33.244,0,0,1-1.1-5.79c-.121-1.081-.177-2.12-.208-3.133.686-.084,3.814-.5,5.109-1.285,1.241-.752,2.614-2.054,2.772-3.582a2.575,2.575,0,0,0-2.474-2.925c-2.176,0-4.42,3.215-5.019,5.063-.033.1-.251,1.159-.4,1.932-.006-.457-.023-.929-.021-1.368,0-1.645.107-3.151.21-4.485.065-.758.139-1.442.214-2.081.63-.433,3.146-2.209,3.92-3.479.755-1.238,1.373-3.027.809-4.456a2.576,2.576,0,0,0-3.545-1.457c-1.933,1-2.441,4.89-2.122,6.807.028.165.758,2.706.791,2.684l.038-.026c-.085.613-.169,1.272-.247,1.994-.132,1.334-.27,2.842-.308,4.494a45.648,45.648,0,0,0,.127,5.335,33.554,33.554,0,0,0,.988,5.887c.006.023.016.046.022.068-.343-.537-1.35-2.009-1.44-2.113-1.272-1.469-4.591-3.561-6.595-2.711a2.576,2.576,0,0,0-1.141,3.659c.741,1.346,2.512,2.011,3.948,2.221,1.62.235,5.028-.753,5.3-.832a45.738,45.738,0,0,0,2.067,5.72c.469,1.085.975,2.164,1.5,3.239-.31-.455-.592-.861-.638-.913-1.271-1.47-4.591-3.561-6.594-2.711a2.575,2.575,0,0,0-1.141,3.659c.74,1.346,2.511,2.011,3.947,2.221a17.078,17.078,0,0,0,5.151-.789c.2.41.4.822.609,1.232.987,1.965,1.981,3.922,2.9,5.871.324.687.616,1.375.911,2.063-.276-.4-.513-.742-.554-.79-1.272-1.469-4.591-3.561-6.594-2.711a2.576,2.576,0,0,0-1.142,3.659c.74,1.346,2.511,2.011,3.948,2.221a16.434,16.434,0,0,0,5.012-.752c.281.713.564,1.427.805,2.131.154.484.335.94.461,1.435l.4,1.448c.223.93.46,1.887.654,2.8.14.633.263,1.24.386,1.851-.313-.687-.955-2.02-1.021-2.125-1.034-1.645-4-4.215-6.108-3.679a2.576,2.576,0,0,0-1.682,3.443c.528,1.443,2.177,2.369,3.565,2.794,1.528.467,4.911.04,5.333-.017.2,1.011.391,2,.552,2.929.57,3.231.922,5.944,1.141,7.843.039.337.072.638.1.922H381.9L384,383.515a5.873,5.873,0,0,0,5.865,5.572h0a5.871,5.871,0,0,0,5.865-5.572l2.105-41.083h-6.1c.044-.093.087-.181.135-.28.837-1.744,2-4.25,3.252-7.317.4-.968.805-2.01,1.212-3.085.409.086,3.758.766,5.319.413,1.416-.319,3.13-1.121,3.763-2.52A2.574,2.574,0,0,0,404,326.085c-2.063-.693-5.21,1.649-6.364,3.213-.068.092-.694,1.175-1.079,1.865.164-.44.329-.864.492-1.32.329-.9.631-1.8.959-2.775q.215-.712.431-1.44c.154-.477.256-1,.388-1.506.28-1.178.507-2.385.709-3.606a16.921,16.921,0,0,0,5.047,1.161c1.448-.1,3.264-.634,4.1-1.921a2.575,2.575,0,0,0-.865-3.733c-1.935-1-5.4.842-6.778,2.212-.086.085-.964,1.18-1.435,1.791.116-.734.235-1.468.327-2.215.268-2.157.472-4.349.686-6.535.065-.669.137-1.335.208-2,.278.106,3.59,1.338,5.219,1.224,1.448-.1,3.264-.633,4.1-1.921a2.576,2.576,0,0,0-.865-3.733c-1.935-1-5.4.842-6.778,2.212-.1.1-1.365,1.68-1.666,2.1.155-1.47.324-2.933.549-4.369a45.267,45.267,0,0,1,1.254-5.746c.13.049,3.58,1.351,5.249,1.234,1.447-.1,3.263-.633,4.1-1.921a2.575,2.575,0,0,0-.865-3.733c-1.934-1-5.4.841-6.778,2.212-.108.107-1.463,1.8-1.687,2.13.032-.11.053-.226.086-.335a33.218,33.218,0,0,1,2.276-5.437c.5-.968,1.022-1.866,1.555-2.728.618.309,3.456,1.687,4.97,1.748,1.45.058,3.313-.271,4.288-1.458a2.575,2.575,0,0,0-.45-3.805c-1.813-1.2-5.461.242-6.979,1.454-.083.065-.849.828-1.4,1.391.247-.386.494-.788.737-1.152.91-1.371,1.828-2.57,2.65-3.625.472-.6.911-1.127,1.326-1.618.764-.014,3.843-.107,5.189-.74,1.313-.617,2.815-1.767,3.133-3.27A2.576,2.576,0,0,0,417.888,276.211Zm-23.953,58.122c-1.307,3.009-2.51,5.466-3.374,7.17-.174.344-.331.648-.476.928h-.145c-.043-.332-.091-.7-.147-1.105-.264-1.916-.679-4.647-1.325-7.9-.2-1.027-.437-2.12-.69-3.241a28.132,28.132,0,0,0,2.975-1.4,18.85,18.85,0,0,0,4.336,2.8c.369.179-.465,1.3-.465,1.3" transform="translate(-364.562 -271.702)" fill="#101114" stroke="rgba(0,0,0,0)" stroke-width="1"/>
          <path id="Path_189" data-name="Path 189" d="M411.814,291.319c.033.022.694-2.538.718-2.7.268-1.925-.345-5.8-2.305-6.747a2.576,2.576,0,0,0-3.5,1.552c-.525,1.443.141,3.215.93,4.432C408.578,289.283,411.811,291.318,411.814,291.319Z" transform="translate(-369.886 -272.97)" fill="#263238"/>
        </g>
      </g>
    </g>
  </g>
</svg>
