<svg xmlns="http://www.w3.org/2000/svg" width="564.439" height="512.208" viewBox="0 0 564.439 512.208">
<style>

@keyframes moveTreeOne {
  from {
    transform:translate(-2px, -2px) rotate(-2deg);
  }
  to {
    transform:translate(2px, 2px) rotate(3deg);
  }
}

@keyframes moveTreeTwo {
  from {
    transform:translate(-3px, -2px) rotate(-1deg);
  }
  to {
    transform:translate(3px, -2px) rotate(1deg);
  }
}

@keyframes moveTreeThree {
  from {
    transform:translate(-4px, -2px) rotate(-3deg);
  }
  to {
    transform:translate(4px, -2px) rotate(3deg);
  }
}

@keyframes moveMoon{
  from{
        transform: translate(-90px,-20px) rotateZ(-45deg) scale(0.9);
  }
  to{
    transform: translate(90px,-20px) rotateZ(45deg) scale(0.9);
  }
}

#moon{
  transform-box: view-box;
  transform-origin:center;
  animation-name: moveMoon;
 animation-duration: 30s;
  animation-timing-function: linear;
  animation-iteration-count: infinte;
  animation-direction: reverse;
  
}

.tree{

  animation-timing-function: ease-in-out;
  animation-iteration-count: infinite;
  animation-direction: alternate-reverse;
  transform-box: view-box;
  transform-origin:bottom center;
}

#tree1{
  animation-duration: 3s;
  animation-name: moveTreeOne;
  
}

#tree2{
 animation-name: moveTreeTwo;
 animation-duration: 4s;
}
#tree3{
  animation-name: moveTreeThree;
  animation-duration: 4s;
}

</style>
  <g id="tech-adventurer_illustration" data-name="tech-adventurer illustration" transform="translate(-87.863 -76.344)">
    <g id="OBJECT" transform="translate(87.863 76.344)">
      <g id="Group_12" data-name="Group 12">
        <g id="Group_7" data-name="Group 7">
          <g id="Group_13" data-name="Group 13">
            <g id="Group_3" data-name="Group 3">
              <circle id="Ellipse_1" data-name="Ellipse 1" cx="210.759" cy="210.759" r="210.759" transform="translate(70.232 31.674)" fill="#48357e"/>
              <circle id="Ellipse_2" data-name="Ellipse 2" cx="210.759" cy="210.759" r="210.759" transform="translate(70.232 31.674)" fill="#7a52e9"/>
              <g id="moon">
                <circle id="Ellipse_3" data-name="Ellipse 3" cx="67.959" cy="67.959" r="67.959" transform="translate(220.575 97.654)" fill="#5d39c4"/>
                <circle id="Ellipse_4" data-name="Ellipse 4" cx="53.432" cy="53.432" r="53.432" transform="translate(235.102 112.181)" fill="#744de5"/>
                <circle id="Ellipse_5" data-name="Ellipse 5" cx="33.621" cy="33.621" r="33.621" transform="translate(254.913 131.992)" fill="#e7dfff"/>
              </g>
              <g id="Group_2" data-name="Group 2" transform="translate(258.206 198.349)">
                <path id="Path_4" data-name="Path 4" d="M236.2,214.927c.357-.592.8-1.375,1.276-2.259C237.055,213.422,236.651,214.186,236.2,214.927Z" transform="translate(-236.204 -173.728)" fill="#fff"/>
              </g>
              <g id="tree1" class="tree">
                <path id="Path_1" data-name="Path 1" d="M310.438,380.149a36.546,36.546,0,0,1-12.508-1.862c9.112.675,17.814-2.747,25.925-6.071-10.726.473-21.97.729-31.65-2.926a48.169,48.169,0,0,1-9.767-5.178,67.312,67.312,0,0,1-14.653-13.119,51.6,51.6,0,0,0,18.6,1.742,20.9,20.9,0,0,1-8.322-4.978,90.631,90.631,0,0,0,21.707,1.079,50.941,50.941,0,0,1-11.533-3.991,71.914,71.914,0,0,0,20.09.473c-9.883.005-19.051-3.763-27.742-7.455-7.617-3.236-15.507-6.651-20.214-12.355a65.2,65.2,0,0,0,9.666,2.59,21.386,21.386,0,0,1-7.272-7.861,38.92,38.92,0,0,0,9.645,2.366,23.251,23.251,0,0,1-7.213-4.693,55.021,55.021,0,0,1,8.658,2.033,14.394,14.394,0,0,1-3.81-3.709c5.055,1.709,11.07,2.738,16.43,3.718a138.634,138.634,0,0,1-13.241-6.165A43.967,43.967,0,0,1,266,309.2a36.566,36.566,0,0,1-6.674-7.622,99.765,99.765,0,0,1-13.14-25.645,42.37,42.37,0,0,0,20.865,7.229,24.58,24.58,0,0,1-8.907-4.641,74.715,74.715,0,0,0,14.061,2.319,40.668,40.668,0,0,1-12.969-7.735l12.08,3.6c-11.674-11.563-23.455-23.26-31.411-36.624l10.721,4.287a14.7,14.7,0,0,1-6.19-6.755q5.2,1.914,10.451,3.744a32.258,32.258,0,0,1-9.577-8.68,117.732,117.732,0,0,1-8.862-13.812q-5.2-9.013-10.405-18.028v-.023l-.007.01-.007-.01v.023q-5.2,9.013-10.405,18.028a117.726,117.726,0,0,1-8.862,13.812,32.259,32.259,0,0,1-9.577,8.68q5.248-1.833,10.451-3.744a14.694,14.694,0,0,1-6.19,6.755l10.721-4.287c-7.956,13.364-19.737,25.061-31.411,36.624l12.08-3.6a40.669,40.669,0,0,1-12.969,7.735,74.715,74.715,0,0,0,14.061-2.319,24.58,24.58,0,0,1-8.907,4.641,42.37,42.37,0,0,0,20.865-7.229,99.711,99.711,0,0,1-13.14,25.645,36.516,36.516,0,0,1-6.674,7.622,43.968,43.968,0,0,1-7.234,4.583,138.439,138.439,0,0,1-13.241,6.165c5.359-.98,11.375-2.009,16.43-3.718a14.394,14.394,0,0,1-3.81,3.709,55.021,55.021,0,0,1,8.658-2.033,23.231,23.231,0,0,1-7.213,4.693,38.921,38.921,0,0,0,9.645-2.366,21.371,21.371,0,0,1-7.272,7.861,65.205,65.205,0,0,0,9.666-2.59c-4.707,5.7-12.6,9.119-20.214,12.355-8.691,3.692-17.859,7.46-27.742,7.455a71.912,71.912,0,0,0,20.09-.473,50.911,50.911,0,0,1-11.533,3.991A90.626,90.626,0,0,0,174,347.756a20.9,20.9,0,0,1-8.32,4.978,51.592,51.592,0,0,0,18.6-1.742,67.31,67.31,0,0,1-14.653,13.119,48.17,48.17,0,0,1-9.767,5.178c-9.68,3.655-20.924,3.4-31.65,2.926,8.111,3.325,16.813,6.747,25.925,6.071a36.54,36.54,0,0,1-12.508,1.862,62.58,62.58,0,0,0,28.56,4.936,74.628,74.628,0,0,1-9.519,2.933c15.714-.346,30.231,6.512,45.817,8.127a78.832,78.832,0,0,0,19.547-.534,78.833,78.833,0,0,0,19.547.534c15.586-1.615,30.1-8.473,45.817-8.127a74.63,74.63,0,0,1-9.519-2.933A62.58,62.58,0,0,0,310.438,380.149Z" transform="translate(-57.98 15.846)" fill="#5a3bb2"/>
                <path id="Path_34" data-name="Path 34" d="M184.488,214a5.939,5.939,0,0,1-.362,1.506,10.292,10.292,0,0,1-4.071,5.053,5.978,5.978,0,0,1-1.4.672,9.4,9.4,0,0,1,.681-1.37,22.449,22.449,0,0,1,3.956-4.905A9.854,9.854,0,0,1,184.488,214Z" transform="translate(-20.617 25.611)" fill="#48357e"/>
                <path id="Path_35" data-name="Path 35" d="M184.859,224.654s.881,1.158,2.1,2.888,2.848,4.019,4.526,6.259,3.4,4.452,4.708,6.122,2.167,2.835,2.167,2.835a22.823,22.823,0,0,1-2.888-2.143,36.108,36.108,0,0,1-5.382-5.775,41.92,41.92,0,0,1-2.324-3.528,32.53,32.53,0,0,1-1.674-3.279A22.984,22.984,0,0,1,184.859,224.654Z" transform="translate(-16.025 33.498)" fill="#48357e"/>
                <path id="Path_36" data-name="Path 36" d="M173.427,235.317a4.851,4.851,0,0,1-.416,1.154,8.4,8.4,0,0,1-3.408,3.574,4.831,4.831,0,0,1-1.137.466,4.91,4.91,0,0,1,.414-1.157,8.407,8.407,0,0,1,3.412-3.568A4.9,4.9,0,0,1,173.427,235.317Z" transform="translate(-28.167 41.395)" fill="#48357e"/>
                <path id="Path_37" data-name="Path 37" d="M161.825,271.734s1.1-.9,2.813-2.087c1.706-1.2,4.007-2.7,6.139-4.369a39.159,39.159,0,0,0,3.018-2.56c.917-.869,1.727-1.73,2.4-2.5s1.184-1.464,1.535-1.962l.56-.787a9.538,9.538,0,0,1-.251.942,12.631,12.631,0,0,1-1.02,2.372,16.9,16.9,0,0,1-2.113,3,22.657,22.657,0,0,1-3.06,2.875,31.651,31.651,0,0,1-6.721,3.862A29.939,29.939,0,0,1,161.825,271.734Z" transform="translate(-33.085 57.799)" fill="#48357e"/>
                <path id="Path_38" data-name="Path 38" d="M166.341,272.235a17.008,17.008,0,0,1,1.4-1.422c.865-.8,2.042-1.779,3.25-2.714s2.461-1.815,3.453-2.446a16.837,16.837,0,0,1,1.737-.99,9.466,9.466,0,0,1-1.055,1.721,16.48,16.48,0,0,1-6.855,5.271A9.513,9.513,0,0,1,166.341,272.235Z" transform="translate(-29.74 63.13)" fill="#48357e"/>
                <path id="Path_39" data-name="Path 39" d="M184.43,264.852a8.6,8.6,0,0,1-.4,1.615,16.621,16.621,0,0,1-3.6,5.974,8.47,8.47,0,0,1-1.248,1.1,8.4,8.4,0,0,1,.392-1.617,16.613,16.613,0,0,1,3.608-5.972A8.412,8.412,0,0,1,184.43,264.852Z" transform="translate(-20.228 63.27)" fill="#48357e"/>
                <path id="Path_40" data-name="Path 40" d="M185.844,256.328s.733.938,1.676,2.379,2.158,3.377,3.339,5.321,2.322,3.916,3.152,5.432,1.321,2.594,1.321,2.594a18.464,18.464,0,0,1-2.131-2.009,32.122,32.122,0,0,1-6.573-10.9A18.779,18.779,0,0,1,185.844,256.328Z" transform="translate(-15.296 56.957)" fill="#48357e"/>
                <path id="Path_41" data-name="Path 41" d="M194.807,260.355a6.631,6.631,0,0,1,1.067.468,12.863,12.863,0,0,1,1.9,1.274,12.682,12.682,0,0,1,1.634,1.6,6.275,6.275,0,0,1,.675.952,3.527,3.527,0,0,1-1.191-.1,5.666,5.666,0,0,1-2.218-1.107,5.739,5.739,0,0,1-1.532-1.946A3.479,3.479,0,0,1,194.807,260.355Z" transform="translate(-8.658 59.939)" fill="#48357e"/>
                <path id="Path_42" data-name="Path 42" d="M186.029,281.97a14.884,14.884,0,0,1-1.565,2.278,24.415,24.415,0,0,1-9.652,7.13,14.9,14.9,0,0,1-2.639.822s.851-.729,2.15-1.694l4.726-3.49,4.729-3.488C185.079,282.574,186.029,281.97,186.029,281.97Z" transform="translate(-25.42 75.948)" fill="#48357e"/>
                <path id="Path_43" data-name="Path 43" d="M195.167,277.166s.39.145,1.05.432,1.593.7,2.717,1.2c2.228,1.02,5.159,2.418,8.082,3.824s5.836,2.842,8.017,3.958l2.628,1.385c.634.338.989.555.989.555s-1.626-.3-3.991-1.015a60.839,60.839,0,0,1-16.216-7.841C196.415,278.249,195.167,277.166,195.167,277.166Z" transform="translate(-8.391 72.39)" fill="#48357e"/>
                <path id="Path_44" data-name="Path 44" d="M195.333,283.167a10.7,10.7,0,0,1,1.864.218,21.554,21.554,0,0,1,7.384,2.982,10.614,10.614,0,0,1,1.49,1.14,10.451,10.451,0,0,1-1.864-.214,21.535,21.535,0,0,1-7.382-2.985A10.706,10.706,0,0,1,195.333,283.167Z" transform="translate(-8.268 76.834)" fill="#48357e"/>
                <path id="Path_45" data-name="Path 45" d="M188.045,285.8s.641.484,1.452,1.218c.8.728,1.857,1.7,2.919,2.672,1.041.966,2.1,1.929,2.9,2.691s1.33,1.351,1.33,1.351a7.291,7.291,0,0,1-1.866-.506,11.857,11.857,0,0,1-6.075-5.608A7.2,7.2,0,0,1,188.045,285.8Z" transform="translate(-13.666 78.788)" fill="#48357e"/>
                <path id="Path_46" data-name="Path 46" d="M203.516,296.807s1.328.494,3.236,1.239,4.463,1.676,7.048,2.477,5.2,1.49,7.206,1.965,3.366.822,3.366.822a19.135,19.135,0,0,1-3.5.169,25.786,25.786,0,0,1-3.577-.348,29.09,29.09,0,0,1-7.857-2.453,26.014,26.014,0,0,1-3.14-1.746A19.234,19.234,0,0,1,203.516,296.807Z" transform="translate(-2.208 86.936)" fill="#48357e"/>
                <path id="Path_47" data-name="Path 47" d="M201.84,301.988a7.676,7.676,0,0,1,1.408.207,15.66,15.66,0,0,1,5.321,2.386,7.533,7.533,0,0,1,1.088.919,5.622,5.622,0,0,1-1.438.019,9.679,9.679,0,0,1-5.438-2.446A5.575,5.575,0,0,1,201.84,301.988Z" transform="translate(-3.449 90.774)" fill="#48357e"/>
                <path id="Path_77" data-name="Path 77" d="M217.759,300.269c3.285,5.582,8.929,7.448,12.768,12.275-1.393-.35-2.491-.628-3.883-.976a6.948,6.948,0,0,0,3.427,3.8,25.885,25.885,0,0,1-8.881-2.507,24.322,24.322,0,0,0,4.449,5.558,103.425,103.425,0,0,1-11.995-3.333,81.628,81.628,0,0,0,11.1,7.608,29.919,29.919,0,0,1-9.091-1.1c3.126,5.485,8.372,9.446,13.855,12.576a71.394,71.394,0,0,0,19.615,7.707,79.1,79.1,0,0,0,9.269,1.473,124.171,124.171,0,0,1-14.79-5.488c-7.617-3.236-15.507-6.651-20.214-12.355a65.2,65.2,0,0,0,9.666,2.59,21.386,21.386,0,0,1-7.272-7.861,38.92,38.92,0,0,0,9.645,2.366,23.251,23.251,0,0,1-7.213-4.693,55.022,55.022,0,0,1,8.658,2.033,14.394,14.394,0,0,1-3.81-3.709c5.055,1.709,11.07,2.738,16.43,3.718a138.632,138.632,0,0,1-13.241-6.165,43.965,43.965,0,0,1-7.234-4.583,36.565,36.565,0,0,1-6.674-7.622,99.765,99.765,0,0,1-13.14-25.645,42.37,42.37,0,0,0,20.865,7.229,24.58,24.58,0,0,1-8.907-4.641,74.716,74.716,0,0,0,14.061,2.319,40.669,40.669,0,0,1-12.969-7.735l12.08,3.6c-11.674-11.563-23.455-23.26-31.411-36.624l10.72,4.287a14.7,14.7,0,0,1-6.19-6.755q5.2,1.914,10.451,3.744a32.258,32.258,0,0,1-9.577-8.68,117.73,117.73,0,0,1-8.862-13.812q-5.2-9.013-10.405-18.028v-.023l-.007.01-.007-.01v.023q-5.2,9.013-10.405,18.028c-.165.287-.334.574-.5.862.19-.2.381-.4.566-.6,3.156-3.448,7.2-8.606,10.358-12.052,3.3,10.17,10.009,18.421,17.17,28.412-2.439.171-5.42,1.4-7.232-.9.637.808,2.922,7.332,3.462,8.51a41.879,41.879,0,0,0,4.247,7.52,84.788,84.788,0,0,0,9.988,11.264c1.575,1.488,4.875,6.715,6.94,7.088a42.805,42.805,0,0,1-9.121-2.722,35.625,35.625,0,0,0,7.657,8.412,95.917,95.917,0,0,1-12.459-5.051l-4.573-2.108c1.159.534,2.637,6.52,3.163,7.819,1.043,2.58,1.866,5.217,2.773,7.85C213.025,288.822,214.649,294.981,217.759,300.269Z" transform="translate(-21.001 15.846)" fill="#978bd1"/>
                <path id="Path_79" data-name="Path 79" d="M170,249.527s.289-.353.822-.94,1.292-1.417,2.2-2.418l6.773-7.161c2.48-2.585,4.961-5.171,6.821-7.112.956-.957,1.751-1.756,2.31-2.315s.9-.867.9-.867-.884,1.591-2.439,3.821A69.666,69.666,0,0,1,173.7,246.9C171.545,248.566,170,249.527,170,249.527Z" transform="translate(-27.028 36.505)" fill="#48357e"/>
              </g>
              <g id="tree2"  class="tree">
                <path id="Path_3" data-name="Path 3" d="M373.3,422.178A28.976,28.976,0,0,1,360.8,419.77c9.112.872,17.814-3.553,25.925-7.852-10.726.613-21.97.943-31.65-3.782a45.912,45.912,0,0,1-9.767-6.694,77.15,77.15,0,0,1-14.653-16.964,40.464,40.464,0,0,0,18.6,2.251,20.682,20.682,0,0,1-8.32-6.437,70.365,70.365,0,0,0,21.707,1.4,43.766,43.766,0,0,1-11.533-5.159,55.811,55.811,0,0,0,20.09.609c-9.883.009-19.051-4.863-27.742-9.638-7.617-4.184-15.507-8.6-20.214-15.975a54.186,54.186,0,0,0,9.666,3.349,26.243,26.243,0,0,1-7.272-10.163,31.907,31.907,0,0,0,9.645,3.058,23.667,23.667,0,0,1-7.213-6.068,44.635,44.635,0,0,1,8.658,2.63,17.1,17.1,0,0,1-3.81-4.8c5.053,2.211,11.07,3.539,16.43,4.806a126.488,126.488,0,0,1-13.241-7.972,44.111,44.111,0,0,1-7.234-5.925,45.81,45.81,0,0,1-6.674-9.857,146.03,146.03,0,0,1-13.14-33.157,36.694,36.694,0,0,0,20.865,9.347,23.343,23.343,0,0,1-8.907-6,59.5,59.5,0,0,0,14.061,3,40.269,40.269,0,0,1-12.969-10l12.08,4.658c-11.674-14.95-23.455-30.076-31.411-47.357l10.721,5.544a18.109,18.109,0,0,1-6.19-8.734q5.2,2.473,10.451,4.839c-4-2.893-7.016-6.973-9.577-11.224a163.027,163.027,0,0,1-8.862-17.859q-5.2-11.655-10.405-23.31v-.03l-.007.014-.007-.014v.03q-5.2,11.655-10.405,23.31a163.038,163.038,0,0,1-8.862,17.859c-2.56,4.251-5.579,8.331-9.577,11.224q5.248-2.366,10.451-4.839a18.12,18.12,0,0,1-6.19,8.734l10.721-5.544c-7.956,17.281-19.737,32.407-31.411,47.357l12.08-4.658a40.269,40.269,0,0,1-12.969,10,59.5,59.5,0,0,0,14.061-3,23.342,23.342,0,0,1-8.907,6,36.694,36.694,0,0,0,20.865-9.347,146.117,146.117,0,0,1-13.14,33.157,45.877,45.877,0,0,1-6.674,9.857,44.113,44.113,0,0,1-7.234,5.925,126.663,126.663,0,0,1-13.241,7.972c5.359-1.267,11.375-2.6,16.43-4.806a17.1,17.1,0,0,1-3.81,4.8,44.635,44.635,0,0,1,8.658-2.63,23.689,23.689,0,0,1-7.213,6.068,31.907,31.907,0,0,0,9.645-3.058,26.261,26.261,0,0,1-7.272,10.163,54.185,54.185,0,0,0,9.666-3.349c-4.707,7.375-12.6,11.791-20.214,15.975-8.691,4.775-17.859,9.647-27.742,9.638a55.812,55.812,0,0,0,20.09-.609,43.791,43.791,0,0,1-11.533,5.159,70.368,70.368,0,0,0,21.707-1.4,20.676,20.676,0,0,1-8.322,6.437,40.468,40.468,0,0,0,18.6-2.251,77.149,77.149,0,0,1-14.653,16.964,45.913,45.913,0,0,1-9.767,6.694c-9.68,4.726-20.924,4.4-31.65,3.782,8.111,4.3,16.813,8.724,25.925,7.852a28.981,28.981,0,0,1-12.508,2.407,50.225,50.225,0,0,0,28.56,6.383,62.993,62.993,0,0,1-9.519,3.793c15.714-.447,30.231,8.421,45.817,10.508a61.124,61.124,0,0,0,19.547-.691,61.124,61.124,0,0,0,19.547.691c15.586-2.087,30.1-10.956,45.817-10.508a62.994,62.994,0,0,1-9.52-3.793A50.225,50.225,0,0,0,373.3,422.178Z" transform="translate(-11.419 8.052)" fill="#5a3bb2"/>
                <path id="Path_5" data-name="Path 5" d="M254.407,201.239S269.573,225.806,273,231.5a163.027,163.027,0,0,1-8.862-17.859q-5.2-11.655-10.405-23.31v-.03l-.007.014-.007-.014v.03q-5.2,11.655-10.405,23.31c-1.533,3.434-3.084,6.867-4.75,10.237C243.012,215.327,250.056,204.285,254.407,201.239Z" transform="translate(23.751 8.053)" fill="#c1bbef"/>
                <path id="Path_61" data-name="Path 61" d="M242.934,231.766a20.545,20.545,0,0,1-.846,3.274,28.7,28.7,0,0,1-1.286,3.215,38.063,38.063,0,0,1-1.89,3.493,32.52,32.52,0,0,1-4.616,5.812,20.478,20.478,0,0,1-2.567,2.2s.7-1.171,1.793-2.835,2.531-3.868,3.915-6.1,2.733-4.486,3.748-6.2S242.934,231.766,242.934,231.766Z" transform="translate(18.687 38.765)" fill="#48357e"/>
                <path id="Path_62" data-name="Path 62" d="M241.148,239.763a4.573,4.573,0,0,1-.195,1.264,7.683,7.683,0,0,1-3.07,4.216,4.627,4.627,0,0,1-1.145.571,5.946,5.946,0,0,1,.378-1.211,11.348,11.348,0,0,1,1.265-2.225,11.553,11.553,0,0,1,1.734-1.885A6.138,6.138,0,0,1,241.148,239.763Z" transform="translate(22.397 44.688)" fill="#48357e"/>
                <path id="Path_63" data-name="Path 63" d="M241.142,250.875a5.17,5.17,0,0,1-.021,1.459,8.766,8.766,0,0,1-2.912,5.34,5.2,5.2,0,0,1-1.217.806,8.9,8.9,0,0,1,.4-1.38,20.922,20.922,0,0,1,2.809-5.14A9.072,9.072,0,0,1,241.142,250.875Z" transform="translate(22.586 52.918)" fill="#48357e"/>
                <path id="Path_64" data-name="Path 64" d="M252.559,273.664s.762.75,1.793,1.862,2.4,2.574,3.812,3.981,2.851,2.783,3.965,3.829,1.852,1.8,1.852,1.8a12.092,12.092,0,0,1-2.43-.985,19.153,19.153,0,0,1-4.62-3.419,22.175,22.175,0,0,1-1.991-2.35,17.057,17.057,0,0,1-1.4-2.287A12.052,12.052,0,0,1,252.559,273.664Z" transform="translate(34.115 69.796)" fill="#48357e"/>
                <path id="Path_65" data-name="Path 65" d="M252.99,279.508s.651.343,1.48.862,1.913,1.2,2.992,1.847,2.169,1.293,3.022,1.8,1.445.917,1.445.917a5.727,5.727,0,0,1-1.76.031,9.2,9.2,0,0,1-3.61-1.262,10.8,10.8,0,0,1-1.626-1.255,8.164,8.164,0,0,1-1.156-1.366A5.662,5.662,0,0,1,252.99,279.508Z" transform="translate(34.434 74.124)" fill="#48357e"/>
                <path id="Path_66" data-name="Path 66" d="M249.5,288.127l.79.75c.493.477,1.194,1.159,2.037,1.977,1.676,1.631,3.936,3.735,6.291,5.725s4.8,3.88,6.679,5.267c.947.7,1.734,1.278,2.285,1.685l.869.658a24.067,24.067,0,0,1-3.673-1.49,32.285,32.285,0,0,1-3.537-2.009,36.237,36.237,0,0,1-7.107-6.026,33.061,33.061,0,0,1-2.56-3.161A24.17,24.17,0,0,1,249.5,288.127Z" transform="translate(31.848 80.508)" fill="#48357e"/>
                <path id="Path_67" data-name="Path 67" d="M254.5,298.247a4.763,4.763,0,0,1,1.07.1,7.466,7.466,0,0,1,3.673,1.923,4.618,4.618,0,0,1,.688.825,3.413,3.413,0,0,1-1.086.092,5.329,5.329,0,0,1-3.8-2A3.422,3.422,0,0,1,254.5,298.247Z" transform="translate(35.554 88.001)" fill="#48357e"/>
                <path id="Path_68" data-name="Path 68" d="M234.31,290.523a10.189,10.189,0,0,1-1.516,1.88,14.5,14.5,0,0,1-1.878,1.6,18.877,18.877,0,0,1-2.432,1.459,16.147,16.147,0,0,1-5.07,1.5A10.274,10.274,0,0,1,221,297s.877-.44,2.153-1,2.942-1.3,4.571-2.1,3.243-1.638,4.473-2.3S234.31,290.523,234.31,290.523Z" transform="translate(10.741 82.282)" fill="#48357e"/>
              </g>
              <g id="tree3"  class="tree">
                <path id="Path_2" data-name="Path 2" d="M445.755,410.174a36.529,36.529,0,0,1-12.506-1.862c9.11.675,17.812-2.747,25.925-6.071-10.727.473-21.972.729-31.651-2.926a48.261,48.261,0,0,1-9.767-5.178A67.312,67.312,0,0,1,403.1,381.017a51.6,51.6,0,0,0,18.6,1.741,20.875,20.875,0,0,1-8.322-4.976,90.645,90.645,0,0,0,21.709,1.077,50.842,50.842,0,0,1-11.535-3.99,71.918,71.918,0,0,0,20.09.472c-9.883.005-19.051-3.761-27.742-7.453-7.615-3.236-15.507-6.651-20.212-12.357a65.471,65.471,0,0,0,9.664,2.592,21.4,21.4,0,0,1-7.272-7.861,39.012,39.012,0,0,0,9.645,2.366,23.283,23.283,0,0,1-7.213-4.694,54.922,54.922,0,0,1,8.658,2.035,14.449,14.449,0,0,1-3.81-3.709c5.055,1.709,11.07,2.736,16.431,3.716a137.82,137.82,0,0,1-13.241-6.165,43.861,43.861,0,0,1-7.236-4.581,36.558,36.558,0,0,1-6.672-7.624A99.758,99.758,0,0,1,381.5,305.962a42.388,42.388,0,0,0,20.865,7.229,24.581,24.581,0,0,1-8.907-4.641,74.878,74.878,0,0,0,14.061,2.318,40.721,40.721,0,0,1-12.969-7.735l12.08,3.6c-11.673-11.563-23.453-23.262-31.41-36.624L385.94,274.4a14.7,14.7,0,0,1-6.188-6.755q5.2,1.911,10.449,3.742a32.258,32.258,0,0,1-9.577-8.68,117.441,117.441,0,0,1-8.862-13.812q-5.2-9.013-10.405-18.028v-.021l-.007.01-.005-.01v.021q-5.2,9.016-10.405,18.028a117.46,117.46,0,0,1-8.863,13.812,32.23,32.23,0,0,1-9.575,8.68q5.248-1.83,10.449-3.742a14.7,14.7,0,0,1-6.19,6.755l10.72-4.287c-7.956,13.363-19.737,25.061-31.41,36.624l12.08-3.6a40.729,40.729,0,0,1-12.971,7.735,74.9,74.9,0,0,0,14.063-2.318,24.6,24.6,0,0,1-8.909,4.641,42.4,42.4,0,0,0,20.867-7.229A99.761,99.761,0,0,1,328.059,331.6a36.607,36.607,0,0,1-6.672,7.624,43.864,43.864,0,0,1-7.236,4.581,137.817,137.817,0,0,1-13.241,6.165c5.361-.98,11.377-2.007,16.432-3.716a14.484,14.484,0,0,1-3.812,3.709,55.011,55.011,0,0,1,8.658-2.035,23.263,23.263,0,0,1-7.213,4.694,38.975,38.975,0,0,0,9.645-2.366,21.384,21.384,0,0,1-7.272,7.861,65.436,65.436,0,0,0,9.666-2.592c-4.707,5.706-12.6,9.121-20.214,12.357-8.689,3.692-17.859,7.459-27.74,7.453a71.906,71.906,0,0,0,20.089-.472,50.8,50.8,0,0,1-11.533,3.99,90.626,90.626,0,0,0,21.707-1.077,20.868,20.868,0,0,1-8.32,4.976,51.59,51.59,0,0,0,18.6-1.741,67.311,67.311,0,0,1-14.653,13.119,48.293,48.293,0,0,1-9.765,5.178c-9.681,3.655-20.926,3.4-31.652,2.926,8.113,3.325,16.813,6.747,25.925,6.071a36.539,36.539,0,0,1-12.508,1.862,62.579,62.579,0,0,0,28.56,4.936,74.883,74.883,0,0,1-9.519,2.931c15.714-.345,30.233,6.513,45.817,8.129a78.832,78.832,0,0,0,19.547-.536,78.843,78.843,0,0,0,19.549.536c15.584-1.615,30.1-8.473,45.815-8.129a74.973,74.973,0,0,1-9.519-2.931A62.575,62.575,0,0,0,445.755,410.174Z" transform="translate(42.239 38.083)" fill="#5a3bb2"/>
                <path id="Path_48" data-name="Path 48" d="M321.565,243.619a5.464,5.464,0,0,1-.082,1.469,9.5,9.5,0,0,1-1.053,2.924,9.394,9.394,0,0,1-1.95,2.421,5.51,5.51,0,0,1-1.215.832,8.409,8.409,0,0,1,.392-1.4,19.1,19.1,0,0,1,2.917-5.184A8.824,8.824,0,0,1,321.565,243.619Z" transform="translate(82.038 47.544)" fill="#48357e"/>
                <path id="Path_49" data-name="Path 49" d="M322.377,244.124s.743.841,1.7,2.148,2.188,3.065,3.375,4.842,2.329,3.586,3.157,4.985,1.318,2.4,1.318,2.4a16.816,16.816,0,0,1-2.1-1.784A29.34,29.34,0,0,1,326,252.077a29.637,29.637,0,0,1-2.8-5.323A16.785,16.785,0,0,1,322.377,244.124Z" transform="translate(85.824 47.918)" fill="#48357e"/>
                <path id="Path_50" data-name="Path 50" d="M319.46,261.629a19.334,19.334,0,0,1-1.043,2.52,26.109,26.109,0,0,1-3.2,5.046,21.4,21.4,0,0,1-2.256,2.315,14.423,14.423,0,0,1-2.3,1.65,10.21,10.21,0,0,1-1.809.856c-.458.16-.722.233-.722.233s.769-.752,1.922-1.882c1.121-1.117,2.5-2.663,3.824-4.282s2.653-3.269,3.716-4.486A25.061,25.061,0,0,1,319.46,261.629Z" transform="translate(75.268 60.883)" fill="#48357e"/>
                <path id="Path_51" data-name="Path 51" d="M315.088,267.881a4.022,4.022,0,0,1-.263.983,6.014,6.014,0,0,1-2.52,2.945,4.025,4.025,0,0,1-.933.407,3.282,3.282,0,0,1,.141-1.018,4.888,4.888,0,0,1,2.592-3.02A3.208,3.208,0,0,1,315.088,267.881Z" transform="translate(77.672 65.513)" fill="#48357e"/>
                <path id="Path_52" data-name="Path 52" d="M319.287,264.521s.533,1.037,1.208,2.566,1.567,3.56,2.477,5.566,1.843,4.03,2.534,5.54,1.123,2.6,1.123,2.6a15.545,15.545,0,0,1-1.972-2.078,25.117,25.117,0,0,1-5.114-11.345A15.473,15.473,0,0,1,319.287,264.521Z" transform="translate(83.534 63.025)" fill="#48357e"/>
                <path id="Path_53" data-name="Path 53" d="M324.251,267.75a10.324,10.324,0,0,1,1.083,1.307,22.689,22.689,0,0,1,1.814,3.072,22.292,22.292,0,0,1,1.309,3.318,10.089,10.089,0,0,1,.364,1.659,7.835,7.835,0,0,1-1.239-1.175,14.317,14.317,0,0,1-3.163-6.482A7.792,7.792,0,0,1,324.251,267.75Z" transform="translate(87.21 65.416)" fill="#48357e"/>
                <path id="Path_54" data-name="Path 54" d="M328.2,264.295s.963.627,2.265,1.662,2.989,2.456,4.627,3.918,3.232,2.978,4.4,4.171,1.9,2.073,1.9,2.073a18.527,18.527,0,0,1-2.513-1.286,32.954,32.954,0,0,1-9.121-8.181A18.279,18.279,0,0,1,328.2,264.295Z" transform="translate(90.137 62.857)" fill="#48357e"/>
                <path id="Path_55" data-name="Path 55" d="M317.812,286.381a11.8,11.8,0,0,1-.922,2.144,20.445,20.445,0,0,1-6.83,7.4,12.009,12.009,0,0,1-2.066,1.09s.531-.794,1.4-1.84,2.056-2.39,3.262-3.7,2.453-2.594,3.434-3.546S317.812,286.381,317.812,286.381Z" transform="translate(75.171 79.215)" fill="#48357e"/>
                <path id="Path_56" data-name="Path 56" d="M316.232,291.791a3.583,3.583,0,0,1-.245.879,4.822,4.822,0,0,1-.917,1.417,4.745,4.745,0,0,1-1.368.989,3.483,3.483,0,0,1-.865.289,2.7,2.7,0,0,1,.092-.923,3.734,3.734,0,0,1,.881-1.554,3.773,3.773,0,0,1,1.509-.956A2.643,2.643,0,0,1,316.232,291.791Z" transform="translate(78.752 83.22)" fill="#48357e"/>
                <path id="Path_57" data-name="Path 57" d="M322.865,290.255a9.875,9.875,0,0,1,1.156,1.206,20.942,20.942,0,0,1,3.452,6.077,9.773,9.773,0,0,1,.44,1.612,7.743,7.743,0,0,1-1.286-1.079,14.083,14.083,0,0,1-3.492-6.158A7.682,7.682,0,0,1,322.865,290.255Z" transform="translate(86.185 82.084)" fill="#48357e"/>
                <path id="Path_58" data-name="Path 58" d="M322.521,294.757a2.189,2.189,0,0,1,.707.052,1.994,1.994,0,0,1,1.011.592,1.958,1.958,0,0,1,.453,1.081,2.153,2.153,0,0,1-.044.71,2.2,2.2,0,0,1-.708-.052,1.968,1.968,0,0,1-1.01-.594,2,2,0,0,1-.453-1.081A2.2,2.2,0,0,1,322.521,294.757Z" transform="translate(85.889 85.411)" fill="#48357e"/>
                <path id="Path_59" data-name="Path 59" d="M294.837,316.349s1.053-.653,2.668-1.45c1.61-.815,3.758-1.8,5.746-2.983a33.337,33.337,0,0,0,5.173-3.734c1.33-1.168,2.219-2.028,2.219-2.028a11.392,11.392,0,0,1-1.478,2.7,16.371,16.371,0,0,1-5.034,4.566,22.946,22.946,0,0,1-6.289,2.419A22.333,22.333,0,0,1,294.837,316.349Z" transform="translate(65.427 93.859)" fill="#48357e"/>
                <path id="Path_60" data-name="Path 60" d="M300.495,316.043a7.737,7.737,0,0,1,.853-.992,16.569,16.569,0,0,1,4.266-3.057,7.5,7.5,0,0,1,1.217-.484,4.442,4.442,0,0,1-.54,1.22,7.211,7.211,0,0,1-1.92,2.037,7.288,7.288,0,0,1-2.548,1.158A4.361,4.361,0,0,1,300.495,316.043Z" transform="translate(69.617 97.826)" fill="#48357e"/>
                <path id="Path_73" data-name="Path 73" d="M361.681,255.993c-1.469-2.345-2.848-4.728-4.221-7.109q-5.2-9.013-10.418-18.028-5.2,9.016-10.405,18.028a117.455,117.455,0,0,1-8.863,13.812,32.23,32.23,0,0,1-9.575,8.681q5.248-1.83,10.449-3.742a14.7,14.7,0,0,1-6.19,6.755l10.72-4.287c-7.956,13.363-19.737,25.062-31.41,36.624l12.08-3.6a40.73,40.73,0,0,1-12.971,7.735,74.89,74.89,0,0,0,14.062-2.318,24.6,24.6,0,0,1-8.909,4.641,42.394,42.394,0,0,0,20.867-7.229A99.762,99.762,0,0,1,313.756,331.6a36.607,36.607,0,0,1-6.672,7.624,43.86,43.86,0,0,1-7.236,4.581,137.813,137.813,0,0,1-13.241,6.165c5.361-.98,11.377-2.007,16.432-3.716a14.484,14.484,0,0,1-3.812,3.709,55.017,55.017,0,0,1,8.658-2.035,23.264,23.264,0,0,1-7.213,4.694,38.976,38.976,0,0,0,9.645-2.366,21.384,21.384,0,0,1-7.272,7.861,65.428,65.428,0,0,0,9.666-2.592c-4.707,5.706-12.6,9.121-20.214,12.357-3.15,1.339-6.367,2.682-9.655,3.857A41.932,41.932,0,0,0,293.9,369.7c2.31-.761,4.547-1.72,6.781-2.679a35.29,35.29,0,0,0,4.6-2.247,23.607,23.607,0,0,0,7.885-8.64,70.594,70.594,0,0,0,4.64-10.856,37.433,37.433,0,0,1-7.56,3.429,15.767,15.767,0,0,0,4.961-5.7A23.866,23.866,0,0,1,307,345.432a15.368,15.368,0,0,0,4.016-3.3,11.487,11.487,0,0,1-5.523.191c.983.226,3.116-1.121,3.946-1.591a15.331,15.331,0,0,0,3.18-2.355,38.545,38.545,0,0,0,5.438-6.665,93.988,93.988,0,0,0,7.217-14.247c1.974-4.529,4.63-8.731,5.426-13.7l.082-.507c-4.285,1.916-14.807,4.607-18.184,4.219,2.938-3.372,3.826-6.146,5.767-7.506-2.054.877-4.729.87-6.962.87,3.943-2.969,16.183-17.974,18.1-21.142,2.421-3.991,5.041-8.388,7.462-12.378a19.61,19.61,0,0,1-7.379,1.3q1.838-3.091,3.678-6.181c-1.363.637-4.594,3.629-6.092,3.479,1.88-1.312,17.685-25,19.909-28.611,2.324,3.716,6.613,10.287,9.627,13.467q1.995,2.107,3.991,4.212C361.026,255.327,361.354,255.659,361.681,255.993Z" transform="translate(56.542 38.092)" fill="#978bd1"/>
              </g>
              <path id="Path_6" data-name="Path 6" d="M633.578,468.085A30.305,30.305,0,0,0,652.3,475.5c-9.356-3.163-15.22-14.915-21.408-25.58-5.413-9.4-11.189-18.816-13.53-32.094a47.561,47.561,0,0,0,8.4,7.6,64.686,64.686,0,0,1-4.15-18.731,25.591,25.591,0,0,0,8.7,6.837,38.651,38.651,0,0,1-5.587-11.629,30.612,30.612,0,0,1,7.937,5.835A37.749,37.749,0,0,1,630,398.812c4.548,4.5,10.167,7.758,15.133,10.891-3.885-5.041-7.659-10.416-11.344-16.054a78.629,78.629,0,0,1-6.28-11.055,135.831,135.831,0,0,1-5.829-17.3c-5.29-18.2-10.642-35.979-16.322-54.544,6.9,7.728,14.792,12.7,22.6,13.413a30.622,30.622,0,0,1-9.989-9.366,42.591,42.591,0,0,0,14.586,3.647,64.972,64.972,0,0,1-15.2-15.6q6.6,3.016,13.156,6.325c-3.551-5.758-7.241-11.354-11.02-16.86l9.471-1.114c1.182-5.159-5.927-7.9-11.218-8-1.544-.028-3.09-.019-4.637.007-10.62-14.807-24.27-40.837-19.84-39.1A39.239,39.239,0,0,1,582.2,232.694q6.389,1.841,12.759,3.774c-5.516-3.213-10.905-8.435-16.177-13.857-7.049-7.26,1.459-37.305-12.729-33.721-.023-17.307-21.474-27.192-34.706-38.348-14.7-12.393-31.826-21.516-48.805-30.541-30.962-16.458-62.471-33.115-96.834-40.1a184.584,184.584,0,0,0-132.456,23.706l-69.392,38.282c-10.1,4.188,8.059,24.205-.62,30.854-3.748,2.872-7.633,6.538-7.782,11.258a11.23,11.23,0,0,0,3.069,7.6c2.188,2.473-10.1,23.749-17.149,31.009-.077.08-.157.158-.233.238-1.074-.04-2.15-.059-3.229-.044-10.454.157-20.733,3.029-30.285,7.157-6.71,2.9-37.672,18.633-12.914,19.8,13.42.63,26.6-4.334,39.886-3.191-15.8,20.646-31.326,40.5-44.953,62.6q6.548-3.311,13.156-6.325a65,65,0,0,1-15.2,15.6A42.591,42.591,0,0,0,122.2,314.8a30.657,30.657,0,0,1-9.989,9.366c7.8-.708,15.693-5.685,22.6-13.413-5.68,18.565-11.032,36.342-16.322,54.544a135.836,135.836,0,0,1-5.829,17.3,78.636,78.636,0,0,1-6.28,11.055c-3.685,5.638-7.459,11.013-11.344,16.054,4.966-3.133,10.585-6.386,15.133-10.891a37.753,37.753,0,0,1-2.663,8.935,30.6,30.6,0,0,1,7.936-5.835,38.612,38.612,0,0,1-5.586,11.629,25.591,25.591,0,0,0,8.7-6.837,64.687,64.687,0,0,1-4.15,18.731,47.56,47.56,0,0,0,8.4-7.6c-2.341,13.277-8.117,22.7-13.53,32.094-6.188,10.665-12.052,22.418-21.408,25.58a30.305,30.305,0,0,0,18.724-7.419A45.285,45.285,0,0,1,98.742,481.1a40.037,40.037,0,0,0,19.631-9.7c-.4,5.352-1.735,10.661-3.855,14,6.312-1.008,11.756-4.722,15.989-10.414a278.914,278.914,0,0,1-1.857,34.04,73.79,73.79,0,0,1-3.271,15.674c-4.461,12.532-14.412,17.586-24.471,21.572,11.316,4.05,23.267,7.144,30.193.943-1.683,4.91-4.472,8.6-8.258,10.607,12.482,3.972,23.25,1.864,30.658-4.787a62.774,62.774,0,0,1-3.906,11.366c11.678-8.733,30.873-5.037,45.138-10.118,27.81,13.413,61.265,27.159,74.339,31.8,17.335,6.155,36.12-.841,54.335-3.406,10.211-1.438,20.6-1.332,30.785-2.914,16.877-2.618,33.082-9.836,50.161-9.828,16.536.009,33.107,6.82,49.251,3.248,12.94-2.863,23.57-12,33.876-20.068a10.8,10.8,0,0,0,2.668-3.06,59.544,59.544,0,0,1,9.882-.47c27.06,1.137,31.3-2.421,28.971-7.452a36.805,36.805,0,0,0,13.415,10.909c14.461,6.931,35.632,1.995,48.156,11.359a62.775,62.775,0,0,1-3.906-11.366c7.408,6.651,18.176,8.759,30.658,4.787-3.786-2.005-6.574-5.7-8.257-10.607,6.926,6.2,18.877,3.107,30.193-.943-10.059-3.986-20.01-9.039-24.471-21.572a73.8,73.8,0,0,1-3.271-15.674,278.908,278.908,0,0,1-1.857-34.04c4.231,5.692,9.678,9.406,15.989,10.414-2.12-3.34-3.457-8.649-3.855-14a40.037,40.037,0,0,0,19.631,9.7A45.247,45.247,0,0,1,633.578,468.085ZM200.9,210.4q1.418-5.935,3.149-11.9a10.084,10.084,0,0,1,4.473-5.81l.031-.019c9.3-5.654,16.271-14.482,25.237-20.656,21.27-14.649,49.592-12.144,74.42-19.251a24.414,24.414,0,0,0,7.446-3.593c3.859-2.808,2.077-8.755-2.635-9.5l-.165-.028a3.838,3.838,0,0,1-.51-7.394c15.25-5.074,31.953-5.328,48.167-5.476l43.368-.4c5.053-.047,11.349,1.037,14.534,4.251a3.8,3.8,0,0,1-1.086,6.082,25.061,25.061,0,0,0-9.5,7.847,4.279,4.279,0,0,0,4.27,6.674c11.8-2.137,23.761-3.662,35.568-1.9a84.193,84.193,0,0,1,24.426,8.005,3.981,3.981,0,0,1-.9,7.457c-11.5,2.613-22.91,6.2-34.464,4.506-3.976-.581-8.165-1.765-11.841.1a5.665,5.665,0,0,0-3.151,6.4c1.258,4.592,7.566,2.1,8.82,5.89a3.862,3.862,0,0,1-2.867,4.8c-12.856,3.264-26.026-.285-39.112-1.032-15.258-.87-30.449,2.085-45.446,5.027-8.964,1.758-19.967,5.674-20.64,14.783,5.667,3.345,12.87-1.958,19.326-.689,2.738.54,5.109,2.23,7.772,3.063,4.923,1.54,10.217.023,15.173-1.408s10.352-2.757,15.157-.883a10.037,10.037,0,0,1,5.894,7.016,6.812,6.812,0,0,0,6.891,5.21l67.279-1.384c4.674-2.635-6.353-9.9-1.99-14.15a4.244,4.244,0,0,1,3.424-1.048l21.237,2.266c3.339.355,6.846.775,9.57,2.738s4.245,6.024,2.326,8.78c-.839,1.2-2.292,2.221-2.2,3.687.085,1.342,1.453,2.195,2.7,2.688,8.581,3.38,18.205.536,27.429.581,1.72.007,3.466.113,5.211.212a16.81,16.81,0,0,1,15.848,16.151l.007.172c.252,6.741-.311,13.347-2.581,18.583q3.7-4.989,7.126-10.31a25.463,25.463,0,0,1-1.178,14.028q3.689-5.535,7.166-11.321a132.775,132.775,0,0,1-.813,27.465c-11.1-3.392-22.325-6.58-33.78-6.409-10.454.157-20.733,3.029-30.285,7.157-6.71,2.9-37.672,18.633-12.914,19.8,14.663.688,29.041-5.325,43.583-2.724a4.185,4.185,0,0,1,3.229,2.614c1.361,3.815-4.722,5.333-2.414,9.76a7.082,7.082,0,0,0,6.413,3.64l17.766-.2q-1.961,5.423-4.153,10.611,5.564-3.833,11.02-7.93A37.606,37.606,0,0,1,540.7,327.993,42.83,42.83,0,0,0,554.2,322.4a22.238,22.238,0,0,1-7.955,9.02c7.553-1.72,14.552-6.959,19.183-15.227a132.373,132.373,0,0,1-10.3,47.058,52.393,52.393,0,0,1-7.293,12.948,41.007,41.007,0,0,1-7.88,7.107,83.749,83.749,0,0,1-14.355,8.357c5.521-.775,11.714-1.615,17.074-3.883a20.392,20.392,0,0,1-4.585,5.7,40.939,40.939,0,0,1,9.039-2.228,24.141,24.141,0,0,1-8.278,6.872,24.9,24.9,0,0,0,10.137-2.517,31.874,31.874,0,0,1-9.439,12.111,40.312,40.312,0,0,0,9.753-2.376c-.7,1.1-1.44,2.164-2.2,3.208-6.144,6.677-13.969,9.932-21.469,12.66-9.939,3.657-20.433,6.362-29.831,3.3a46.918,46.918,0,0,0,19.364,5.4,35.543,35.543,0,0,1-12.881,2.282,57.722,57.722,0,0,0,14.74,4.686c-.949,1.735-1.835,3.525-2.679,5.349a13.955,13.955,0,0,1-1.513.249c.371.2.755.381,1.135.569-1.95,4.3-3.706,8.757-5.607,13.088a13.664,13.664,0,0,1-11.314,8.277l-.082.007c-11.251.775-20.917-5.117-30.116-10.639,5.088,7.8,9.989,16.656,18.362,20.379A24.167,24.167,0,0,1,473,470.239a53.954,53.954,0,0,0,9.17,13.337c-6.118,2.656-12.275,5.173-16.548,10.162-2.566,3-4.233,6.679-6.825,9.653-5.077,5.831-12.687,8.033-20.569,8.976-5.237-4.038-6.867-12.306-13.105-14.545-2.86-1.027-5.942-.461-9.013-.207-.56-6.5-2.256-25.227-3.509-29.525-1.523-5.222,3.916-25.239,2.176-37.423-.614-4.3-1.554-10.552-2.512-16.841.392.141.792.254,1.189.376-14.445-4.4-25.295-22.861-25.295-45,0-25.413,14.287-46.017,31.913-46.017a22.4,22.4,0,0,1,3.577.3c-16.532,2.618-29.4,22.816-29.4,47.354,0,19.363,8.016,36.014,19.516,43.469a22.551,22.551,0,0,0,6.3.917c17.624,0,31.911-20.6,31.911-46.017,0-17.485-6.775-32.658-16.733-40.442a16.447,16.447,0,0,0-1.507-9.33,20.4,20.4,0,0,0-4.449-5.995,27.062,27.062,0,0,0-5.572-4.017c-1.368-.752-2.794-1.413-4.174-2.052a31.4,31.4,0,0,1-6.6-3.711,45.038,45.038,0,0,0,10.311,3.433c1.107.249,2.224.48,3.345.712,5.185,1.076,10.083,2.091,14.209,4.658a33.7,33.7,0,0,1,7.265,6.56,2.283,2.283,0,0,0,3.191.225l.491-.418a2.293,2.293,0,0,0,.228-3.265c-1.123-1.272-2.3-2.534-3.556-3.725a30.729,30.729,0,0,0-4.862-3.812c-4.912-3.057-10.5-4.214-15.906-5.337-1.095-.225-2.186-.451-3.269-.694a41.584,41.584,0,0,1-8.574-2.755,29.733,29.733,0,0,0,1.56-3.173,18.35,18.35,0,0,0,7.143-3.26,11.765,11.765,0,0,0,2.743-3.453,2.294,2.294,0,0,0-2.272-3.406,3.915,3.915,0,0,1-1.887-.1c3.088-25.312-16.959-27.222-16.959-27.222s-19.632-4.487-24.656,20.513a3.919,3.919,0,0,1-1.821-.5,2.3,2.3,0,0,0-3.229,2.515,11.766,11.766,0,0,0,1.52,4.144,18.338,18.338,0,0,0,5.758,5.34s.632,11.133,6.811,15.217a12.122,12.122,0,0,1-2.313,4.86,35.4,35.4,0,0,0-8.762-.874s-33.072,2.9-47.867,7.544c0,0-20.6-8.414-22.628-11.025s-.58-7.288-4.352-11.06c-3.643-3.643-7.676-4.447-9.777-2.275l-1.218-5.586.555-.122a2.189,2.189,0,0,0,1.671-2.606l-.277-1.271.4-.087a5.331,5.331,0,0,0,3.89-3.438l1.962-5.57-3.121,2.493a.74.74,0,0,1-1.191-.708l.587-3.3A7.538,7.538,0,0,0,293.8,275.5a6.216,6.216,0,0,1-2.4,1.822l-20.066-91.9-6.513-9.25-2.064,11.123,20.05,91.825a6.209,6.209,0,0,1-2.618-.649,7.546,7.546,0,0,0-5.006-.639l1.909,2.754a.739.739,0,0,1-.787,1.138l-3.876-.964,4.1,4.245a5.327,5.327,0,0,0,4.969,1.5l.4-.087.277,1.271a2.191,2.191,0,0,0,2.608,1.673l.247-.054.707,3.243c-3.274,1.208-6.43,2.813-6.517,4.884-.144,3.481,2.176,3.916,2.176,3.916s-1.45,3.953,1.306,4.97a3.034,3.034,0,0,0,2.32,4.1s-1.45,2.611,2.031,3.335a6.626,6.626,0,0,0,3.271-.2l.823,3.768-.247.054a2.19,2.19,0,1,0,.935,4.278l.247-.054.282,1.3a1.6,1.6,0,0,0,1.908,1.224l.073-.016.014.066a2.816,2.816,0,0,0,2.808,2.275,2.716,2.716,0,0,0,2.526-3.29l-.047-.209.073-.017a1.6,1.6,0,0,0,1.224-1.906l-.282-1.3.555-.12a2.19,2.19,0,1,0-.935-4.278l-.555.12-.741-3.4c1.748.442,3.6,1.006,4.75,1.413,2.466.87,19.438,19,27.706,20.741s9.718,0,9.718,0l19.873-.145s6.527,14.94,4.207,27.994-2.322,17.988-2.322,17.988-11.676,15.592-26.036,18.639-13.055,10.879-10.009,17.189,14.8,28.5,16.754,36.118.87,11.967.87,11.967-18.929-4.569-24.151,3.7c-.381.606-.707,1.164-1,1.7a40.1,40.1,0,0,0-4.249,2.148c-5.831,3.382-11.622,7.671-18.36,7.9-3.887.132-7.69-1.13-11.575-1.342a24.114,24.114,0,0,0-6.722.611,27.922,27.922,0,0,0-16.724,11.558,16.231,16.231,0,0,1-8.827-2.028,50.517,50.517,0,0,0,14.28-17.967,24.166,24.166,0,0,1-12.207,3.911c8.372-3.723,13.274-12.579,18.362-20.379-9.2,5.521-18.865,11.413-30.116,10.639-.489-.037-.982-.127-1.473-.19a21.141,21.141,0,0,0-7.563-5.427c-3.384-1.4-7.095-1.915-10.44-3.408a23.237,23.237,0,0,1-10.019-9.044,31.3,31.3,0,0,0,13.627-3.871,20.312,20.312,0,0,1-10.543-4.886,55.766,55.766,0,0,0,21.091-5.4A35.537,35.537,0,0,1,225,429.9a46.918,46.918,0,0,0,19.364-5.4c-9.4,3.064-19.892.359-29.831-3.3-8.682-3.156-17.8-7.009-24.24-16.071a40.277,40.277,0,0,0,10.32,2.58,31.873,31.873,0,0,1-9.439-12.111,24.9,24.9,0,0,0,10.137,2.517,24.161,24.161,0,0,1-8.28-6.872,40.93,40.93,0,0,1,9.041,2.228,20.392,20.392,0,0,1-4.585-5.7c5.359,2.268,11.553,3.109,17.074,3.883a83.682,83.682,0,0,1-14.355-8.357,41.008,41.008,0,0,1-7.88-7.107,52.393,52.393,0,0,1-7.293-12.948,132.373,132.373,0,0,1-10.3-47.058c4.63,8.268,11.631,13.507,19.183,15.227a22.237,22.237,0,0,1-7.955-9.02,42.83,42.83,0,0,0,13.493,5.594,37.59,37.59,0,0,1-11.034-14.975q5.454,4.1,11.02,7.93c-6.665-15.782-12.029-33.255-13.389-52.45a5.366,5.366,0,0,1,5.285-5.742h.057c2.757-.031,5.6-.08,8.132-1.161,5.023-2.141,7.741-7.8,12.579-10.336,2.534-1.326,5.448-1.683,8.289-2.017l46.988-5.53c1.182-5.161-5.927-7.9-11.218-8-14.86-.272-29.96,2.451-44.459-.827q-1.974-.446-3.951-.961a12.273,12.273,0,0,1-8.877-14.233C199.477,216.605,200.159,213.5,200.9,210.4Zm158.39,250.3c-4.352-9.138-1.523-15.883-2.611-21.758a79.474,79.474,0,0,0-3.916-12.837s15.666-14.36,23.5-17.189,12.184,16.754,13.055,27.415,7.4,23.716,7.4,23.716-2.393,8.05-1.741,14.578c.458,4.574,3.9,12.452,6.225,18.935a18.044,18.044,0,0,0-8.447-1.969c-5.509.357-11.657,4.519-15.925,1.018-1.563-1.283-2.329-3.323-3.817-4.693-4.907-4.519-9.546-6.09-15.921-7.457-.423-.091-.842-.205-1.265-.306C358.06,476.566,362.671,467.789,359.292,460.693Zm46.835-152.325a10.466,10.466,0,0,0,2.806-1.264,32.331,32.331,0,0,0,8.418,5c1.359.63,2.644,1.225,3.854,1.89a18.337,18.337,0,0,1,7.826,7.692,11.6,11.6,0,0,1,1.064,3.85,24.9,24.9,0,0,0-3.037-1.234,15.208,15.208,0,0,0-9.888-6.994c-3.145-.674-6.334-1.415-9.472-2.16C405.61,312.834,406.127,308.367,406.127,308.367Z" transform="translate(-87.863 -76.344)" fill="#101114"/>
              <path id="Path_7" data-name="Path 7" d="M358.225,191.247c-10.454.157-20.733,3.029-30.285,7.157-5.8,2.5-29.657,14.578-20.1,18.572,4.893-4.874,16.331-10.562,20.1-12.191,9.552-4.127,19.831-7,30.285-7.156,9.634-.144,19.1,2.087,28.475,4.818a4.64,4.64,0,0,0,5.93-4.009,133.455,133.455,0,0,0,.508-15.364,136.246,136.246,0,0,1-1.133,14.581C380.9,194.264,369.68,191.077,358.225,191.247Z" transform="translate(73.403 2.704)" fill="#6f5daf"/>
              <path id="Path_8" data-name="Path 8" d="M294.743,131.951c-3.976-.581-8.165-1.765-11.841.1a5.665,5.665,0,0,0-3.151,6.4,3.776,3.776,0,0,0,1.015,1.758,6.354,6.354,0,0,1,2.136-1.77c3.676-1.862,7.866-.681,11.841-.1,11.554,1.692,22.961-1.894,34.464-4.506a3.956,3.956,0,0,0,1.457-7.067,3.97,3.97,0,0,1-1.457.684C317.7,130.057,306.3,133.644,294.743,131.951Z" transform="translate(54.123 -39.005)" fill="#6f5daf"/>
              <path id="Path_9" data-name="Path 9" d="M160.619,176.985q1.976.512,3.951.961c14.5,3.279,29.6.557,44.459.827a17.52,17.52,0,0,1,7.864,2.009l3.354-.393c1.182-5.161-5.927-7.9-11.218-8-14.86-.272-29.96,2.451-44.459-.827q-1.974-.446-3.951-.961a12.156,12.156,0,0,1-8.691-8.759c-.059.3-.129.606-.186.907A12.272,12.272,0,0,0,160.619,176.985Z" transform="translate(-40.719 -13.02)" fill="#6f5daf"/>
              <path id="Path_10" data-name="Path 10" d="M243.3,150.5c15-2.942,30.188-5.9,45.446-5.027,13.086.747,26.255,4.3,39.112,1.034a3.863,3.863,0,0,0,2.867-4.806,3.144,3.144,0,0,0-1.937-1.955,4.024,4.024,0,0,1-.93.378c-12.856,3.262-26.026-.285-39.112-1.032-15.258-.87-30.449,2.085-45.446,5.027-8.964,1.758-19.967,5.674-20.64,14.783a7.763,7.763,0,0,0,2.021.825C228.375,154.472,236.427,151.846,243.3,150.5Z" transform="translate(11.97 -29.988)" fill="#48357e"/>
              <path id="Path_11" data-name="Path 11" d="M140.748,192.267s.174.411.439,1.138c.247.733.654,1.761,1.069,3.015.846,2.5,1.887,5.847,2.877,9.206s1.906,6.741,2.541,9.3c.327,1.278.538,2.365.724,3.116.169.754.242,1.194.242,1.194s-.851-1.56-1.913-3.991a82.882,82.882,0,0,1-5.438-18.588C140.873,194.039,140.748,192.267,140.748,192.267Z" transform="translate(-48.695 9.512)" fill="#c1bbef"/>
              <path id="Path_12" data-name="Path 12" d="M136.559,203.5a29.817,29.817,0,0,1,1.96,2.533,65.708,65.708,0,0,1,3.674,5.922,64.823,64.823,0,0,1,3.025,6.28,29.64,29.64,0,0,1,1.084,3.013,29.819,29.819,0,0,1-1.96-2.533,65.3,65.3,0,0,1-6.7-12.2A30.377,30.377,0,0,1,136.559,203.5Z" transform="translate(-51.798 17.835)" fill="#6f5daf"/>
              <path id="Path_13" data-name="Path 13" d="M135.245,234.029s.275.486.721,1.349l1.854,3.558c1.518,2.943,3.554,6.841,5.676,10.689s4.312,7.66,5.983,10.52l2.009,3.473c.491.839.752,1.332.752,1.332s-.386-.4-1.027-1.133-1.556-1.784-2.562-3.112c-1.03-1.314-2.155-2.9-3.305-4.644s-2.28-3.659-3.373-5.6c-1.05-1.962-2.063-3.944-2.916-5.849s-1.589-3.706-2.148-5.279c-.581-1.561-.964-2.909-1.255-3.831C135.379,234.57,135.245,234.029,135.245,234.029Z" transform="translate(-52.771 40.441)" fill="#6f5daf"/>
              <path id="Path_14" data-name="Path 14" d="M137.559,249.755a11.355,11.355,0,0,1,1.267,1.175,26.746,26.746,0,0,1,2.289,2.816,26.345,26.345,0,0,1,1.883,3.1,11.264,11.264,0,0,1,.679,1.591,7.708,7.708,0,0,1-1.455-.961,13.95,13.95,0,0,1-4.247-6.031A7.827,7.827,0,0,1,137.559,249.755Z" transform="translate(-51.057 52.088)" fill="#6f5daf"/>
              <path id="Path_15" data-name="Path 15" d="M129.156,250.942s.324.35.855.982,1.292,1.52,2.2,2.592c1.808,2.148,4.231,4.971,6.729,7.723s5.062,5.448,7.018,7.462l2.359,2.453c.576.59.891.947.891.947s-.411-.237-1.105-.686-1.688-1.1-2.808-1.967c-1.138-.846-2.407-1.911-3.721-3.1s-2.635-2.55-3.923-3.937c-1.251-1.42-2.47-2.87-3.526-4.3s-1.988-2.8-2.719-4.012c-.752-1.2-1.288-2.266-1.68-2.989C129.353,251.375,129.156,250.942,129.156,250.942Z" transform="translate(-57.28 52.968)" fill="#c1bbef"/>
              <path id="Path_16" data-name="Path 16" d="M150.78,275.313s1.21.373,2.931.937,4.026,1.26,6.345,1.829,4.668,1.032,6.465,1.339,3.03.541,3.03.541a15.457,15.457,0,0,1-3.086.458,21.066,21.066,0,0,1-3.2-.047,26.772,26.772,0,0,1-3.626-.6,27.122,27.122,0,0,1-3.488-1.161,21.232,21.232,0,0,1-2.853-1.452A15.24,15.24,0,0,1,150.78,275.313Z" transform="translate(-41.265 71.017)" fill="#c1bbef"/>
              <path id="Path_17" data-name="Path 17" d="M151.317,280.246a18.362,18.362,0,0,1,1.878.371c1.09.265,2.489.667,3.873,1.1s2.755.912,3.8,1.323a17.35,17.35,0,0,1,1.749.776,8.215,8.215,0,0,1-1.93.207,13.938,13.938,0,0,1-7.908-2.5A8.157,8.157,0,0,1,151.317,280.246Z" transform="translate(-40.867 74.671)" fill="#6f5daf"/>
              <path id="Path_18" data-name="Path 18" d="M157.6,299.658s.668.155,1.826.468c1.156.332,2.815.707,4.8,1.18.989.249,2.07.473,3.213.7,1.14.247,2.36.416,3.6.67,2.5.419,5.182.816,7.875,1.1s5.391.463,7.929.58c1.269.014,2.5.1,3.664.1,1.166.017,2.272.024,3.29-.01,2.038-.047,3.749-.063,4.942-.143,1.194-.063,1.883-.073,1.883-.073s-.665.164-1.842.409c-1.178.219-2.867.581-4.919.785-2.049.232-4.456.427-7.041.463-1.292-.017-2.63.016-3.984-.082-1.358-.052-2.731-.19-4.106-.3-1.368-.181-2.74-.336-4.077-.571-1.346-.192-2.647-.5-3.913-.757-2.52-.583-4.832-1.276-6.787-1.934-1.962-.63-3.546-1.34-4.646-1.8C158.218,299.957,157.6,299.658,157.6,299.658Z" transform="translate(-36.214 89.048)" fill="#6f5daf"/>
              <path id="Path_19" data-name="Path 19" d="M169.315,308.7s1.077-.24,2.663-.426,3.692-.371,5.795-.489,4.211-.158,5.812-.131,2.694.145,2.694.145a17.037,17.037,0,0,1-2.576.848,30.616,30.616,0,0,1-5.838.876,30.948,30.948,0,0,1-5.9-.252A17.245,17.245,0,0,1,169.315,308.7Z" transform="translate(-27.538 94.961)" fill="#c1bbef"/>
              <path id="Path_20" data-name="Path 20" d="M349.747,155.779a22.372,22.372,0,0,1,1.7,3.236,31.082,31.082,0,0,1,1.307,3.514,34.551,34.551,0,0,1,1.5,8.456,30.569,30.569,0,0,1-.021,3.749,22.308,22.308,0,0,1-.491,3.624s-.231-1.455-.508-3.591-.679-4.956-1.178-7.753-1.081-5.584-1.553-7.69S349.747,155.779,349.747,155.779Z" transform="translate(106.095 -17.512)" fill="#c1bbef"/>
              <path id="Path_21" data-name="Path 21" d="M356.208,165.991a7.915,7.915,0,0,1,.232,1.438,15.931,15.931,0,0,1-.073,3.008,15.74,15.74,0,0,1-.635,2.94,7.6,7.6,0,0,1-.566,1.342,5.931,5.931,0,0,1-.432-1.4,10.358,10.358,0,0,1,.726-6.063A5.809,5.809,0,0,1,356.208,165.991Z" transform="translate(109.665 -9.949)" fill="#6f5daf"/>
              <path id="Path_22" data-name="Path 22" d="M359.487,198.772a9.946,9.946,0,0,1-.1,2.059,17.45,17.45,0,0,1-3.429,8.139,9.925,9.925,0,0,1-1.406,1.506,17.053,17.053,0,0,1,.524-1.974c.362-1.147.916-2.614,1.518-4.057s1.279-2.858,1.847-3.918A17.508,17.508,0,0,1,359.487,198.772Z" transform="translate(109.655 14.329)" fill="#c1bbef"/>
              <path id="Path_23" data-name="Path 23" d="M366.447,196.011s-.294,1.6-.952,3.92-1.641,5.37-2.769,8.367-2.407,5.937-3.464,8.1-1.885,3.568-1.885,3.568.292-1.6.95-3.922c.642-2.324,1.643-5.37,2.771-8.367s2.409-5.936,3.466-8.1S366.447,196.011,366.447,196.011Z" transform="translate(111.745 12.284)" fill="#6f5daf"/>
              <path id="Path_24" data-name="Path 24" d="M354.056,259.28s.983-1.189,2.484-2.87,3.486-3.923,5.419-6.2,3.831-4.581,5.264-6.331,2.442-2.905,2.442-2.905a25.979,25.979,0,0,1-1.614,3.464,41.379,41.379,0,0,1-4.769,6.9c-1.01,1.147-2.047,2.27-3.091,3.251a36.5,36.5,0,0,1-2.971,2.545A26.168,26.168,0,0,1,354.056,259.28Z" transform="translate(109.286 45.587)" fill="#c1bbef"/>
              <path id="Path_25" data-name="Path 25" d="M357.449,262.427l.646-.689c.409-.425.994-1.034,1.694-1.765,1.392-1.453,3.166-3.419,4.811-5.485s3.18-4.223,4.292-5.9c.56-.844,1.027-1.547,1.352-2.04l.531-.78a17.573,17.573,0,0,1-1,3.285,23.619,23.619,0,0,1-1.539,3.173,26.336,26.336,0,0,1-5.048,6.306,23.705,23.705,0,0,1-2.757,2.2A17.469,17.469,0,0,1,357.449,262.427Z" transform="translate(111.799 49.136)" fill="#6f5daf"/>
              <path id="Path_26" data-name="Path 26" d="M337.983,286.9l1.678-.651L344.1,284.6a114.079,114.079,0,0,0,13.095-5.471,50.57,50.57,0,0,0,6.416-3.894,42.3,42.3,0,0,0,5.011-4.224,31.876,31.876,0,0,0,3.079-3.518l1.058-1.45-.193.43c-.134.275-.291.7-.58,1.2a25.071,25.071,0,0,1-2.62,4,31.176,31.176,0,0,1-4.828,4.78,40.338,40.338,0,0,1-6.548,4.219,63.3,63.3,0,0,1-13.6,4.875C340.566,286.466,337.983,286.9,337.983,286.9Z" transform="translate(97.382 64.153)" fill="#6f5daf"/>
              <path id="Path_27" data-name="Path 27" d="M340.832,284.634a16.827,16.827,0,0,1,1.9-1.406,35.044,35.044,0,0,1,9.272-4.19,16.448,16.448,0,0,1,2.313-.5,16.508,16.508,0,0,1-1.9,1.406,35.058,35.058,0,0,1-9.276,4.186A16.768,16.768,0,0,1,340.832,284.634Z" transform="translate(99.492 73.409)" fill="#c1bbef"/>
              <path id="Path_28" data-name="Path 28" d="M319.806,309.59s.632-.115,1.739-.273a43.049,43.049,0,0,0,4.5-.919c.924-.2,1.9-.508,2.943-.8s2.11-.7,3.225-1.067c1.107-.411,2.242-.849,3.384-1.33,1.154-.449,2.291-1,3.438-1.516,2.291-1.053,4.529-2.23,6.639-3.323l5.727-3.1c1.69-.9,3.1-1.654,4.082-2.181s1.568-.8,1.568-.8-.5.407-1.386,1.088c-.9.661-2.158,1.655-3.739,2.743-1.565,1.111-3.443,2.336-5.5,3.582-1.046.6-2.1,1.26-3.231,1.831-1.11.6-2.27,1.166-3.427,1.734-1.184.512-2.353,1.055-3.547,1.5-1.173.487-2.378.846-3.528,1.222a39.406,39.406,0,0,1-6.466,1.4,20.46,20.46,0,0,1-2.635.232c-.787.045-1.466.071-2.024.047C320.447,309.629,319.806,309.59,319.806,309.59Z" transform="translate(83.919 85.065)" fill="#c1bbef"/>
              <path id="Path_29" data-name="Path 29" d="M320.051,309.717a16.676,16.676,0,0,1,2.179-1.323,31.537,31.537,0,0,1,10.534-3.246,16.782,16.782,0,0,1,2.547-.131,22.367,22.367,0,0,1-2.292,1.1c-1.389.592-3.258,1.265-5.152,1.854s-3.824,1.07-5.3,1.363A22.712,22.712,0,0,1,320.051,309.717Z" transform="translate(84.101 93.013)" fill="#6f5daf"/>
              <path id="Path_30" data-name="Path 30" d="M300.772,334.154a14.563,14.563,0,0,0-1.647-1.76,15.283,15.283,0,0,0-5.33-3.171,13.757,13.757,0,0,0-4.009-.783,5.325,5.325,0,0,0-2.035.186c-.541.188-.869.653-1.406,1.387a5.562,5.562,0,0,1-2.263,1.77,10.424,10.424,0,0,1-2.679.733,33.657,33.657,0,0,1-10.726-.059c-1.756-.259-3.457-.778-5.008-1.152a11.238,11.238,0,0,0-4.454-.313,22.623,22.623,0,0,0-4.005,1.067,17.744,17.744,0,0,1-6.308,1.335,6.211,6.211,0,0,1-1.786-.313l-.6-.212.621.12a7.21,7.21,0,0,0,1.758.068,10.666,10.666,0,0,0,2.651-.585c1-.343,2.09-.83,3.318-1.33a23.533,23.533,0,0,1,4.144-1.4,11.437,11.437,0,0,1,4.985.068c1.668.357,3.264.743,4.942.99a34.828,34.828,0,0,0,5.109.381,34.334,34.334,0,0,0,5.107-.322c1.643-.239,3.142-.66,3.991-1.789a12.7,12.7,0,0,1,.844-1,3.085,3.085,0,0,1,1.312-.79,6.547,6.547,0,0,1,2.583-.1,14.9,14.9,0,0,1,4.268,1.135,14.421,14.421,0,0,1,5.215,3.845,11.9,11.9,0,0,1,1.072,1.453Z" transform="translate(31.123 109.369)" fill="#c1bbef"/>
              <path id="Path_31" data-name="Path 31" d="M202.074,322.245a3.253,3.253,0,0,1,.125-.924,5.456,5.456,0,0,1,1.347-2.275,29.592,29.592,0,0,1,3.069-2.728,28.405,28.405,0,0,1,4.44-2.98,15.193,15.193,0,0,1,6.155-1.9,10.768,10.768,0,0,1,3.631.4,10.632,10.632,0,0,1,1.72.694,16.74,16.74,0,0,1,1.624.947c2.091,1.358,3.951,3.05,6.113,4.024a8.748,8.748,0,0,0,1.617.55c.312.052.639.122.938.16l.835.049a14.386,14.386,0,0,0,3.608-.48,67.1,67.1,0,0,1,7.582-1.763,11.776,11.776,0,0,1,2.014-.073l.507.03a2.13,2.13,0,0,1,.294.026l.233.038.923.157a16.307,16.307,0,0,1,3.659,1.392,67.049,67.049,0,0,1,5.916,3.81,16.69,16.69,0,0,0,5.431,2.6,13.333,13.333,0,0,0,5.09,0,9.231,9.231,0,0,1,4.132.16,4.275,4.275,0,0,1,2.2,1.469,2.812,2.812,0,0,1,.439.822,2.788,2.788,0,0,0-.512-.762,4.287,4.287,0,0,0-2.216-1.2,8.784,8.784,0,0,0-3.941.153c-.766.151-1.589.341-2.5.449a7.178,7.178,0,0,1-1.413.035,7.83,7.83,0,0,1-1.478-.16,17.807,17.807,0,0,1-5.908-2.48c-1.936-1.145-3.854-2.47-5.93-3.542a15.181,15.181,0,0,0-3.22-1.189l-.926-.143-.231-.035c.016,0-.12-.007-.174-.009l-.435-.017a10.284,10.284,0,0,0-1.768.092,69.7,69.7,0,0,0-7.373,1.842,11.862,11.862,0,0,1-8.068-.5c-2.472-1.178-4.325-2.952-6.271-4.242a14.9,14.9,0,0,0-1.469-.886,12.181,12.181,0,0,0-1.527-.675,9.583,9.583,0,0,0-3.1-.479,14.145,14.145,0,0,0-5.767,1.507A35.981,35.981,0,0,0,207,316.836a29.175,29.175,0,0,0-3.211,2.446,5.646,5.646,0,0,0-1.5,2.068A3.231,3.231,0,0,0,202.074,322.245Z" transform="translate(-3.277 97.761)" fill="#c1bbef"/>
              <path id="Path_32" data-name="Path 32" d="M275.2,325.142a4.287,4.287,0,0,0-2.216-1.2,8.783,8.783,0,0,0-3.941.153c-.766.151-1.589.341-2.5.449a7.178,7.178,0,0,1-1.413.035,7.828,7.828,0,0,1-1.478-.16,17.809,17.809,0,0,1-5.908-2.48c-1.936-1.145-3.854-2.47-5.93-3.542a15.184,15.184,0,0,0-3.22-1.189l-.926-.143-.231-.035c.016,0-.12-.007-.174-.009l-.435-.017a10.284,10.284,0,0,0-1.768.092,69.717,69.717,0,0,0-7.373,1.842,11.862,11.862,0,0,1-8.068-.5c-2.472-1.178-4.325-2.952-6.271-4.242a15.279,15.279,0,0,0-1.469-.888,12.441,12.441,0,0,0-1.527-.674,9.583,9.583,0,0,0-3.1-.479,14.145,14.145,0,0,0-5.767,1.507A35.978,35.978,0,0,0,207,316.292a29.17,29.17,0,0,0-3.211,2.446,5.646,5.646,0,0,0-1.5,2.068c-.031.089-.052.162-.075.24l-.139.654s7.274-8.942,13.257-7.636,12.837,5.763,17.081,5.763,12.837-1.511,16.318-.482,12.292,5.051,14.033,5.486,9.8-1.3,12.952,1.072A2.789,2.789,0,0,0,275.2,325.142Z" transform="translate(-3.276 98.305)" fill="#6f5daf"/>
            </g>
            <g id="Group_5" data-name="Group 5" transform="translate(128.74 99.828)">
              <path id="Path_33" data-name="Path 33" d="M292.272,229.547a16.447,16.447,0,0,0-1.507-9.33,20.4,20.4,0,0,0-4.449-5.995,26.951,26.951,0,0,0-5.4-3.918,28.97,28.97,0,0,1,6.369,6.251,21.871,21.871,0,0,1,4.345,12.5c.426.36.738.917,1.166,1.278C292.843,230.257,292.5,229.722,292.272,229.547Z" transform="translate(-73.627 -76.958)" fill="#c1bbef"/>
              <path id="Path_69" data-name="Path 69" d="M189.527,133.7l4.16,10.393,20.742,92.688,1.678-1.933-20.067-91.9Z" transform="translate(-141.308 -133.696)" fill="#c1bbef"/>
              <g id="Group_4" data-name="Group 4" transform="translate(79.068 81.614)">
                <path id="Path_70" data-name="Path 70" d="M291.033,218.15s-33.072,2.9-47.867,7.544c0,0-20.6-8.414-22.628-11.025s-.58-7.288-4.352-11.06c-3.206-3.206-6.71-4.209-8.936-2.924a8.079,8.079,0,0,0,1.022.327,12.414,12.414,0,0,1,7.519,5.782,12.953,12.953,0,0,1,1.318,9.61,1.859,1.859,0,0,1,2.329-.653,7.56,7.56,0,0,1,2.115,1.584c2.3,2.045,5.192,3.086,7.929,4.392a62.582,62.582,0,0,1,6.759,3.755c.964.618,1.939,1.241,2.869,1.911a16.774,16.774,0,0,1,2.428,2.433c7.561-3.6,22.212-5.883,30.557-7.709,8.021-1.753,16.111-3.5,24.313-3.657A24.406,24.406,0,0,0,291.033,218.15Z" transform="translate(-207.25 -166.098)" fill="#fff"/>
                <path id="Path_71" data-name="Path 71" d="M283.42,180.9s-19.878-4.546-24.964,20.769a3.992,3.992,0,0,1-1.845-.507,2.321,2.321,0,0,0-3.267,2.545,11.873,11.873,0,0,0,1.537,4.2,18.555,18.555,0,0,0,5.831,5.408,30.9,30.9,0,0,0,2.4,9.721q-.54-3.07-1.083-6.144c-.4-2.266-.211-2.867-1.088-4.994-.5-1.224-1.889-1.889-2.782-2.8a14.145,14.145,0,0,1-2.607-3.683,1.8,1.8,0,0,1-.218-1.4,1.166,1.166,0,0,1,.667-.574c.529-.212,2.477-.146,3.018-.324,1.272-.416.949-1.408,1.546-2.6,1.274-2.56,2.9-4.929,4.352-7.394a21.342,21.342,0,0,1,3.387-4.712,14.364,14.364,0,0,1,4.808-2.91,21.814,21.814,0,0,1,26.442,8.788C295.446,182.059,283.42,180.9,283.42,180.9Z" transform="translate(-173.145 -180.584)" fill="#c1bbef"/>
              </g>
              <path id="Path_72" data-name="Path 72" d="M249.21,283.295c5.753-3.262,11.878-6.961,14.745-12.921,2.087-4.339,1.243-9.459,1.976-14.216.242-1.567.656-3.1.957-4.656a32.737,32.737,0,0,0-4.3-23.056c1.572,5.547,3.1,13.554,1.786,20.961-2.322,13.055-2.322,17.988-2.322,17.988s-11.676,15.592-26.036,18.639-13.055,10.879-10.009,17.189c2.517,5.215,10.966,21.258,14.933,30.976a45.5,45.5,0,0,0-3.466-15.979c-3.574-7.908-13.34-14.169-12.177-22.769.522-3.852,4.212-6.531,7.929-7.673s7.7-1.225,11.4-2.421A24.79,24.79,0,0,0,249.21,283.295Z" transform="translate(-115.741 -63.522)" fill="#978bd1"/>
              <path id="Path_74" data-name="Path 74" d="M243.935,303.607a24.369,24.369,0,0,0,1.615,7.184c.212.54.456,1.076.722,1.6-1.565-6.623.078-11.9-.8-16.618a79.475,79.475,0,0,0-3.916-12.837,175.9,175.9,0,0,1,16.51-13.3q-.553.277-1.09.573a124.463,124.463,0,0,0-10.755,6.661c-2.613,1.809-5.208,3.744-8.214,4.775,3.21,2.968,5.154,7.626,5.716,11.962C244.158,296.918,243.7,300.279,243.935,303.607Z" transform="translate(-105.399 -33.013)" fill="#978bd1"/>
              <path id="Path_75" data-name="Path 75" d="M271.533,318.375c.776-1.636,2.614-3.034,3.3-4.714-2.822-1.676-4.376-4.846-5.478-7.939-2.371-6.667-3.352-13.735-5.161-20.576a45.859,45.859,0,0,0-5.706-13.568c2.5,6.026,3.993,14.39,4.463,20.151.87,10.661,7.4,23.716,7.4,23.716s-2.393,8.05-1.741,14.578c.357,3.568,2.529,9.143,4.571,14.5-.823-3.149-1.521-5.671-2.178-9.091a50.434,50.434,0,0,1-.573-9.861C270.445,323.125,270.483,320.587,271.533,318.375Z" transform="translate(-90.235 -31.577)" fill="#978bd1"/>
              <path id="Path_76" data-name="Path 76" d="M275.524,322.393c-1.523-5.222,3.916-25.239,2.176-37.423-.453-3.164-1.081-7.387-1.763-11.9,1.111,9.37.308,18.917-.5,28.348-.334,3.913-.7,7.939-2.494,11.431a70.783,70.783,0,0,0,4.04,18.632A75.24,75.24,0,0,0,275.524,322.393Z" transform="translate(-79.528 -30.475)" fill="#fff"/>
              <path id="Path_78" data-name="Path 78" d="M309.512,219.72c-1.123-1.272-2.3-2.534-3.556-3.725a30.729,30.729,0,0,0-4.862-3.812c-4.912-3.057-10.5-4.214-15.906-5.337-1.095-.225-2.186-.451-3.269-.695-.548-.122-1.117-.261-1.688-.4,7.873,2.912,16.764,3.73,23.225,9.044a40.727,40.727,0,0,1,3.293,3.147,6.739,6.739,0,0,1,1.589,2.15,6.412,6.412,0,0,0,.654,1.671,1.637,1.637,0,0,0,.83.534A2.288,2.288,0,0,0,309.512,219.72Z" transform="translate(-74.131 -80.333)" fill="#c1bbef"/>
            </g>
          </g>
        </g>
      </g>
    </g>
  </g>
</svg>
